<svg width="206" height="103" viewBox="0 0 206 103" fill="none" xmlns="http://www.w3.org/2000/svg">
<path d="M77.2887 25.693L103 51.4636L128.711 25.693L154.5 -0.000167847H103H51.5L77.2887 25.693Z" fill="black"/>
<path d="M23.7752 27.7053L0 51.4638L23.8526 75.2996L47.6278 99.0581L57.3083 89.4619C62.6519 84.1994 68.3828 78.4726 70.0865 76.6926L73.1068 73.5197L62.497 62.84C56.6888 57.0358 51.8873 51.8507 51.8873 51.4638C51.8873 51.0768 56.6888 45.8918 62.497 40.0876L73.1843 29.4079L60.4061 16.6387L47.6278 3.86945L23.7752 27.7053Z" fill="#35AB7B"/>
<path d="M145.595 16.6387L132.816 29.4079L143.891 40.3971L154.888 51.4638L143.891 62.453L132.816 73.5197L145.595 86.2889L158.373 99.0581L182.225 75.2222L206.001 51.4638L182.148 27.6279L158.373 3.86945L145.595 16.6387Z" fill="#35AB7B"/>
<path d="M77.2887 77.3891L51.5 102.85L103 102.927H154.5L128.944 77.3891C114.926 63.3042 103.31 51.8506 103.232 51.8506C103.155 51.8506 91.4609 63.3042 77.2887 77.3891Z" fill="black"/>
</svg>
