<svg width="34" height="34" viewBox="0 0 34 34" fill="none" xmlns="http://www.w3.org/2000/svg">
<path fill-rule="evenodd" clip-rule="evenodd" d="M10.5755 1.51019C12.2372 1.43369 12.7671 1.41669 17.0001 1.41669C21.2331 1.41669 21.7629 1.4351 23.4233 1.51019C25.0836 1.58527 26.2169 1.85019 27.2086 2.2341C28.247 2.62652 29.1891 3.23994 29.9682 4.03327C30.7616 4.81102 31.3736 5.75169 31.7646 6.79152C32.1499 7.78319 32.4134 8.91652 32.4899 10.574C32.5664 12.2386 32.5834 12.7684 32.5834 17C32.5834 21.233 32.565 21.7629 32.4899 23.4246C32.4148 25.0821 32.1499 26.2154 31.7646 27.2071C31.3736 28.2471 30.7606 29.1893 29.9682 29.9682C29.1891 30.7615 28.247 31.3735 27.2086 31.7645C26.2169 32.1499 25.0836 32.4134 23.4261 32.4899C21.7629 32.5664 21.2331 32.5834 17.0001 32.5834C12.7671 32.5834 12.2372 32.5649 10.5755 32.4899C8.918 32.4148 7.78467 32.1499 6.793 31.7645C5.75305 31.3735 4.81083 30.7605 4.03191 29.9682C3.23912 29.19 2.62561 28.2482 2.23416 27.2085C1.85025 26.2169 1.58675 25.0835 1.51025 23.426C1.43375 21.7614 1.41675 21.2316 1.41675 17C1.41675 12.767 1.43516 12.2372 1.51025 10.5769C1.58533 8.91652 1.85025 7.78319 2.23416 6.79152C2.62619 5.7518 3.24017 4.81005 4.03333 4.03185C4.81114 3.23923 5.75242 2.62573 6.79158 2.2341C7.78325 1.85019 8.91658 1.58669 10.5741 1.51019H10.5755ZM23.2972 4.31519C21.6538 4.2401 21.1608 4.22452 17.0001 4.22452C12.8393 4.22452 12.3463 4.2401 10.703 4.31519C9.18291 4.3846 8.35842 4.63819 7.80875 4.8521C7.082 5.13544 6.56208 5.47119 6.01667 6.0166C5.49965 6.51959 5.10175 7.13192 4.85216 7.80869C4.63825 8.35835 4.38466 9.18285 4.31525 10.7029C4.24016 12.3463 4.22458 12.8393 4.22458 17C4.22458 21.1608 4.24016 21.6538 4.31525 23.2971C4.38466 24.8172 4.63825 25.6417 4.85216 26.1914C5.1015 26.8671 5.49958 27.4805 6.01667 27.9834C6.51958 28.5005 7.133 28.8986 7.80875 29.1479C8.35842 29.3619 9.18291 29.6154 10.703 29.6849C12.3463 29.7599 12.8379 29.7755 17.0001 29.7755C21.1622 29.7755 21.6538 29.7599 23.2972 29.6849C24.8172 29.6154 25.6418 29.3619 26.1914 29.1479C26.9182 28.8646 27.4381 28.5289 27.9835 27.9834C28.5006 27.4805 28.8987 26.8671 29.148 26.1914C29.3619 25.6417 29.6155 24.8172 29.6849 23.2971C29.76 21.6538 29.7756 21.1608 29.7756 17C29.7756 12.8393 29.76 12.3463 29.6849 10.7029C29.6155 9.18285 29.3619 8.35835 29.148 7.80869C28.8647 7.08194 28.5289 6.56202 27.9835 6.0166C27.4805 5.49962 26.8682 5.10174 26.1914 4.8521C25.6418 4.63819 24.8172 4.3846 23.2972 4.31519ZM15.0097 21.8039C16.1213 22.2667 17.359 22.3291 18.5116 21.9806C19.6641 21.6321 20.6599 20.8943 21.3289 19.8932C21.9978 18.8921 22.2985 17.6898 22.1795 16.4916C22.0605 15.2934 21.5292 14.1737 20.6763 13.3238C20.1327 12.7804 19.4753 12.3644 18.7516 12.1056C18.0278 11.8469 17.2557 11.7518 16.4908 11.8272C15.7259 11.9027 14.9872 12.1468 14.328 12.542C13.6687 12.9371 13.1053 13.4736 12.6783 14.1126C12.2512 14.7517 11.9712 15.4775 11.8583 16.2378C11.7454 16.9981 11.8025 17.7739 12.0255 18.5095C12.2485 19.2451 12.6318 19.9221 13.1478 20.4917C13.6638 21.0614 14.2997 21.5095 15.0097 21.8039ZM11.3362 11.3362C12.08 10.5924 12.963 10.0024 13.9348 9.59987C14.9066 9.19733 15.9482 8.99015 17.0001 8.99015C18.052 8.99015 19.0935 9.19733 20.0653 9.59987C21.0371 10.0024 21.9201 10.5924 22.6639 11.3362C23.4077 12.08 23.9977 12.963 24.4002 13.9348C24.8028 14.9066 25.01 15.9481 25.01 17C25.01 18.0519 24.8028 19.0935 24.4002 20.0653C23.9977 21.0371 23.4077 21.9201 22.6639 22.6639C21.1618 24.166 19.1244 25.0099 17.0001 25.0099C14.8757 25.0099 12.8384 24.166 11.3362 22.6639C9.83411 21.1617 8.99021 19.1244 8.99021 17C8.99021 14.8757 9.83411 12.8383 11.3362 11.3362ZM26.7864 10.183C26.9707 10.0092 27.1183 9.80007 27.2203 9.56815C27.3224 9.33623 27.3769 9.08619 27.3806 8.83284C27.3843 8.57948 27.3371 8.32796 27.2418 8.09317C27.1466 7.85837 27.0052 7.64508 26.826 7.46591C26.6469 7.28674 26.4336 7.14534 26.1988 7.05009C25.964 6.95483 25.7125 6.90765 25.4591 6.91135C25.2057 6.91504 24.9557 6.96953 24.7238 7.07159C24.4919 7.17365 24.2828 7.32121 24.1089 7.50552C23.7708 7.86398 23.5856 8.34011 23.5928 8.83284C23.6 9.32557 23.7989 9.7961 24.1474 10.1445C24.4958 10.493 24.9664 10.6919 25.4591 10.6991C25.9518 10.7063 26.428 10.5212 26.7864 10.183Z" fill="black"/>
</svg>
