<svg width="25" height="26" viewBox="0 0 25 26" fill="none" xmlns="http://www.w3.org/2000/svg">
<circle cx="12.5" cy="13.5" r="11.5" fill="#35AB7B"/>
<path d="M7.6378 1.18613C5.37425 1.71593 4.24035 4.8775 5.42267 7.3747C5.6056 7.76034 5.88065 8.14273 6.23868 8.51708C6.36104 8.64502 6.51436 8.85747 6.58143 8.98922L6.70211 9.22917L6.68083 11.563C6.66313 13.6588 6.65439 13.9341 6.57605 14.2457C6.52715 14.4363 6.46919 14.6175 6.44109 14.6497C6.41298 14.682 6.20937 14.7535 5.99208 14.8155C5.22475 15.0277 4.72797 15.3094 4.20934 15.8196C3.69545 16.3205 3.3978 16.8294 3.17501 17.5635L3.06355 17.9353L2.69306 18.0836C1.95201 18.3849 1.44483 18.7458 1.19934 19.1528L1.07185 19.3656L1.05607 20.4157L1.04028 21.4658L1.16124 21.6871C1.78438 22.7985 4.51911 23.6905 8.55002 24.0984C10.4483 24.2912 12.5094 24.3652 14.393 24.3103C19.4174 24.1594 22.9334 23.2989 23.6935 22.0362C23.821 21.8188 23.8211 21.8141 23.8497 20.8295C23.8771 19.9243 23.8741 19.8215 23.7895 19.6288C23.6652 19.3235 23.348 18.9918 22.9466 18.7475C22.6592 18.5703 22.6048 18.5181 22.629 18.4391C22.9147 17.4959 22.8238 16.5048 22.3847 15.7043C22.165 15.3135 21.5713 14.6927 21.1928 14.4581C21.0286 14.3575 20.7314 14.2222 20.5299 14.1491C20.2185 14.0415 20.0808 14.0207 19.5884 14.0084C18.9119 13.9933 18.5933 14.0584 18.0553 14.3255L17.6936 14.5019L17.7254 12.3923C17.7605 10.0541 17.7708 9.97952 18.0573 9.60582C18.2402 9.37524 18.5101 9.18335 18.7644 9.1126C19.5318 8.89574 20.1585 8.23788 20.3266 7.46554C20.4057 7.10263 20.4729 2.32797 20.4031 2.07013C20.2895 1.6669 19.7889 1.28567 19.3655 1.27912C18.9421 1.27256 18.4302 1.63809 18.3045 2.03762C18.261 2.177 18.2379 2.79753 18.2161 4.24437L18.1858 6.26062L18.0691 6.37085C17.9195 6.52259 17.7078 6.51931 17.5628 6.36301L17.4495 6.24922L17.4798 4.23297C17.5015 2.78612 17.497 2.16516 17.4577 2.0245C17.3441 1.62127 16.8435 1.24004 16.4201 1.23349C15.9967 1.22693 15.4848 1.59246 15.3591 1.99199C15.3156 2.13137 15.2925 2.7519 15.2707 4.19874L15.2404 6.21499L15.1237 6.32522C14.9741 6.47696 14.7624 6.47368 14.6174 6.31738L14.5041 6.20359L14.5344 4.18734C14.5561 2.74049 14.5517 2.11953 14.5123 1.97887C14.3987 1.57564 13.8981 1.19442 13.4747 1.18786C13.0513 1.1813 12.5394 1.54683 12.4137 1.94636C12.3411 2.18799 12.2601 6.95777 12.3236 7.33222C12.4549 8.08586 13.0841 8.79585 13.84 9.03631C14.2523 9.16874 14.624 9.5573 14.7463 9.99335C14.7986 10.1902 14.807 10.5498 14.7855 11.978C14.7711 12.9348 14.7455 13.7187 14.7271 13.7184C14.7041 13.718 14.5067 13.6823 14.2772 13.6367C14.0523 13.5959 13.5421 13.546 13.1512 13.5212L12.4382 13.4869L11.2734 12.2737L10.1086 11.0606L9.92191 11.2304C9.81466 11.3221 9.70762 11.3998 9.68 11.3994C9.64779 11.3989 9.64356 11.0674 9.66379 10.3348C9.69324 9.29418 9.69359 9.27085 9.81668 9.04401C9.88768 8.91439 10.0192 8.73903 10.1126 8.65178C11.0884 7.7379 11.6097 6.43884 11.5614 5.06094C11.5221 4.00062 11.2583 3.17491 10.7126 2.41952C9.96844 1.39963 8.78342 0.919111 7.6378 1.18613ZM8.83723 1.93297C9.74481 2.18978 10.4454 3.04561 10.7358 4.24986C10.844 4.70437 10.8552 5.48882 10.7601 5.9962C10.6052 6.81075 10.316 7.36648 9.6988 8.00581C9.01594 8.72349 8.93858 8.96971 8.91543 10.5099L8.8988 11.616L8.6949 11.7062C8.39379 11.8323 7.96116 12.1337 7.66694 12.4139L7.41003 12.662L7.43473 11.0192C7.46708 8.86756 7.44115 8.75512 6.71687 7.94094C6.11928 7.27345 5.86488 6.74199 5.73471 5.90901C5.65477 5.40826 5.68964 4.61985 5.81143 4.17358C6.26469 2.5 7.5262 1.5672 8.83723 1.93297ZM13.7148 2.05522L13.8282 2.16901L13.7979 4.18526C13.7761 5.63211 13.7806 6.25307 13.8199 6.39373C13.9335 6.79696 14.4342 7.17818 14.8576 7.18474C15.281 7.1913 15.7928 6.82577 15.9185 6.42624C15.962 6.28686 15.9852 5.66633 16.0069 4.21948L16.0372 2.20324L16.154 2.09301C16.2241 2.0194 16.3214 1.97889 16.4089 1.98024C16.4963 1.9816 16.5923 2.0251 16.6602 2.10085L16.7736 2.21464L16.7433 4.23089C16.7215 5.67774 16.726 6.2987 16.7653 6.43935C16.8789 6.84259 17.3796 7.22381 17.803 7.23037C18.2264 7.23693 18.7382 6.87139 18.8639 6.47187C18.9074 6.33249 18.9306 5.71196 18.9523 4.26511L18.9826 2.24887L19.0994 2.13863C19.249 1.9869 19.4607 1.99018 19.6056 2.14648L19.719 2.26027L19.6819 4.72924C19.6412 7.43158 19.6359 7.47818 19.3634 7.84742C19.1989 8.06896 18.8965 8.28368 18.6375 8.3637C17.856 8.59901 17.2246 9.26614 17.0705 10.02C17.0408 10.1596 17.007 11.1861 16.9883 12.4276C16.9704 13.6178 16.9465 14.5931 16.9327 14.5929C16.9189 14.5926 16.7681 14.5203 16.5992 14.429C16.4301 14.3423 16.1147 14.1974 15.8951 14.1099L15.4924 13.9496L15.5203 12.0921C15.5379 10.9206 15.5312 10.1409 15.5013 9.98638C15.3565 9.20919 14.7499 8.53222 13.9893 8.29169C13.7373 8.21309 13.4734 8.01293 13.2974 7.77679C13.0178 7.38966 13.0138 7.35225 13.0547 4.62658L13.0919 2.15761L13.2086 2.04738C13.2787 1.97377 13.376 1.93326 13.4635 1.93462C13.5509 1.93597 13.6469 1.97947 13.7148 2.05522ZM10.31 12.3615L10.6 12.6648L10.4146 12.7553C10.3125 12.8097 10.0535 12.8897 9.84093 12.9424C9.31425 13.0697 8.98002 13.2559 8.62471 13.6192C8.2648 13.9824 8.12748 14.237 7.95735 14.8366C7.82084 15.3433 7.75933 15.4544 7.48338 15.7443C7.24481 15.9973 6.97118 16.1331 6.48145 16.2516C5.95937 16.3789 5.68099 16.524 5.31669 16.8731C4.94779 17.2222 4.75405 17.5553 4.61258 18.0853C4.55413 18.2991 4.46736 18.5592 4.41059 18.661L4.31574 18.8463L4.03023 18.5478L3.74464 18.2539L3.86148 17.8309C4.03656 17.2081 4.26322 16.8288 4.73052 16.3645C5.2025 15.8957 5.64335 15.6597 6.30399 15.5019C6.68737 15.4145 6.76617 15.3784 6.93444 15.2082C7.10265 15.0428 7.14066 14.964 7.23818 14.6014C7.41403 13.9272 7.67409 13.4691 8.14133 13.0095C8.60389 12.5545 8.98924 12.3364 9.60853 12.1732C9.83502 12.1114 10.0199 12.0629 10.0199 12.0629C10.0199 12.0582 10.1514 12.1956 10.31 12.3615ZM11.554 13.8139C11.4183 13.9612 10.7649 14.2499 10.3353 14.3506C9.95194 14.438 9.87315 14.4741 9.70487 14.6443C9.53206 14.8097 9.49405 14.8884 9.39619 15.2744C9.22047 15.9392 8.9745 16.3789 8.49799 16.843C8.02601 17.3119 7.58516 17.5478 6.92452 17.7056C6.54113 17.7931 6.46234 17.8292 6.29406 17.9993C6.12126 18.1647 6.08325 18.2435 5.98538 18.6294C5.87782 19.0479 5.59702 19.6598 5.42861 19.8392C5.35371 19.9221 5.33998 19.9172 5.09072 19.6566L4.82779 19.3864L4.91245 19.2664C5.07704 19.0355 5.19616 18.7666 5.2987 18.376C5.53273 17.5067 5.88308 17.1666 6.75166 16.956C7.26914 16.8287 7.63573 16.6336 7.97681 16.2981C8.31789 15.9626 8.52132 15.5969 8.66265 15.0763C8.89674 14.2023 9.24256 13.8575 10.1065 13.6468C10.4807 13.5592 10.8189 13.4151 11.0145 13.2687C11.1029 13.2047 11.1257 13.2191 11.3659 13.4702C11.6062 13.712 11.6196 13.7403 11.554 13.8139ZM14.22 14.3828C15.0185 14.5445 15.8654 14.8564 16.5501 15.2452L16.8056 15.3938L16.7116 15.5231C16.6599 15.597 16.5652 15.7682 16.4987 15.9073L16.389 16.1577L15.9744 16.1792C15.1451 16.2271 14.4546 16.5385 13.8564 17.1314C13.4265 17.5589 13.1813 17.9473 12.9984 18.4766C12.8876 18.8064 12.872 18.9228 12.8637 19.4782C12.8553 20.0336 12.8674 20.1505 12.9682 20.4836C13.1176 20.962 13.3551 21.3905 13.681 21.755C13.8259 21.916 13.9296 22.0623 13.9109 22.0807C13.8642 22.1267 11.4575 22.0754 10.3537 22.0069C8.2612 21.8765 6.30886 21.6082 4.86415 21.2543L4.40548 21.1445L4.41749 20.958C4.42364 20.8554 4.45915 20.6365 4.48915 20.4782L4.54886 20.1804L4.95221 20.6021L5.36023 21.0193L5.64092 20.7202C6.16946 20.1635 6.59551 19.3811 6.70128 18.7759C6.72123 18.6735 6.7596 18.5714 6.79223 18.5439C6.8202 18.521 7.02381 18.4494 7.24103 18.3921C8.00376 18.1799 8.50054 17.8981 9.01917 17.388C9.5424 16.8779 9.85421 16.3459 10.0631 15.6162C10.1262 15.3977 10.1936 15.2027 10.2123 15.1843C10.2357 15.1613 10.4392 15.0945 10.6657 15.0326C11.1742 14.8911 11.6517 14.6651 11.9638 14.4225L12.1968 14.2347L13.0018 14.2705C13.4481 14.2868 13.9905 14.3372 14.22 14.3828ZM20.0186 14.7854C20.909 14.9626 21.6715 15.684 21.9703 16.6316C22.0846 16.9882 22.0728 17.7722 21.9478 18.1251C21.6542 18.9749 21.0422 19.5769 20.191 19.8532C19.8394 19.9691 19.0663 19.9571 18.7183 19.8304C18.2834 19.6742 17.9506 19.459 17.6423 19.1415C16.6543 18.1085 16.6834 16.4797 17.7067 15.4731C18.3327 14.862 19.1604 14.6134 20.0186 14.7854ZM16.1788 17.2841L16.1732 17.6528L15.9196 17.6816C15.5738 17.7183 15.0729 17.9719 14.8296 18.2296C14.722 18.3446 14.5666 18.5756 14.4858 18.7471C14.3481 19.0297 14.3332 19.0995 14.3271 19.5056C14.3208 19.9256 14.3294 19.9678 14.4854 20.3063C14.5925 20.5274 14.7321 20.735 14.8638 20.8584C15.1132 21.105 15.5518 21.3265 15.8779 21.3736L16.1167 21.41L16.1225 21.0273C16.1273 20.7099 16.1144 20.649 16.0545 20.6481C15.7002 20.6426 15.1909 20.2239 15.0905 19.8582C14.9683 19.4175 15.0656 19.0689 15.3972 18.7472C15.6403 18.5036 15.8719 18.4044 16.1803 18.4092C16.3367 18.4116 16.3503 18.4259 16.4571 18.6749C16.7725 19.4314 17.4982 20.1523 18.2441 20.4486L18.5187 20.5555L18.4286 20.7315C18.22 21.1298 17.8645 21.5071 17.4417 21.7713C17.2372 21.8988 17.1679 21.9164 16.5365 21.9627C15.4167 22.048 15.3523 22.0424 14.9504 21.8307C13.4065 21.0319 13.1072 18.8985 14.3594 17.6621C14.8172 17.2164 15.4568 16.9275 16.037 16.9178L16.1843 16.9154L16.1788 17.2841ZM3.55635 19.1427L3.95517 19.5596L3.82745 20.0945C3.75852 20.3922 3.69895 20.6807 3.69797 20.7461C3.69698 20.8114 3.68226 20.8719 3.66818 20.8903C3.6308 20.9271 3.06329 20.7082 2.60637 20.4818C2.16779 20.2602 1.77726 19.904 1.78 19.722C1.7821 19.582 1.89982 19.4064 2.10492 19.2369C2.26335 19.1086 3.01494 18.7188 3.10698 18.7202C3.1346 18.7206 3.33429 18.9105 3.55635 19.1427ZM22.4958 19.3334C22.9019 19.5777 23.1373 19.8381 23.1342 20.0435C23.1334 20.0995 23.0765 20.2107 23.0062 20.2936C22.5892 20.7773 21.3764 21.2254 19.5622 21.5707C19.1051 21.657 18.7222 21.7164 18.7086 21.7022C18.695 21.688 18.7611 21.577 18.8505 21.4477C18.9444 21.3231 19.072 21.1056 19.1339 20.9665L19.2482 20.7116L19.6767 20.6902C20.1651 20.6604 20.7292 20.4917 21.1332 20.2552C21.4537 20.0641 21.9249 19.6466 22.1037 19.3926C22.1789 19.2864 22.2492 19.2035 22.263 19.2037C22.2768 19.2039 22.3818 19.2616 22.4958 19.3334ZM2.24274 21.0923C3.68106 21.8709 6.06682 22.398 9.53767 22.7039C10.6272 22.8001 14.1985 22.8554 15.2904 22.793C18.7919 22.5905 21.1785 22.142 22.6581 21.3993C22.8715 21.2905 23.0663 21.1909 23.0895 21.1819C23.1126 21.1729 23.1202 21.2851 23.1042 21.4295C23.0875 21.6207 23.0491 21.7228 22.9649 21.8148C22.3005 22.5281 19.8466 23.167 16.7768 23.4322C14.2279 23.6542 11.0062 23.6183 8.51523 23.3509C5.24757 23.0016 2.7262 22.3089 1.978 21.5551C1.76485 21.3417 1.756 21.3182 1.75951 21.0849C1.76154 20.9495 1.77689 20.847 1.79977 20.8567C1.81803 20.8663 2.01899 20.9722 2.24274 21.0923Z" fill="black"/>
</svg>
