<svg width="494" height="254" viewBox="0 0 494 254" fill="none" xmlns="http://www.w3.org/2000/svg">
<rect y="10" width="494" height="238" fill="#35AB7B"/>
<path d="M332.125 31.7501V52.9168C332.125 72.5649 325.273 91.4083 313.075 105.302C300.877 119.195 284.334 127 267.083 127H257.792V137.583H304.25V211.667C304.25 217.281 302.292 222.664 298.807 226.634C295.322 230.603 290.595 232.833 285.667 232.833H211.333C206.405 232.833 201.678 230.603 198.193 226.634C194.708 222.664 192.75 217.281 192.75 211.667V137.583H239.208V105.833C239.208 86.1853 246.061 67.3419 258.259 53.4486C270.456 39.5553 287 31.7501 304.25 31.7501H332.125ZM188.104 21.1668C199.254 21.1565 210.243 24.1977 220.145 30.0343C230.048 35.8709 238.574 44.332 245.006 54.7054C235.189 69.4011 229.886 87.3668 229.917 105.833V116.417H225.271C206.789 116.417 189.063 108.054 175.994 93.1684C162.926 78.2827 155.583 58.0933 155.583 37.0418V21.1668H188.104Z" fill="white"/>
</svg>
