<svg width="781" height="526" viewBox="0 0 781 526" fill="none" xmlns="http://www.w3.org/2000/svg">
<g clip-path="url(#clip0_314_102)">
<path d="M427.068 191.235V216.733C427.068 223.78 420.982 229.482 413.461 229.482H386.248C378.726 229.482 372.641 223.78 372.641 216.733V191.235C372.641 184.188 378.726 178.486 386.248 178.486H413.461C420.982 178.486 427.068 184.188 427.068 191.235ZM413.461 280.478H386.248C378.726 280.478 372.641 286.18 372.641 293.227V318.725C372.641 325.773 378.726 331.475 386.248 331.475H413.461C420.982 331.475 427.068 325.773 427.068 318.725V293.227C427.068 286.18 420.982 280.478 413.461 280.478ZM522.316 178.486H495.102C487.581 178.486 481.495 184.188 481.495 191.235V216.733C481.495 223.78 487.581 229.482 495.102 229.482H522.316C529.837 229.482 535.922 223.78 535.922 216.733V191.235C535.922 184.188 529.837 178.486 522.316 178.486ZM522.316 280.478H495.102C487.581 280.478 481.495 286.18 481.495 293.227V318.725C481.495 325.773 487.581 331.475 495.102 331.475H522.316C529.837 331.475 535.922 325.773 535.922 318.725V293.227C535.922 286.18 529.837 280.478 522.316 280.478ZM631.17 178.486H603.956C596.435 178.486 590.35 184.188 590.35 191.235V216.733C590.35 223.78 596.435 229.482 603.956 229.482H631.17C638.691 229.482 644.777 223.78 644.777 216.733V191.235C644.777 184.188 638.691 178.486 631.17 178.486ZM631.17 280.478H603.956C596.435 280.478 590.35 286.18 590.35 293.227V318.725C590.35 325.773 596.435 331.475 603.956 331.475H631.17C638.691 331.475 644.777 325.773 644.777 318.725V293.227C644.777 286.18 638.691 280.478 631.17 280.478ZM386.248 76.4941H413.461C420.982 76.4941 427.068 70.7921 427.068 63.7451V12.749C427.068 5.702 420.982 0 413.461 0H386.248C378.726 0 372.641 5.702 372.641 12.749V63.7451C372.641 70.7921 378.726 76.4941 386.248 76.4941ZM726.418 101.992V356.973C726.418 385.135 702.048 407.969 671.991 407.969H345.427C315.37 407.969 291 385.135 291 356.973V101.992C291 73.8296 315.37 50.9961 345.427 50.9961H359.034V63.7451C359.034 77.7889 371.245 89.2431 386.248 89.2431H413.461C428.464 89.2431 440.675 77.7889 440.675 63.7451V50.9961H576.743V63.7451C576.743 77.7889 588.968 89.2431 603.956 89.2431H631.17C646.159 89.2431 658.384 77.7889 658.384 63.7451V50.9961H671.991C702.048 50.9961 726.418 73.8296 726.418 101.992ZM699.204 152.988C699.204 138.944 687.006 127.49 671.991 127.49H345.427C330.425 127.49 318.214 138.944 318.214 152.988V356.973C318.214 371.041 330.425 382.471 345.427 382.471H671.991C687.006 382.471 699.204 371.041 699.204 356.973V152.988ZM603.956 76.4941H631.17C638.691 76.4941 644.777 70.7921 644.777 63.7451V12.749C644.777 5.702 638.691 0 631.17 0H603.956C596.435 0 590.35 5.702 590.35 12.749V63.7451C590.35 70.7921 596.435 76.4941 603.956 76.4941Z" fill="black"/>
</g>
<rect x="371" y="178.106" width="58" height="51.9696" rx="12" fill="#FFAF10"/>
<rect x="480" y="280.154" width="58" height="51.9696" rx="12" fill="#FFAF10"/>
<rect x="481" y="178.106" width="58" height="51.9696" rx="12" fill="#FFAF10"/>
<g clip-path="url(#clip1_314_102)">
<path d="M777.796 315.026L762.231 299.906C760.097 297.831 757.501 296.793 754.451 296.793C751.397 296.793 748.801 297.831 746.667 299.906L671.589 372.952L637.941 340.153C635.805 338.077 633.211 337.041 630.16 337.041C627.107 337.041 624.513 338.077 622.377 340.153L606.812 355.274C604.676 357.349 603.608 359.87 603.608 362.835C603.608 365.798 604.676 368.321 606.812 370.396L648.241 410.642L663.807 425.763C665.942 427.839 668.537 428.876 671.589 428.876C674.64 428.876 677.235 427.837 679.371 425.763L694.937 410.642L777.796 330.148C779.93 328.072 781 325.552 781 322.586C781.002 319.622 779.93 317.102 777.796 315.026Z" fill="#4B9E7D"/>
</g>
<path d="M258.123 302.212C260.349 302.43 261.957 304.364 261.714 306.532C261.471 308.7 259.469 310.28 257.243 310.062L258.123 302.212ZM130.21 506.171C130.107 508.348 128.211 510.047 125.974 509.965L89.5214 508.636C87.2845 508.555 85.5543 506.724 85.6568 504.547C85.7594 502.37 87.6558 500.671 89.8927 500.753L122.295 501.934L123.78 470.398C123.883 468.221 125.779 466.522 128.016 466.604C130.253 466.685 131.983 468.516 131.881 470.693L130.21 506.171ZM257.243 310.062C194.693 303.927 141.027 329.771 113.893 368.197C100.34 387.392 93.3955 409.717 95.1541 432.882C96.9118 456.035 107.385 480.304 129.155 503.34L123.164 508.706C100.333 484.545 88.9752 458.663 87.0671 433.529C85.1599 408.408 92.7149 384.312 107.222 363.767C136.208 322.716 192.905 295.815 258.123 302.212L257.243 310.062Z" fill="black"/>
<defs>
<clipPath id="clip0_314_102">
<rect width="435.418" height="407.969" fill="white" transform="translate(291)"/>
</clipPath>
<clipPath id="clip1_314_102">
<rect width="177.392" height="172.332" fill="white" transform="translate(603.608 276.668)"/>
</clipPath>
</defs>
</svg>
