<svg width="386" height="392" viewBox="0 0 386 392" fill="none" xmlns="http://www.w3.org/2000/svg">
<path d="M349.008 67.7833L32.1666 122.5L29.7541 106.167C26.5375 88.2 38.6 71.8666 56.2916 68.6L310.408 25.3166C328.1 22.05 344.183 34.3 347.4 52.2666L349.008 67.7833Z" fill="#35AB7B"/>
<path d="M321.667 334.833H64.3333C46.6416 334.833 32.1666 320.133 32.1666 302.167V122.5H353.833V302.167C353.833 320.133 339.358 334.833 321.667 334.833Z" fill="#35AB7B"/>
<path d="M151.183 52.2667L190.588 95.55L222.754 89.8334L182.546 46.55L151.183 52.2667Z" fill="#F65E08"/>
<path d="M87.6542 62.8834L127.058 106.167L159.225 100.45L119.017 57.9834L87.6542 62.8834Z" fill="#F65E08"/>
<path d="M214.713 41.65L254.117 84.1167L285.479 79.2167L246.075 35.9333L214.713 41.65Z" fill="#F65E08"/>
<path d="M277.438 31.0333L317.646 73.5L349.008 67.7833L309.604 25.3167L277.438 31.0333Z" fill="#F65E08"/>
<path d="M60.3125 106.167C66.9744 106.167 72.375 100.682 72.375 93.9167C72.375 87.1513 66.9744 81.6667 60.3125 81.6667C53.6506 81.6667 48.25 87.1513 48.25 93.9167C48.25 100.682 53.6506 106.167 60.3125 106.167Z" fill="#F65E08"/>
<path d="M321.667 122.5L289.5 171.5H321.667L353.833 122.5H321.667Z" fill="#F65E08"/>
<path d="M257.333 122.5L225.167 171.5H257.333L289.5 122.5H257.333Z" fill="#F65E08"/>
<path d="M193 122.5L160.833 171.5H193L225.167 122.5H193Z" fill="#F65E08"/>
<path d="M128.667 122.5L96.5 171.5H128.667L160.833 122.5H128.667Z" fill="#F65E08"/>
<path d="M64.3333 122.5L32.1666 171.5H64.3333L96.5 122.5H64.3333Z" fill="#F65E08"/>
</svg>
