<svg width="172" height="157" viewBox="0 0 172 157" fill="none" xmlns="http://www.w3.org/2000/svg">
<path d="M136.581 1.46935C130.244 5.62193 122.499 7.66629 113.179 7.66629C109.96 7.66629 109.859 7.69824 108.887 8.59265L107.915 9.519V15.9395V22.3601L57.8912 22.424L7.8343 22.5198L5.99027 23.3503C3.77744 24.3406 1.93341 26.0655 0.894051 28.0779L0.122912 29.5473L0.0223292 76.3119C-0.0447263 117.391 0.0223292 123.3 0.45819 124.769C1.12875 126.974 3.67685 129.657 6.05733 130.679L7.8343 131.446L35.3606 131.541L62.8869 131.637L60.3723 141.188L57.8912 150.771H51.3533H44.8154L43.8431 151.697C42.5691 152.943 42.502 154.796 43.6755 156.106L44.4801 157H85.7863H127.093L127.897 156.106C129.071 154.796 129.004 152.943 127.73 151.697L126.757 150.771H120.186H113.648L113.313 149.557C113.111 148.918 112.072 144.862 110.932 140.549C109.826 136.237 108.82 132.468 108.719 132.18C108.552 131.669 110.262 131.605 136.145 131.541L163.738 131.446L165.515 130.679C167.896 129.657 170.444 126.974 171.114 124.769C171.55 123.332 171.617 116.273 171.55 66.154L171.45 9.19957L170.578 8.49681C169.773 7.826 169.237 7.76213 164.375 7.57047C154.954 7.18715 149.154 5.52611 142.817 1.40546C141.577 0.574936 140.302 -3.05176e-05 139.766 -3.05176e-05C139.23 -3.05176e-05 137.922 0.606888 136.581 1.46935ZM141.04 7.95378C142.448 8.88013 146.438 10.7009 148.785 11.4675C152.406 12.6494 156.161 13.3841 160.654 13.7994L164.912 14.1827V26.7682C164.912 36.5747 164.811 40.1204 164.375 42.7398C162.464 55.0059 154.854 65.3874 143.119 71.7121L139.766 73.5328L136.648 71.9037C129.071 67.9109 123.103 62.1931 119.415 55.4211C117.604 52.0991 116.8 50.0867 115.727 46.1577C114.855 42.9634 114.821 42.8995 114.721 28.557L114.587 14.1827L118.945 13.7994C125.919 13.1605 132.457 11.3078 137.084 8.65652C139.632 7.18715 139.867 7.15521 141.04 7.95378ZM107.915 31.943V35.1054L88.6027 35.2012L69.2907 35.297L68.3184 36.3511C67.0779 37.6608 67.0108 39.1941 68.1507 40.4718L68.9554 41.3662L88.5021 41.5259L108.049 41.6856L108.418 43.9216C108.652 45.1355 108.954 46.6368 109.055 47.1798L109.323 48.234H57.9918H6.66083V39.6413C6.66083 31.368 6.69435 31.0486 7.36491 30.2181C7.76724 29.7389 8.40427 29.1959 8.8066 29.0681C9.17541 28.9084 31.639 28.7806 58.7294 28.7806L107.915 28.7487V31.943ZM113.044 57.5933C115.224 61.7778 118.275 65.7707 122.164 69.4761C125.852 72.9898 128.501 74.8106 134.569 78.1326C137.486 79.6978 138.928 80.3048 139.766 80.3048C141.04 80.2728 147.276 77.1105 151.098 74.5231C155.926 71.2649 160.319 66.9845 163.403 62.5125C164.107 61.5223 164.711 60.6917 164.778 60.6917C164.845 60.6917 164.912 70.8177 164.912 83.2116V105.731H145.466H126.02V100.429C126.02 97.4582 125.886 94.8708 125.684 94.5514C125.081 93.4972 123.941 93.1139 120.89 92.9542L117.939 92.7945L116.8 90.271L115.626 87.7156L117.805 85.5754C121.326 82.1255 121.125 81.5825 113.547 74.5231C110.966 72.1273 108.652 70.2108 108.149 70.1149C106.641 69.7316 105.568 70.2108 103.422 72.1912L101.377 74.0759L98.6275 73.0537L95.8782 72.0315L95.8447 69.3802C95.8447 66.5693 95.3418 65.1318 94.2018 64.5249C93.3301 64.0777 78.2426 64.0777 77.3709 64.5249C76.2309 65.1318 75.728 66.5693 75.728 69.3802L75.6945 72.0315L72.9452 73.0537L70.1959 74.0759L68.1507 72.1912C66.005 70.2108 64.9321 69.7316 63.4233 70.1149C62.9204 70.2108 60.607 72.1273 58.0254 74.5231C50.4481 81.5825 50.2469 82.1255 53.7673 85.5754L55.9466 87.7156L54.7732 90.271L53.6332 92.7945L50.6828 92.9542C47.6317 93.1139 46.4918 93.4972 45.8883 94.5514C45.6871 94.8708 45.553 97.4582 45.553 100.429V105.731H26.1069H6.66083V80.177V54.6226H59.0647H111.502L113.044 57.5933ZM89.1391 72.8301C89.1391 75.8008 89.6756 76.7591 91.6537 77.4299C92.4919 77.7174 93.8665 78.1646 94.7718 78.4521C95.6435 78.7396 97.4875 79.5701 98.9292 80.2409C102.081 81.8061 102.818 81.7103 105.434 79.4742L107.278 77.8452L109.591 80.0173L111.904 82.2213L110.094 84.0421C107.781 86.342 107.713 87.1725 109.558 90.6543C110.295 92.0279 111.2 94.2 111.636 95.5097C112.676 98.8637 113.346 99.3428 116.665 99.3428H119.314V102.537V105.731H112.541H105.735L105.836 103.048C106.272 92.5389 96.9175 83.3713 85.7863 83.3713C78.3096 83.3713 71.0006 87.7794 67.7484 94.2319C66.1391 97.4582 65.5691 99.9178 65.7367 103.272L65.8373 105.731H59.0647H52.2586V102.537V99.3428H54.9073C58.2265 99.3428 58.8971 98.8637 59.9364 95.5097C60.3723 94.2 61.2775 92.0279 62.0152 90.6543C63.8592 87.1725 63.7921 86.342 61.4787 84.0421L59.6682 82.2213L61.9816 80.0173L64.295 77.8452L66.1391 79.4742C68.7207 81.6783 69.5254 81.8061 72.4088 80.3687C73.6828 79.7298 75.5939 78.9312 76.6333 78.5479C77.7061 78.1965 79.2149 77.6854 80.0196 77.3979C81.8971 76.7591 82.4336 75.7369 82.4336 72.8301V70.5941H85.7863H89.1391V72.8301ZM88.5356 90.1113C91.0167 90.6224 93.9336 92.1556 95.5429 93.8167C98.2251 96.5957 99.7339 101.196 99.0633 104.581L98.8286 105.731H85.8199H72.7776L72.5764 104.997C72.2076 103.687 72.3752 100.748 72.9117 99.0234C74.8898 92.6348 81.696 88.7377 88.5356 90.1113ZM164.912 117.486C164.912 123.46 164.744 123.939 162.699 124.769C161.023 125.44 10.55 125.44 8.87366 124.769C6.82846 123.939 6.66083 123.46 6.66083 117.486V112.12H85.7863H164.912V117.486ZM104.16 140.933C105.501 146.075 106.574 150.388 106.574 150.516C106.574 150.675 97.2193 150.771 85.7863 150.771C74.3534 150.771 64.9991 150.675 64.9991 150.516C64.9991 150.388 66.072 146.075 67.4131 140.933L69.8606 131.605H85.7863H101.712L104.16 140.933Z" fill="black"/>
<path d="M136.75 18.0478C133.699 19.581 130.782 20.4115 126.691 20.9226C123.439 21.3379 123.104 21.4337 122.232 22.392L121.26 23.3822L121.394 33.029C121.528 41.5259 121.629 42.9314 122.232 45.0716C124.478 52.8018 129.541 58.9348 136.817 62.7361C139.331 64.0777 139.968 64.1416 141.879 63.2152C148.115 60.1806 153.379 54.6864 155.961 48.5214C157.872 43.9855 158.006 42.8036 158.04 32.518V23.0309L157.168 22.1684C156.43 21.4976 155.827 21.306 153.648 21.0504C149.725 20.6351 146.238 19.7088 143.153 18.2394C141.678 17.5047 140.102 16.9298 139.7 16.9298C139.264 16.9617 137.957 17.4408 136.75 18.0478ZM141.376 24.5641C143.12 25.4266 147.78 26.7682 149.825 27.0238L151.569 27.2474L151.435 34.6262C151.301 41.5259 151.234 42.1648 150.395 44.5605C149.423 47.3715 147.948 49.895 145.936 52.2268C144.461 53.9198 140.538 56.8586 139.734 56.8586C138.828 56.8586 134.839 53.7601 133.196 51.8116C131.083 49.2881 129.105 45.2952 128.535 42.3245C128.2 40.6634 128.032 37.7886 128.032 33.5082V27.1515H128.804C130.011 27.1515 135.442 25.6821 137.42 24.8197C139.7 23.8295 139.834 23.8295 141.376 24.5641Z" fill="#35AB7B"/>
<path d="M17.8926 36.2233C16.8197 37.2455 16.5515 38.4274 17.0544 39.6412C17.6244 40.919 18.6302 41.5259 20.1725 41.5259C21.9495 41.5259 23.4247 40.1523 23.4247 38.4913C23.4247 35.872 19.8037 34.4026 17.8926 36.2233Z" fill="black"/>
<path d="M35.0584 35.8081C34.019 36.3831 33.4491 38.076 33.8514 39.3857C34.2537 40.8551 35.2596 41.5259 37.003 41.5259C38.9141 41.5259 40.1881 40.2801 40.1881 38.4274C40.1881 36.6386 38.9476 35.4567 37.0365 35.4567C36.2989 35.4567 35.3937 35.6164 35.0584 35.8081Z" fill="black"/>
<path d="M51.4874 36.3511C49.4758 38.3316 50.8839 41.5259 53.7673 41.5259C55.5108 41.5259 56.5166 40.8551 56.9189 39.3857C57.3213 38.0441 56.7178 36.3511 55.6784 35.8081C54.3373 35.1373 52.4598 35.3928 51.4874 36.3511Z" fill="black"/>
</svg>
