<svg width="158" height="152" viewBox="0 0 158 152" fill="none" xmlns="http://www.w3.org/2000/svg">
<path d="M100.083 9.29299C100.083 16.4968 99.8608 18.73 98.9705 19.4503C96.8929 21.1072 96.3735 19.4503 96.3735 10.7337C96.3735 5.25887 96.0767 2.16123 95.6315 2.16123C93.925 2.16123 90.5861 4.39441 87.6923 7.42C83.5372 11.8143 81.3113 16.1366 79.7531 23.1963C79.3079 24.9973 78.9369 25.2134 76.34 25.2134C73.5205 25.2134 73.3721 25.3574 73.3721 27.3745V29.5356H104.164H134.957V27.3745C134.957 25.3574 134.808 25.2134 131.989 25.2134C129.392 25.2134 129.021 24.9973 128.576 23.1963C127.092 16.5688 124.94 12.1025 121.378 8.21242C118.41 4.89868 113.513 1.29678 112.623 1.87308C112.252 2.0892 111.955 6.12332 111.955 10.8058C111.955 19.4503 111.436 21.1072 109.358 19.4503C108.468 18.73 108.245 16.4968 108.245 9.29299V9.72748e-05H104.164H100.083V9.29299Z" fill="#35AB7B"/>
<path d="M84.8719 36.5236C86.4301 47.1852 93.9983 54.0288 104.238 54.0288C114.254 54.0288 122.49 46.6089 123.232 36.7397L123.455 33.498L103.867 33.2819L84.3525 33.1378L84.8719 36.5236Z" fill="black"/>
<path d="M10.6739 41.1339C2.1411 45.24 -2.014 54.3889 0.953929 62.3851C1.54751 63.9699 7.18658 76.0723 13.6418 89.3273C20.0229 102.582 25.4393 113.82 25.6619 114.324C25.8103 114.757 24.9942 115.693 23.6586 116.341C21.0616 117.638 18.4647 121.312 18.4647 123.689C18.4647 124.698 20.2455 126.787 23.436 129.668C28.4815 134.135 28.7041 134.207 33.0076 132.91C34.3431 132.478 34.7883 132.982 36.2723 136.512C37.7562 140.042 38.424 140.762 41.5403 142.347C43.5437 143.284 45.1761 143.788 45.1761 143.428C45.1761 143.068 43.7663 139.97 42.0597 136.512L38.9434 130.173L40.9468 128.804C45.0277 125.923 46.1406 121.456 43.9147 116.918C42.1339 113.172 39.0176 111.587 34.1947 111.803L30.2622 112.019L21.0616 92.9291C16.0162 82.4116 11.7869 73.695 11.7869 73.4789C11.7869 73.2628 13.716 73.1187 16.0904 73.0467C20.839 73.0467 24.2522 71.6059 27.2943 68.3642L29.2234 66.3472L46.5858 102.51C56.1574 122.393 64.3192 139.538 64.6902 140.546C65.6548 142.923 64.8386 145.949 62.6868 148.038L60.9803 149.695L63.7998 150.415C66.4709 151.064 66.8419 150.992 68.1775 149.335C70.5518 146.381 70.7744 142.996 69.0679 136.656C67.7323 131.614 67.6581 130.749 68.6227 128.588C69.4389 126.643 69.6615 121.96 69.6615 107.337V88.6069H72.2584H74.8553V120.304V152H83.6107C101.196 152 119.3 146.021 133.175 135.792L135.698 133.919V111.227V88.6069H138.295H140.892V108.922V129.236L143.192 127.075C146.457 124.194 154.025 114.252 156.177 110.074C157.809 106.905 157.957 105.824 157.957 96.3149C157.957 84.6448 157.29 79.9623 154.693 74.5595C149.944 64.4021 140.447 59.1434 127.165 59.0713H121.971L115.664 72.7585L109.358 86.4457L109.135 72.3983L108.987 58.2789L104.683 58.495L100.454 58.7111L100.083 72.3263L99.7117 85.9415L93.4791 72.3983L87.1722 58.9273L80.1234 59.2154C71.0712 59.6476 65.358 61.9528 60.3867 67.0675C56.8994 70.6694 53.4121 76.9367 53.3379 79.6021C53.2637 82.4116 52.0765 79.0258 47.1052 61.9528C44.3599 52.66 41.8371 44.7358 41.5403 44.4476C41.1694 44.0874 37.0885 42.8628 32.4882 41.7102C22.1746 39.1889 15.0516 38.9727 10.6739 41.1339ZM30.188 46.3927C34.0463 47.4012 37.3111 48.2656 37.4594 48.4818C37.9046 48.914 54.8218 106.184 54.525 106.4C54.3766 106.544 49.5538 96.6751 43.6921 84.5007C28.7041 53.1642 27.8879 51.7235 24.4748 49.8505C20.9874 47.9054 17.4259 47.8334 14.087 49.5623C11.3417 51.0031 8.81894 54.8211 8.81894 57.4865C8.81894 60.44 11.0449 63.9699 13.6418 65.1225C16.8323 66.6353 18.3163 66.5633 21.21 64.8344C23.5102 63.5377 23.9554 62.6012 24.6232 58.3509C24.8458 57.1263 24.9942 57.4865 25.0683 59.2874C25.1425 62.9614 23.5102 65.8429 20.3939 67.2837C17.1291 68.7964 15.1258 68.7244 11.2675 67.0675C9.04153 66.059 7.70597 64.8344 6.66719 62.7453C3.62506 57.0543 5.18323 51.2912 10.9707 46.969C13.7902 44.9519 14.6806 44.6637 18.6873 44.6637C21.21 44.6637 26.4039 45.4562 30.188 46.3927Z" fill="black"/>
</svg>
