<svg width="684" height="385" viewBox="0 0 684 385" fill="none" xmlns="http://www.w3.org/2000/svg">
<g clip-path="url(#clip0_7_10)">
<rect width="683.87" height="384.7" fill="#E35252"/>
<g clip-path="url(#clip1_7_10)">
<path d="M220.594 75.4594C219.871 75.7055 218.92 76.0992 218.48 76.3453C217.229 77.018 198.944 89.0273 197.993 89.782C196.831 90.7172 196.249 91.5703 196.32 92.2594C196.373 92.7844 196.69 92.9813 208.615 100.052L220.858 107.32H221.95C223.165 107.32 224.944 106.795 226.142 106.057C228.696 104.515 246.171 92.9484 246.734 92.4398C248.214 91.1109 248.443 90.2086 247.509 89.5523C246.963 89.175 224.152 75.6727 223.271 75.1969C222.725 74.918 222.091 74.9672 220.594 75.4594Z" fill="#881B1B"/>
<path d="M254.168 95.0812C252.688 95.5898 253.041 95.3602 241.644 102.792C236.518 106.139 231.902 109.256 231.409 109.732C230.898 110.208 230.388 110.848 230.282 111.192C230.088 111.717 230.106 111.832 230.388 112.177C230.581 112.39 236.148 115.786 242.789 119.707L254.855 126.844H255.841C256.81 126.844 258.202 126.483 259.364 125.941C260.228 125.531 279.604 112.849 280.538 112.062C281.56 111.241 282.194 110.077 281.93 109.535C281.806 109.305 277.473 106.631 269.617 101.972L257.497 94.7859L256.44 94.7367C255.648 94.6875 255.084 94.7695 254.168 95.0812Z" fill="#881B1B"/>
<path d="M188.446 96.4922C187.865 96.6726 186.931 97.0664 186.385 97.3617C183.883 98.7726 166.515 110.273 165.528 111.176C164.454 112.16 164.084 112.866 164.295 113.522C164.383 113.752 185.028 126.155 188.411 127.992C189.415 128.55 191.07 128.402 192.85 127.615C194.294 126.975 213.495 114.506 214.675 113.44C215.855 112.39 216.278 111.422 215.873 110.815C215.802 110.716 211.099 107.878 205.444 104.515C189.943 95.3273 191.44 96.1641 190.401 96.1805C189.908 96.1805 189.027 96.3281 188.446 96.4922Z" fill="#881B1B"/>
<path d="M288.112 115.113C287.602 115.245 286.738 115.573 286.175 115.835C285.118 116.327 266.411 128.501 264.966 129.633C263.98 130.404 263.293 131.536 263.451 132.127C263.557 132.487 265.741 133.849 275.676 139.739C282.335 143.677 288.077 146.974 288.43 147.073C289.346 147.286 290.79 146.958 292.428 146.187C293.591 145.645 311.505 134.046 313.478 132.57C314.465 131.831 315.187 130.83 315.187 130.191C315.187 129.764 315.064 129.551 314.623 129.255C314.306 129.026 308.793 125.728 302.363 121.938C289.504 114.309 290.085 114.588 288.112 115.113Z" fill="#881B1B"/>
<path d="M221.439 115.999C220.893 116.163 220.1 116.475 219.678 116.705C218.673 117.213 199.35 129.862 198.68 130.437C197.976 131.027 197.165 132.241 197.165 132.701C197.165 132.914 197.394 133.226 197.747 133.488C198.046 133.718 203.612 137.032 210.095 140.871L221.897 147.844H222.866C224.169 147.844 225.984 147.22 227.516 146.269C229.383 145.12 246.47 133.915 247.263 133.341C248.32 132.553 248.989 131.552 248.919 130.83L248.866 130.223L236.711 123.005L224.557 115.802L223.5 115.737C222.795 115.704 222.108 115.786 221.439 115.999Z" fill="#881B1B"/>
<path d="M155.171 117.902C154.501 118.116 153.515 118.575 152.969 118.903C151.066 120.068 133.663 131.503 132.905 132.061C131.919 132.816 131.249 133.882 131.32 134.571C131.373 135.096 131.813 135.375 142.822 141.888C156.791 150.173 155.84 149.648 156.844 149.648C157.936 149.648 159.68 149.14 160.878 148.451C162.604 147.483 181.03 135.359 181.717 134.752C182.457 134.095 183.073 133.111 183.073 132.619C183.073 132.455 182.897 132.159 182.686 131.979C182.333 131.684 159.539 118.132 158.606 117.656C158.007 117.377 156.457 117.476 155.171 117.902Z" fill="#881B1B"/>
<path d="M318.252 134.768C317.865 134.965 312.404 138.558 306.133 142.725C293.925 150.879 293.855 150.928 292.745 153.094L292.199 154.16L292.146 164.759C292.111 171.6 292.164 175.521 292.287 175.8C292.551 176.473 293.221 176.67 294.154 176.358C295.123 176.046 317.213 161.363 318.463 160.214C319.432 159.328 319.961 158.524 320.595 156.949C321 155.965 321 155.948 321 145.777V135.588L320.595 135.03C320.084 134.325 319.291 134.227 318.252 134.768Z" fill="#881B1B"/>
<path d="M255.489 136.277C254.767 136.523 253.534 137.098 252.759 137.573C250.257 139.099 233.752 149.96 232.924 150.616C231.92 151.404 231.233 152.536 231.392 153.127C231.497 153.471 233.77 154.882 243.705 160.772C250.416 164.726 256.123 168.023 256.388 168.089C257.127 168.253 259.224 167.777 260.457 167.17C262.06 166.366 280.961 153.963 281.947 153.061C283.198 151.912 283.462 150.977 282.74 150.354C282.511 150.173 276.997 146.859 270.462 143.004C256.951 135.014 257.973 135.473 255.489 136.277Z" fill="#881B1B"/>
<path d="M188.375 137.77C187.847 137.902 186.984 138.23 186.438 138.492C184.993 139.214 166.039 151.666 165.141 152.487C163.89 153.619 163.503 154.718 164.19 155.259C164.489 155.522 187.477 169.139 188.199 169.5C188.833 169.828 190.507 169.713 191.775 169.27C193.272 168.745 193.237 168.762 204.123 161.641C213.618 155.44 215.327 154.177 215.573 153.11C215.626 152.848 215.608 152.487 215.503 152.306C215.327 151.995 191.81 137.984 190.947 137.688C190.295 137.459 189.538 137.475 188.375 137.77Z" fill="#881B1B"/>
<path d="M126.986 141.265C126.722 141.544 126.705 142.462 126.74 152.536L126.793 163.512L127.286 164.447C128.29 166.334 128.818 166.727 140.656 174.127C146.786 177.966 152.053 181.214 152.335 181.362C153.321 181.821 154.061 181.87 154.589 181.477L155.065 181.116L155.03 170.107L154.977 159.082L154.449 158.114C153.462 156.293 152.669 155.719 140.762 148.287C134.596 144.431 129.329 141.199 129.083 141.117C128.325 140.855 127.321 140.92 126.986 141.265Z" fill="#881B1B"/>
<path d="M285.224 156.506C284.149 156.982 263.187 171.009 262.306 171.846C261.373 172.732 260.192 174.799 259.787 176.309C259.576 177.113 259.523 178.819 259.523 186.563C259.523 195.307 259.558 195.865 259.858 196.521C260.051 196.898 260.351 197.276 260.545 197.374C261.108 197.653 262.024 197.588 262.694 197.21C264.79 196.013 284.766 182.527 285.47 181.821C285.963 181.345 286.615 180.394 287.02 179.606C288.201 177.309 288.253 176.702 288.201 166.678C288.148 158.984 288.112 157.868 287.866 157.343C287.32 156.244 286.439 155.965 285.224 156.506Z" fill="#881B1B"/>
<path d="M221.263 157.753C220.611 157.966 219.783 158.311 219.413 158.524C218.092 159.263 199.402 171.567 198.663 172.174C197.676 172.962 197.042 174.127 197.306 174.668C197.43 174.914 201.71 177.539 209.619 182.231C220.893 188.909 221.809 189.417 222.654 189.483C223.835 189.581 225.596 189.073 227.041 188.252C229.507 186.841 246.999 175.259 247.827 174.504C248.337 174.028 248.831 173.405 248.954 173.044C249.148 172.486 249.13 172.371 248.848 172.027C248.654 171.813 243.088 168.434 236.447 164.496L224.381 157.359H223.412C222.848 157.359 221.95 157.523 221.263 157.753Z" fill="#881B1B"/>
<path d="M160.191 161.527C159.522 162.199 159.451 163.463 159.504 173.208L159.557 182.379L160.015 183.544C160.579 184.971 161.583 186.398 162.534 187.153C163.82 188.138 184.535 201.049 185.398 201.394C186.402 201.788 186.984 201.656 187.547 200.951C187.917 200.491 187.917 200.344 187.97 190.697C188.005 184.216 187.953 180.623 187.829 180.066C187.53 178.737 186.561 177.03 185.522 176.03C184.835 175.373 181.505 173.191 173.79 168.368C167.854 164.66 162.763 161.527 162.481 161.379C161.671 161.002 160.667 161.051 160.191 161.527Z" fill="#881B1B"/>
<path d="M318.094 167.236C317.318 167.646 295.511 182.215 294.965 182.691C294.137 183.413 293.274 184.791 292.692 186.316L292.199 187.629L292.146 196.784C292.111 203.297 292.146 206.217 292.305 206.873C292.64 208.366 293.696 209.072 294.806 208.53C295.951 207.956 317.512 193.453 318.217 192.78C319.274 191.747 320.031 190.287 320.577 188.285C321 186.694 321 186.612 321 178.13C321 170.025 320.982 169.533 320.648 168.696C320.454 168.204 320.137 167.63 319.925 167.416C319.485 167.006 318.692 166.924 318.094 167.236Z" fill="#881B1B"/>
<path d="M127.127 172.699L126.705 173.109L126.74 183.888L126.793 194.684L127.356 195.75C128.466 197.834 128.713 198.014 140.673 205.479C146.804 209.302 152.053 212.566 152.37 212.714C153.268 213.141 154.255 213.059 154.695 212.55C155.065 212.123 155.065 211.992 155.065 201.64C155.065 190.057 155.1 190.484 153.902 188.745C153.585 188.269 152.986 187.596 152.599 187.235C151.859 186.579 130.703 173.257 129.4 172.634C128.396 172.174 127.673 172.191 127.127 172.699Z" fill="#881B1B"/>
<path d="M241.186 186.005C234.65 190.385 229.084 194.175 228.82 194.421C228.15 194.995 227.516 196.16 227.058 197.686C226.706 198.9 226.688 199.343 226.618 208.055C226.565 217.636 226.636 218.784 227.322 219.834C227.64 220.31 227.763 220.376 228.238 220.327C228.608 220.277 232.396 217.833 240.587 212.337C247.087 207.973 252.583 204.248 252.812 204.052C253.428 203.543 254.327 201.623 254.696 200.016C254.996 198.752 255.031 197.768 255.031 189.598C255.031 181.395 254.996 180.492 254.714 179.623C254.379 178.605 253.904 178.031 253.393 178.031C253.217 178.031 247.721 181.624 241.186 186.005Z" fill="#881B1B"/>
<path d="M193.149 180.328C192.233 180.689 192.215 180.804 192.268 191.96L192.321 202.263L193.061 203.641C193.554 204.56 194.1 205.298 194.734 205.873C195.756 206.791 216.789 220.031 218.092 220.556C219.043 220.95 219.766 220.819 220.312 220.146C220.682 219.687 220.682 219.539 220.734 210.253C220.77 204.593 220.717 200.36 220.611 199.655C220.4 198.244 219.519 196.488 218.48 195.373C217.969 194.831 214.463 192.551 206.801 187.76C200.776 183.987 195.492 180.738 195.069 180.541C194.241 180.131 193.801 180.098 193.149 180.328Z" fill="#881B1B"/>
<path d="M274.144 195.848C267.696 200.13 262.201 203.838 261.936 204.084C261.32 204.626 260.386 206.43 259.946 207.891C259.664 208.842 259.629 209.876 259.558 217.964C259.505 227.463 259.558 228.234 260.298 229.252C260.633 229.711 260.791 229.793 261.39 229.793C262.024 229.793 263.081 229.12 273.827 221.951C280.291 217.636 285.787 213.863 286.034 213.584C286.633 212.829 287.285 211.451 287.743 209.925C288.13 208.662 288.13 208.399 288.148 199.605C288.148 191.452 288.112 190.5 287.831 189.647C287.514 188.663 286.879 188.039 286.228 188.039C285.999 188.039 280.873 191.353 274.144 195.848Z" fill="#881B1B"/>
<path d="M160.473 191.993C160.314 192.075 159.997 192.469 159.768 192.846L159.381 193.535V202.887C159.381 210.187 159.434 212.435 159.627 213.141C159.98 214.535 161.142 216.635 161.97 217.423C162.851 218.276 184.43 231.811 185.275 232.057C185.944 232.237 186.649 231.975 187.16 231.352C187.776 230.58 187.847 229.087 187.776 220.08C187.724 212.435 187.671 211.303 187.406 210.45C186.984 209.137 186.068 207.464 185.293 206.627C184.87 206.168 180.906 203.592 173.772 199.146C167.801 195.405 162.657 192.239 162.34 192.075C161.706 191.78 160.949 191.747 160.473 191.993Z" fill="#881B1B"/>
<path d="M317.477 197.686C316.297 198.244 295.211 212.386 294.472 213.108C293.556 213.994 292.446 215.93 291.988 217.406C291.706 218.391 291.671 219.244 291.671 227.742C291.671 236.88 291.671 237.028 292.041 237.766C292.552 238.8 293.327 239.062 294.436 238.603C294.859 238.439 299.95 235.141 305.763 231.286C317.283 223.624 318.146 222.968 319.168 220.95C320.295 218.702 320.295 218.801 320.295 208.481C320.295 199.441 320.278 199.113 319.943 198.457C319.397 197.407 318.569 197.161 317.477 197.686Z" fill="#881B1B"/>
<path d="M126.916 202.92C126.793 202.969 126.546 203.28 126.352 203.641C126.018 204.248 126 204.642 126 214.158V224.051L126.493 225.298C127.075 226.709 127.744 227.693 128.854 228.661C129.717 229.448 150.855 242.705 151.965 243.18C153.392 243.788 154.29 243.443 154.554 242.18C154.748 241.179 154.748 223.345 154.537 222.016C154.308 220.507 153.444 218.998 152.176 217.816C151.436 217.144 147.737 214.748 140.268 210.089C134.314 206.381 129.188 203.215 128.871 203.067C128.325 202.821 127.392 202.739 126.916 202.92Z" fill="#881B1B"/>
<path d="M252.16 211.09C251.156 211.5 230.247 225.626 229.348 226.512C228.873 226.955 228.186 227.808 227.816 228.398C226.547 230.4 226.565 230.105 226.618 241.392C226.671 251.072 226.688 251.515 227.005 251.843C227.446 252.302 228.644 252.302 229.595 251.843C229.982 251.663 235.038 248.332 240.816 244.46C248.056 239.604 251.649 237.094 252.354 236.405C253.622 235.158 254.714 233.173 254.961 231.68C255.066 231.023 255.119 226.971 255.084 221.229C255.031 211.992 255.031 211.845 254.661 211.385C254.362 211.024 254.133 210.926 253.516 210.893C253.093 210.86 252.477 210.959 252.16 211.09Z" fill="#881B1B"/>
<path d="M192.497 211.566C192.251 211.894 192.233 213.239 192.268 222.837L192.321 233.73L192.85 234.715C193.836 236.552 194.77 237.209 206.484 244.542C212.543 248.316 217.81 251.548 218.198 251.712C219.131 252.105 219.748 252.105 220.259 251.712L220.682 251.4V240.506V229.629L220.083 228.48C219.043 226.512 218.268 225.954 206.695 218.719C200.847 215.06 195.668 211.877 195.175 211.615C194.012 211.024 192.885 211.008 192.497 211.566Z" fill="#881B1B"/>
<path d="M283.938 221.114C282.528 221.836 262.852 235.092 262.024 235.88C261.425 236.47 260.844 237.291 260.333 238.291C258.871 241.097 258.907 240.785 258.907 250.793C258.907 259.652 258.907 259.652 259.294 260.341C259.523 260.719 259.875 261.145 260.087 261.277C260.668 261.654 261.795 261.605 262.535 261.162C262.888 260.965 267.855 257.684 273.562 253.861C284.625 246.478 284.713 246.413 285.875 244.28C287.355 241.556 287.584 239.637 287.496 230.449C287.425 224.363 287.373 223.28 287.126 222.541C286.598 221.048 285.276 220.458 283.938 221.114Z" fill="#881B1B"/>
<path d="M160.596 223.706C160.262 223.837 159.927 224.182 159.715 224.559C159.398 225.166 159.381 225.708 159.328 234.321C159.275 244.509 159.31 244.854 160.42 247.052C160.755 247.709 161.407 248.627 161.882 249.087C162.833 250.022 184.095 263.426 185.222 263.787C186.156 264.082 186.86 263.82 187.354 262.95C187.741 262.277 187.741 262.277 187.741 252.68C187.741 243.82 187.724 243 187.424 242.098C186.931 240.605 185.98 239.046 185.046 238.209C184.359 237.586 163.52 224.395 162.375 223.854C161.724 223.542 161.142 223.493 160.596 223.706Z" fill="#881B1B"/>
<path d="M252.089 243.066C251.35 243.312 252.072 242.836 239.178 251.498C228.573 258.602 227.587 259.373 226.565 261.309L225.966 262.441L225.913 273.319L225.878 284.196L226.336 284.59C226.953 285.115 227.164 285.098 228.432 284.459C229.93 283.704 250.434 269.906 251.579 268.873C252.6 267.97 253.481 266.789 253.939 265.673C254.203 265.05 254.238 263.885 254.238 254.238C254.238 243.705 254.238 243.492 253.886 243.164C253.481 242.787 253.005 242.754 252.089 243.066Z" fill="#881B1B"/>
<path d="M192.726 244.427C191.81 245.362 191.793 245.494 191.793 255.223C191.793 264.164 191.793 264.263 192.198 265.559C192.726 267.232 193.519 268.61 194.523 269.595C195.527 270.579 216.701 283.835 217.652 284.081C218.568 284.311 219.149 283.999 219.713 282.949L220.153 282.129V273.023C220.153 264.853 220.118 263.803 219.836 262.852C219.378 261.26 218.251 259.259 217.388 258.455C216.718 257.848 196.126 244.838 194.875 244.23C194.065 243.837 193.255 243.919 192.726 244.427Z" fill="#881B1B"/>
</g>
<g clip-path="url(#clip2_7_10)">
<path d="M641.941 -116.578C634.311 -115.16 627.208 -110.939 620.509 -103.822C611.452 -94.232 602.334 -75.2336 595.727 -52.3148C594.921 -49.5103 594.208 -47.128 594.146 -47.0375C594.084 -46.9772 593.587 -47.1581 593.06 -47.4597C574.575 -57.954 557.361 -64.9503 542.443 -68.0262C537.852 -68.9912 529.943 -69.3229 525.384 -68.7802C516.203 -67.6342 508.387 -63.744 504.076 -58.135C500.602 -53.5814 498.431 -48.0628 497.594 -41.73C497.036 -37.3272 497.377 -29.6675 498.369 -25.144C501.285 -11.634 507.767 3.80597 517.351 20.3014C518.778 22.7441 519.956 24.8249 519.956 24.9756C519.956 25.0963 517.475 25.8502 514.435 26.6644C500.789 30.3736 489.871 34.3542 479.636 39.3602C468.16 44.9994 461.957 49.4324 456.405 55.9763C452.528 60.5299 449.985 65.2342 448.713 70.1497C448 72.9844 448 79.0156 448.713 81.8503C450.419 88.5149 454.792 95.2397 461.213 100.969C471.169 109.956 490.833 118.943 514.435 125.336C517.475 126.15 519.956 126.934 519.956 127.055C519.956 127.205 519.212 128.562 518.281 130.07C508.791 145.751 501.378 163.272 498.369 177.144C497.377 181.637 497.036 189.327 497.594 193.76C498.773 202.686 502.774 210.286 508.542 214.478C514.746 218.971 522.034 221.052 531.556 221.052C536.736 221.052 540.892 220.479 547.219 218.91C559.935 215.774 573.675 210.075 589.214 201.54C591.726 200.183 593.866 199.038 594.022 199.038C594.146 199.038 594.797 200.968 595.448 203.35C600.907 222.71 608.289 239.477 616.446 250.997C619.889 255.852 626.247 261.672 631.209 264.537C636.513 267.613 640.855 268.819 646.5 268.819C653.913 268.819 660.209 266.376 667.094 260.828C674.011 255.279 678.508 249.248 684.618 237.336C689.643 227.565 693.861 216.408 697.552 203.35C698.203 200.968 698.854 199.038 698.978 199.038C699.133 199.038 701.274 200.183 703.786 201.54C722.178 211.643 739.051 218.126 752.977 220.448C759.583 221.534 767.957 221.172 773.974 219.544C777.324 218.639 781.48 216.619 784.457 214.478C790.226 210.286 794.227 202.686 795.406 193.76C795.964 189.327 795.623 181.637 794.631 177.144C791.684 163.574 785.233 148.164 775.649 131.699C774.222 129.256 773.044 127.175 773.044 127.024C773.044 126.904 775.525 126.15 778.564 125.336C792.211 121.626 803.129 117.646 813.364 112.64C824.84 107.001 831.043 102.568 836.595 96.0238C840.472 91.4702 843.015 86.7658 844.287 81.8503C845 79.0156 845 72.9844 844.287 70.1497C842.581 63.4852 838.208 56.7603 831.787 51.0306C821.831 42.0441 802.167 33.0575 778.564 26.6644C775.525 25.8502 773.044 25.0963 773.044 24.9756C773.044 24.8249 774.222 22.7441 775.649 20.3014C785.233 3.83612 791.684 -11.5737 794.631 -25.144C795.623 -29.6373 795.964 -37.3272 795.406 -41.7601C794.227 -50.6864 790.226 -58.2858 784.457 -62.4775C778.192 -67.0009 770.966 -69.0515 761.196 -69.0515C756.016 -69.0515 751.705 -68.4484 745.13 -66.7597C732.785 -63.6234 718.363 -57.6223 703.817 -49.5706C701.305 -48.1834 699.133 -47.0375 698.978 -47.0375C698.854 -47.0375 698.203 -48.9675 697.552 -51.3498C692.093 -70.7101 684.711 -87.477 676.554 -98.9967C671.933 -105.51 663.962 -112.054 657.386 -114.738C652.61 -116.668 646.438 -117.422 641.941 -116.578ZM650.532 -103.43C664.861 -100.112 678.663 -83.9186 689.271 -58.0143C690.945 -53.883 694.264 -44.8361 694.264 -44.3837C694.264 -44.2631 693.613 -43.7806 692.775 -43.2981C680.555 -35.9098 662.752 -23.6362 650.935 -14.3783C648.671 -12.599 646.686 -11.1516 646.5 -11.1516C646.314 -11.1516 644.329 -12.599 642.065 -14.3783C630.248 -23.6362 612.445 -35.9098 600.225 -43.2981C599.387 -43.7806 598.736 -44.2631 598.736 -44.3837C598.736 -44.4742 599.449 -46.5851 600.318 -49.058C608.63 -72.4592 619.33 -89.588 630.992 -97.9714C635.738 -101.409 642.251 -103.942 646.345 -104.003C647.213 -104.033 649.074 -103.761 650.532 -103.43ZM545.296 -57.743C558.509 -56.1447 573.365 -51.4101 589.152 -43.7203C592.533 -42.0617 592.874 -41.8205 592.719 -41.1872C589.679 -29.3659 585.926 -8.10577 584.159 7.24377C583.786 10.4705 583.414 13.4258 583.352 13.7877C583.197 14.6019 583.414 14.5717 575.784 15.386C559.997 17.1049 538.131 20.7538 525.973 23.7091C525.322 23.8599 525.074 23.5282 523.368 20.2411C513.319 0.730011 507.984 -17.9066 508.574 -31.4769C508.915 -39.1365 510.652 -44.7155 514.218 -49.6008C517.258 -53.7925 524.298 -56.9589 532.828 -57.9842C535.216 -58.2858 541.884 -58.1651 545.296 -57.743ZM764.204 -57.3208C773.044 -55.4209 777.82 -52.2244 780.953 -46.1328C786.939 -34.5528 785.233 -16.0067 776.145 6.03751C773.85 11.5863 771.989 15.6272 769.632 20.2411C767.926 23.5282 767.678 23.8599 767.027 23.7091C754.869 20.7538 733.003 17.1049 717.216 15.386C709.586 14.5717 709.803 14.6019 709.648 13.7877C709.586 13.4258 709.214 10.4705 708.841 7.24377C707.074 -8.10577 703.321 -29.3659 700.281 -41.1872C700.126 -41.8205 700.467 -42.0617 703.848 -43.7203C719.449 -51.2895 733.964 -55.9939 747.425 -57.743C751.891 -58.3461 760.544 -58.135 764.204 -57.3208ZM599.946 -38.2318C607.11 -34.402 616.663 -28.6422 624.789 -23.2442C632.915 -17.8764 644.174 -9.79453 644.174 -9.34216C644.174 -9.22156 641.817 -7.14075 638.901 -4.75842C636.017 -2.40622 631.085 1.78549 627.953 4.52969C624.789 7.27393 621.563 10.0785 620.726 10.8022L619.237 12.0989L613.096 12.3703C606.056 12.7322 595.696 13.4258 590.114 13.9385C588.036 14.1194 586.237 14.1797 586.113 14.0591C585.709 13.6671 588.501 -3.79343 590.548 -13.5641C592.161 -21.3142 595.882 -35.9098 597.03 -39.1365C597.216 -39.6492 597.34 -39.619 599.946 -38.2318ZM696.621 -36.905C697.893 -32.7133 701.336 -19.0223 702.452 -13.5641C704.53 -3.67279 707.291 13.6671 706.887 14.0591C706.763 14.1797 704.964 14.1194 702.886 13.9385C697.304 13.4258 686.944 12.7322 679.904 12.3703L673.763 12.0989L672.274 10.8022C671.437 10.0785 668.211 7.27393 665.047 4.52969C661.915 1.78549 656.983 -2.40622 654.099 -4.75842C651.183 -7.14075 648.826 -9.22156 648.826 -9.34216C648.826 -9.49295 650.315 -10.6992 652.114 -12.0261C666.629 -22.6411 679.346 -30.7531 693.644 -38.5636C694.574 -39.0762 695.474 -39.4381 695.629 -39.408C695.784 -39.3476 696.249 -38.2318 696.621 -36.905ZM651.4 -4.00452C657.697 0.941101 666.474 8.17862 670.289 11.5863C670.568 11.8275 664.241 11.918 646.5 11.918C628.325 11.918 622.432 11.8275 622.711 11.5863C624.231 10.1689 632.419 3.32346 636.482 0.0967407C643.15 -5.27109 646.314 -7.8042 646.438 -7.8042C646.5 -7.83435 648.733 -6.11545 651.4 -4.00452ZM670.599 13.848L673.142 14.0289L678.818 19.1856C686.417 26.1216 696.497 35.8922 704.096 43.7328L710.33 50.1863L710.578 54.8605C710.919 60.9521 710.919 91.048 710.578 97.1094L710.33 101.814L704.375 107.966C696.776 115.836 687.813 124.552 679.563 132.121L673.049 138.062L668.242 138.303C661.977 138.635 631.023 138.635 624.789 138.303L619.951 138.062L613.561 132.211C605.714 125.034 595.169 114.811 588.067 107.423L582.763 101.904L582.577 99.2807C582.112 93.1589 581.925 69.7878 582.267 60.1982L582.639 50.2767L585.616 47.1103C594.673 37.6111 607.017 25.6089 616.818 16.8033L620.075 13.848L627.456 13.5766C634.993 13.3052 665.978 13.4861 670.599 13.848ZM611.514 19.2761C606.211 24.2217 591.23 38.8174 585.585 44.5772L582.825 47.3516L583.042 43.6725C583.29 38.9078 584.345 27.0866 585.027 21.2664L585.554 16.743L590.207 16.2303C597.805 15.4161 610.956 14.3305 614.926 14.24L617.004 14.1797L611.514 19.2761ZM690.852 15.1145C694.853 15.4463 700.25 15.9589 702.793 16.2303L707.446 16.743L707.973 21.2664C708.655 27.0866 709.71 38.9078 709.958 43.6725L710.175 47.4119L704.871 42.0139C699.785 36.8271 684.773 22.2917 678.818 16.7731L675.965 14.0892L679.749 14.3003C681.858 14.421 686.851 14.7828 690.852 15.1145ZM582.918 18.1603C582.918 18.7031 582.794 20.3014 582.639 21.7188C582.236 25.1566 581.429 36.4953 581.057 43.6725L580.778 49.4927L579.444 50.9402C578.7 51.7242 575.815 54.8906 572.993 57.9364C570.171 61.0124 565.859 65.8072 563.44 68.6419C560.99 71.4464 558.85 73.7383 558.695 73.7383C558.385 73.7383 551.22 64.42 546.444 57.7555C538.286 46.3866 527.214 28.6849 527.896 28.0817C528.61 27.4183 545.234 23.4075 555.159 21.4474C563.347 19.8491 579.382 17.316 581.77 17.2255C582.856 17.1953 582.918 17.2255 582.918 18.1603ZM716.781 17.9492C733.313 20.3316 745.781 22.8044 759.552 26.4231C762.467 27.2072 764.949 27.931 765.104 28.0516C765.724 28.6246 756.326 43.8233 748.572 54.8906C743.052 62.7916 734.739 73.7383 734.274 73.7383C734.15 73.7383 732.01 71.4464 729.56 68.6117C727.141 65.8072 722.829 61.0124 720.007 57.9666C717.185 54.8906 714.3 51.7544 713.556 50.9402L712.222 49.4927L711.943 43.6725C711.571 36.4953 710.764 25.1566 710.361 21.7188C709.927 17.6175 709.958 17.1953 710.795 17.1953C711.199 17.1953 713.897 17.5271 716.781 17.9492ZM524.298 31.7307C531.091 42.4964 544.117 60.2886 553.639 71.7782C555.407 73.9192 556.865 75.8191 556.865 76C556.865 76.181 555.376 78.111 553.546 80.3124C543.962 91.8924 531.587 108.81 523.802 120.993C523.306 121.807 522.81 122.441 522.717 122.441C522.22 122.441 513.009 119.244 508.822 117.646C489.313 110.077 475.046 100.879 467.571 91.0782C464.066 86.4944 461.337 79.9203 461.337 76C461.337 72.0797 464.066 65.5056 467.571 60.9219C476.1 49.7038 493.252 39.4808 517.165 31.3386C519.987 30.3736 522.437 29.5896 522.593 29.5896C522.779 29.5594 523.523 30.5546 524.298 31.7307ZM774.936 31.037C798.663 38.8777 816.807 49.6133 825.429 60.9219C828.934 65.5056 831.663 72.0797 831.663 76C831.663 79.9203 828.934 86.4944 825.429 91.0782C817.954 100.879 803.687 110.077 784.178 117.646C779.991 119.244 770.78 122.441 770.283 122.441C770.19 122.441 769.694 121.807 769.198 120.993C761.413 108.81 749.038 91.8924 739.454 80.3124C737.624 78.111 736.135 76.181 736.135 76C736.135 75.8191 737.624 73.8891 739.454 71.6877C749.1 60.0172 760.948 43.7932 769.167 31.0069C769.694 30.1927 770.19 29.5594 770.283 29.5594C770.376 29.5594 772.485 30.2228 774.936 31.037ZM580.592 76C580.592 93.2494 580.499 99.4013 580.251 99.1299C576.746 95.4207 569.302 86.8864 564.185 80.7346L560.246 76L564.185 71.2353C568.806 65.6866 580.375 52.4781 580.592 52.4781C580.592 52.4781 580.592 63.063 580.592 76ZM715.572 55.9461C719.449 60.2283 724.504 66.0786 728.815 71.2353L732.754 76L728.815 80.7346C723.977 86.5547 716.099 95.5714 712.749 99.1299C712.501 99.4013 712.408 93.2494 712.408 76C712.408 58.7506 712.501 52.5988 712.749 52.8702C712.935 53.0813 714.207 54.4383 715.572 55.9461ZM564.402 84.4438C568.992 89.7211 576.746 98.2553 579.878 101.512L580.778 102.417L581.057 108.448C581.429 115.324 582.143 125.396 582.67 130.824C582.856 132.845 582.918 134.594 582.794 134.714C582.391 135.106 564.402 132.392 554.384 130.402C544.862 128.502 528.579 124.521 527.896 123.948C527.276 123.406 536.643 108.207 544.397 97.1094C549.824 89.3894 558.416 78.0506 558.788 78.1713C558.881 78.2316 561.424 81.0361 564.402 84.4438ZM736.6 80.8853C746.277 93.4303 753.876 104.377 760.234 114.902C764.142 121.355 765.383 123.677 765.104 123.948C764.421 124.521 748.138 128.502 738.616 130.402C728.598 132.392 710.609 135.106 710.206 134.714C710.082 134.594 710.144 132.845 710.33 130.824C710.857 125.396 711.571 115.324 711.943 108.478L712.222 102.507L713.556 101.06C714.3 100.246 717.185 97.1094 720.007 94.0335C722.829 90.9877 727.141 86.1627 729.622 83.2978C732.103 80.4632 734.181 78.111 734.274 78.111C734.367 78.111 735.422 79.3775 736.6 80.8853ZM597.185 118.912C602.055 123.707 608.506 129.919 611.545 132.754L617.097 137.911L613.251 137.7C608.351 137.458 596.193 136.433 590.207 135.77L585.554 135.257L585.027 130.734C584.345 124.913 583.29 113.092 583.042 108.328L582.825 104.648L585.585 107.423C587.074 108.961 592.316 114.148 597.185 118.912ZM709.958 108.328C709.71 113.092 708.655 124.913 707.973 130.734L707.446 135.257L702.793 135.77C696.807 136.433 684.649 137.458 679.749 137.7L675.903 137.911L681.331 132.905C687.844 126.874 709.772 105.282 709.772 104.92C709.772 104.769 709.865 104.648 709.958 104.648C710.082 104.648 710.082 106.307 709.958 108.328ZM533.014 129.799C545.916 132.573 561.92 135.106 575.784 136.614C583.414 137.428 583.197 137.398 583.352 138.212C583.414 138.574 583.786 141.53 584.159 144.756C585.926 160.106 589.679 181.366 592.719 193.187C592.874 193.82 592.533 194.062 589.152 195.72C560.401 209.713 535.309 213.784 520.887 206.727C516.638 204.647 514.187 202.294 512.047 198.133C506.061 186.583 507.767 168.007 516.855 145.963C519.15 140.414 521.011 136.373 523.368 131.759C525.074 128.472 525.322 128.14 525.973 128.291C526.345 128.381 529.509 129.075 533.014 129.799ZM769.632 131.789C784.054 159.744 788.21 184.14 780.953 198.133C778.813 202.294 776.362 204.647 772.113 206.727C760.203 212.548 741.129 210.889 718.456 202.053C712.749 199.822 708.593 198.012 703.848 195.72C700.467 194.062 700.126 193.82 700.281 193.187C703.321 181.366 707.074 160.106 708.841 144.756C709.214 141.53 709.586 138.574 709.648 138.212C709.803 137.398 709.586 137.428 717.216 136.614C731.638 135.046 747.611 132.483 760.327 129.708C763.987 128.894 767.182 128.231 767.368 128.201C767.585 128.201 768.608 129.799 769.632 131.789ZM590.672 138.092C594.208 138.484 605.87 139.268 613.251 139.63L619.237 139.901L620.726 141.198C621.563 141.922 624.789 144.726 627.953 147.47C631.085 150.215 636.017 154.406 638.901 156.758C641.817 159.141 644.174 161.222 644.174 161.372C644.174 161.674 634.59 168.64 627.736 173.284C616.043 181.215 597.836 191.981 597.216 191.318C596.534 190.594 592.378 174.43 590.393 164.81C588.718 156.578 586.02 140.474 586.02 138.514C586.02 137.7 586.454 137.67 590.672 138.092ZM706.98 138.514C706.98 140.474 704.282 156.578 702.607 164.81C700.622 174.4 696.466 190.594 695.815 191.318C695.226 191.921 679.594 182.783 668.211 175.244C660.116 169.876 648.826 161.795 648.826 161.342C648.826 161.222 651.68 158.719 655.184 155.854C660.612 151.36 669.421 143.821 672.739 140.776L673.67 139.931L679.718 139.63C686.789 139.298 698.761 138.484 701.863 138.152C703.072 138.001 704.685 137.881 705.523 137.85C706.856 137.82 706.98 137.881 706.98 138.514ZM670.289 140.414C666.474 143.821 657.697 151.059 651.4 156.035L646.5 159.865L641.631 156.035C635.645 151.33 626.371 143.671 622.711 140.414C622.432 140.173 628.759 140.082 646.5 140.082C664.241 140.082 670.568 140.173 670.289 140.414ZM650.935 166.378C662.752 175.636 680.555 187.91 692.775 195.298C693.613 195.781 694.264 196.263 694.264 196.384C694.264 196.474 693.551 198.585 692.682 201.058C684.37 224.459 673.67 241.588 662.008 249.971C657.293 253.379 650.532 256.033 646.5 256.033C642.468 256.033 635.707 253.379 630.992 249.971C619.33 241.588 608.63 224.459 600.318 201.058C599.449 198.585 598.736 196.474 598.736 196.354C598.736 196.263 599.759 195.57 601 194.816C604.815 192.524 616.973 184.623 621.532 181.456C627.549 177.265 638.529 169.183 642.623 165.896C644.515 164.418 646.221 163.182 646.438 163.182C646.655 163.152 648.671 164.599 650.935 166.378Z" fill="#A33F3F"/>
<path d="M640.762 37.8222C631.55 39.33 624.262 43.0091 618.028 49.2816C613.81 53.5336 610.894 58.1174 609.033 63.4852C607.42 68.1292 606.955 70.8131 606.955 76C606.955 79.3474 607.11 81.398 607.513 83.2375C609.281 91.3797 613.065 98.1046 619.02 103.683C624.665 108.961 631.116 112.278 639.056 113.906C642.685 114.66 650.315 114.66 653.944 113.906C661.884 112.278 668.335 108.961 673.98 103.683C679.935 98.1046 683.719 91.3797 685.487 83.2375C686.262 79.7092 686.262 72.2908 685.487 68.7625C683.719 60.6203 679.935 53.8955 673.98 48.3166C668.366 43.0694 661.822 39.722 654.099 38.1539C650.78 37.4603 643.926 37.3095 640.762 37.8222Z" fill="#A33F3F"/>
</g>
<path d="M119.912 141.32H162.024V154.76H135.272V177.928H158.44V191.368H135.272V215.56H162.024V229H119.912V141.32ZM204.278 141.32H220.918L201.974 185.352L220.918 229H204.278L194.038 201.608L183.542 229H166.774L185.59 185.352L166.774 141.32H183.414L194.038 168.968L204.278 141.32ZM261.168 162.44C261.168 157.32 258.48 154.76 253.104 154.76H244.4V188.552H253.104C258.48 188.552 261.168 185.949 261.168 180.744V162.44ZM228.912 141.32H254.768C261.68 141.32 267.013 143.027 270.768 146.44C274.608 149.853 276.528 154.675 276.528 160.904V182.28C276.528 188.509 274.608 193.331 270.768 196.744C267.013 200.157 261.68 201.864 254.768 201.864H244.4V229H228.912V141.32ZM320.689 162.696C320.689 156.893 317.489 153.992 311.089 153.992C304.774 153.992 301.617 156.893 301.617 162.696V207.624C301.617 213.427 304.774 216.328 311.089 216.328C317.489 216.328 320.689 213.427 320.689 207.624V162.696ZM286.257 161.928C286.257 155.272 288.348 149.981 292.529 146.056C296.71 142.045 302.897 140.04 311.089 140.04C319.281 140.04 325.468 142.045 329.649 146.056C333.916 149.981 336.049 155.272 336.049 161.928V208.392C336.049 215.048 333.916 220.381 329.649 224.392C325.468 228.317 319.281 230.28 311.089 230.28C302.897 230.28 296.71 228.317 292.529 224.392C288.348 220.381 286.257 215.048 286.257 208.392V161.928Z" fill="white"/>
<path d="M390.521 141.32V154.76H374.265V229H358.777V154.76H342.521V141.32H390.521ZM398.287 141.32H440.399V154.76H413.647V177.928H436.815V191.368H413.647V215.56H440.399V229H398.287V141.32ZM449.757 161.032C449.757 154.632 451.933 149.64 456.285 146.056C460.722 142.472 467.378 140.68 476.253 140.68C482.056 140.68 487.261 141.32 491.869 142.6V156.68C486.749 155.229 481.842 154.504 477.149 154.504C472.541 154.504 469.384 155.187 467.677 156.552C466.056 157.832 465.245 159.752 465.245 162.312V208.008C465.245 213.213 468.957 215.816 476.381 215.816C482.61 215.816 487.901 215.133 492.253 213.768V227.72C487.645 229 482.226 229.64 475.997 229.64C458.504 229.64 449.757 222.899 449.757 209.416V161.032ZM502.912 141.32H545.024V154.76H518.272V177.928H541.44V191.368H518.272V215.56H545.024V229H502.912V141.32Z" fill="black"/>
<path d="M121.188 126.168C120.932 126.488 120.591 126.733 120.164 126.904C119.738 127.053 119.215 127.128 118.596 127.128C117.978 127.128 116.708 126.968 114.788 126.648V124.952C114.874 124.952 115.407 125.005 116.388 125.112C117.391 125.219 118.138 125.272 118.628 125.272C119.823 125.272 120.42 124.163 120.42 121.944C120.42 121.795 120.42 121.645 120.42 121.496C120.399 120.813 119.738 119.981 118.436 119C117.135 117.997 116.175 117.123 115.556 116.376C114.938 115.629 114.628 114.872 114.628 114.104C114.628 113.336 114.639 112.803 114.66 112.504C114.682 112.205 114.756 111.832 114.884 111.384C115.012 110.936 115.204 110.616 115.46 110.424C116.122 109.891 117.124 109.624 118.468 109.624L121.508 110.072C121.508 111.011 121.124 111.48 120.356 111.48C120.207 111.48 120.058 111.469 119.908 111.448L118.596 111.256C117.551 111.256 116.911 111.491 116.676 111.96C116.484 112.365 116.388 112.963 116.388 113.752C116.388 114.52 117.22 115.565 118.884 116.888C119.652 117.464 120.228 117.923 120.612 118.264C121.018 118.605 121.402 119.053 121.764 119.608C122.148 120.163 122.34 120.707 122.34 121.24C122.34 121.752 122.33 122.2 122.308 122.584C122.287 122.947 122.234 123.384 122.148 123.896C122.084 124.408 121.967 124.835 121.796 125.176C121.647 125.517 121.444 125.848 121.188 126.168ZM130.391 114.936V113.144C130.391 112.291 130.285 111.757 130.071 111.544C129.879 111.309 129.399 111.192 128.631 111.192L127.031 111.512C126.818 111.555 126.658 111.576 126.551 111.576C125.805 111.576 125.431 111.096 125.431 110.136L128.631 109.592C130.231 109.592 131.202 109.805 131.543 110.232C131.714 110.445 131.842 110.627 131.927 110.776C132.034 110.925 132.098 111.192 132.119 111.576C132.183 112.195 132.215 112.909 132.215 113.72V127C131.255 127 130.69 126.936 130.519 126.808C130.349 126.659 130.263 126.189 130.263 125.4C130.05 125.528 129.751 125.763 129.367 126.104C128.557 126.851 127.874 127.224 127.319 127.224C126.018 127.224 125.239 126.819 124.983 126.008C124.749 125.176 124.631 122.893 124.631 119.16C124.631 117.731 125.25 116.781 126.487 116.312C127.511 115.928 128.813 115.736 130.391 115.736H130.519L130.391 114.936ZM130.263 117.528C129.026 117.528 128.087 117.624 127.447 117.816C126.829 117.987 126.519 118.349 126.519 118.904C126.519 122.808 126.605 124.941 126.775 125.304C126.861 125.453 127.053 125.528 127.351 125.528C127.65 125.528 127.97 125.443 128.311 125.272C128.674 125.101 129.047 124.877 129.431 124.6C129.837 124.301 130.157 124.099 130.391 123.992L130.263 123.192V118.328L130.391 117.528H130.263ZM136.049 125.656V103.576C136.987 103.576 137.531 103.64 137.681 103.768C137.851 103.896 137.937 104.323 137.937 105.048V127.128C136.998 127.128 136.443 127.064 136.273 126.936C136.123 126.808 136.049 126.381 136.049 125.656ZM147.976 126.872C147.677 126.957 147.336 127.032 146.952 127.096C146.589 127.181 146.141 127.224 145.608 127.224C145.096 127.224 144.626 127.192 144.2 127.128C143.794 127.064 143.432 126.925 143.112 126.712C142.813 126.499 142.557 126.307 142.344 126.136C142.152 125.944 141.981 125.613 141.832 125.144C141.704 124.675 141.597 124.28 141.512 123.96C141.448 123.64 141.394 123.117 141.352 122.392C141.33 121.645 141.309 121.037 141.288 120.568C141.288 120.099 141.288 119.352 141.288 118.328C141.288 117.304 141.288 116.568 141.288 116.12C141.309 115.651 141.33 115.053 141.352 114.328C141.394 113.581 141.448 113.059 141.512 112.76C141.597 112.44 141.704 112.056 141.832 111.608C141.981 111.139 142.152 110.819 142.344 110.648C142.557 110.477 142.824 110.296 143.144 110.104C143.634 109.763 144.296 109.592 145.128 109.592C145.981 109.592 146.589 109.635 146.952 109.72C147.336 109.784 147.677 109.859 147.976 109.944C148.274 110.029 148.53 110.211 148.744 110.488C148.957 110.744 149.138 110.968 149.288 111.16C149.437 111.331 149.554 111.651 149.64 112.12C149.725 112.568 149.789 112.941 149.832 113.24C149.896 113.517 149.938 113.997 149.96 114.68C150.002 115.363 150.024 115.917 150.024 116.344V118.328C150.024 118.328 150.024 118.371 150.024 118.456C150.024 118.456 150.024 119.107 150.024 120.408C150.024 121.859 149.981 122.819 149.896 123.288C149.81 123.736 149.725 124.195 149.64 124.664C149.554 125.133 149.437 125.464 149.288 125.656C149.138 125.827 148.957 126.051 148.744 126.328C148.53 126.584 148.274 126.765 147.976 126.872ZM148.135 119.064V117.976C148.135 115.181 148.018 113.421 147.784 112.696C147.442 111.779 146.738 111.309 145.672 111.288C144.797 111.288 144.21 111.512 143.911 111.96C143.741 112.259 143.602 112.536 143.496 112.792C143.389 113.048 143.314 113.496 143.272 114.136C143.208 115.075 143.176 115.981 143.176 116.856C143.176 117.731 143.176 118.616 143.176 119.512C143.176 120.387 143.186 121.144 143.208 121.784C143.229 122.424 143.314 123.107 143.464 123.832C143.634 124.536 143.89 124.995 144.232 125.208C144.573 125.421 145 125.528 145.512 125.528C146.024 125.528 146.418 125.485 146.696 125.4C146.973 125.293 147.197 125.112 147.368 124.856C147.56 124.579 147.698 124.312 147.784 124.056C147.89 123.779 147.965 123.352 148.008 122.776C148.093 121.944 148.135 120.707 148.135 119.064ZM167.272 125.528V118.456C167.272 118.456 167.272 118.371 167.272 118.2C167.272 115.043 167.176 113.101 166.984 112.376C166.792 111.651 166.184 111.288 165.16 111.288L162.184 112.28L162.312 113.08V127C161.395 127 160.851 126.936 160.68 126.808C160.531 126.68 160.456 126.253 160.456 125.528L160.424 118.456C160.424 118.371 160.424 118.083 160.424 117.592C160.424 117.08 160.424 116.643 160.424 116.28C160.424 115.917 160.414 115.576 160.392 115.256C160.392 114.915 160.371 114.467 160.328 113.912C160.307 113.357 160.254 112.963 160.168 112.728C160.083 112.493 159.966 112.237 159.816 111.96C159.56 111.512 159.07 111.288 158.344 111.288L155.336 112.408L155.464 113.208V127C154.526 127 153.971 126.936 153.8 126.808C153.651 126.68 153.576 126.253 153.576 125.528V109.816C154.515 109.816 155.059 109.859 155.208 109.944C155.379 110.008 155.464 110.285 155.464 110.776L158.344 109.592C159.88 109.592 161.011 110.04 161.736 110.936L165.16 109.592C167.102 109.592 168.254 110.051 168.616 110.968C169 111.864 169.192 114.371 169.192 118.488V127C168.232 127 167.667 126.936 167.496 126.808C167.347 126.68 167.272 126.253 167.272 125.528ZM178.298 114.936V113.144C178.298 112.291 178.191 111.757 177.978 111.544C177.786 111.309 177.306 111.192 176.538 111.192L174.938 111.512C174.724 111.555 174.564 111.576 174.458 111.576C173.711 111.576 173.338 111.096 173.338 110.136L176.538 109.592C178.138 109.592 179.108 109.805 179.45 110.232C179.62 110.445 179.748 110.627 179.834 110.776C179.94 110.925 180.004 111.192 180.026 111.576C180.09 112.195 180.122 112.909 180.122 113.72V127C179.162 127 178.596 126.936 178.426 126.808C178.255 126.659 178.17 126.189 178.17 125.4C177.956 125.528 177.658 125.763 177.274 126.104C176.463 126.851 175.78 127.224 175.226 127.224C173.924 127.224 173.146 126.819 172.89 126.008C172.655 125.176 172.538 122.893 172.538 119.16C172.538 117.731 173.156 116.781 174.394 116.312C175.418 115.928 176.719 115.736 178.298 115.736H178.426L178.298 114.936ZM178.17 117.528C176.932 117.528 175.994 117.624 175.354 117.816C174.735 117.987 174.426 118.349 174.426 118.904C174.426 122.808 174.511 124.941 174.682 125.304C174.767 125.453 174.959 125.528 175.258 125.528C175.556 125.528 175.876 125.443 176.218 125.272C176.58 125.101 176.954 124.877 177.338 124.6C177.743 124.301 178.063 124.099 178.298 123.992L178.17 123.192V118.328L178.298 117.528H178.17ZM174.906 104.856L178.714 104.984C179.247 104.984 179.716 104.941 180.122 104.856L180.538 104.92V105.592C180.538 106.083 180.452 106.371 180.282 106.456C180.132 106.52 179.588 106.552 178.65 106.552L174.81 106.424C174.298 106.424 173.839 106.467 173.434 106.552L173.018 106.488V105.816C173.018 105.347 173.092 105.069 173.242 104.984C173.412 104.899 173.967 104.856 174.906 104.856ZM190.163 126.872C189.864 126.957 189.523 127.032 189.139 127.096C188.776 127.181 188.328 127.224 187.795 127.224C187.283 127.224 186.814 127.192 186.387 127.128C185.982 127.064 185.619 126.925 185.299 126.712C185 126.499 184.744 126.307 184.531 126.136C184.339 125.944 184.168 125.613 184.019 125.144C183.891 124.675 183.784 124.28 183.699 123.96C183.635 123.64 183.582 123.117 183.539 122.392C183.518 121.645 183.496 121.037 183.475 120.568C183.475 120.099 183.475 119.352 183.475 118.328C183.475 117.304 183.475 116.568 183.475 116.12C183.496 115.651 183.518 115.053 183.539 114.328C183.582 113.581 183.635 113.059 183.699 112.76C183.784 112.44 183.891 112.056 184.019 111.608C184.168 111.139 184.339 110.819 184.531 110.648C184.744 110.477 185.011 110.296 185.331 110.104C185.822 109.763 186.483 109.592 187.315 109.592C188.168 109.592 188.776 109.635 189.139 109.72C189.523 109.784 189.864 109.859 190.163 109.944C190.462 110.029 190.718 110.211 190.931 110.488C191.144 110.744 191.326 110.968 191.475 111.16C191.624 111.331 191.742 111.651 191.827 112.12C191.912 112.568 191.976 112.941 192.019 113.24C192.083 113.517 192.126 113.997 192.147 114.68C192.19 115.363 192.211 115.917 192.211 116.344V118.328C192.211 118.328 192.211 118.371 192.211 118.456C192.211 118.456 192.211 119.107 192.211 120.408C192.211 121.859 192.168 122.819 192.083 123.288C191.998 123.736 191.912 124.195 191.827 124.664C191.742 125.133 191.624 125.464 191.475 125.656C191.326 125.827 191.144 126.051 190.931 126.328C190.718 126.584 190.462 126.765 190.163 126.872ZM190.323 119.064V117.976C190.323 115.181 190.206 113.421 189.971 112.696C189.63 111.779 188.926 111.309 187.859 111.288C186.984 111.288 186.398 111.512 186.099 111.96C185.928 112.259 185.79 112.536 185.683 112.792C185.576 113.048 185.502 113.496 185.459 114.136C185.395 115.075 185.363 115.981 185.363 116.856C185.363 117.731 185.363 118.616 185.363 119.512C185.363 120.387 185.374 121.144 185.395 121.784C185.416 122.424 185.502 123.107 185.651 123.832C185.822 124.536 186.078 124.995 186.419 125.208C186.76 125.421 187.187 125.528 187.699 125.528C188.211 125.528 188.606 125.485 188.883 125.4C189.16 125.293 189.384 125.112 189.555 124.856C189.747 124.579 189.886 124.312 189.971 124.056C190.078 123.779 190.152 123.352 190.195 122.776C190.28 121.944 190.323 120.707 190.323 119.064Z" fill="#FFD1D1"/>
<path d="M-1.57197 281.615C-17.4492 268.374 -27.144 249.542 -5.79395 236.491C2.08373 231.685 14.0436 230.928 23.0323 228.993C37.3003 225.928 48.995 221.791 40.0349 207.185C36.1785 200.897 47.1349 195.914 50.9913 202.196C62.7576 221.374 51.2278 233.232 30.5659 238.773C20.4017 241.487 9.19442 242.114 -0.339071 246.507C-15.3776 253.46 0.338308 268.124 7.54219 274.144C13.3734 279.002 4.20905 286.431 -1.57197 281.615Z" fill="#541313" fill-opacity="0.6"/>
<path d="M50.1935 403.448L1.45798 358.874C-23.4545 336.086 -23.476 299.148 1.46515 276.34C26.3598 253.562 66.7839 253.542 91.6964 276.34L140.425 320.91C165.337 343.699 165.323 380.679 140.425 403.448C115.491 426.262 75.106 426.236 50.1935 403.448Z" fill="#A33F3F" fill-opacity="0.6"/>
<path d="M130.26 394.144C105.326 416.965 64.941 416.945 40.0213 394.144L50.1928 403.448C75.1053 426.236 115.49 426.262 140.424 403.448C165.322 380.679 165.337 343.699 140.424 320.911L130.26 311.607C155.179 334.401 155.158 371.382 130.26 394.144Z" fill="#752E2E" fill-opacity="0.6"/>
<path d="M54.8904 320.066L4.36285 273.853C3.38441 274.647 2.40956 275.473 1.46696 276.339C0.520779 277.204 -0.375224 278.086 -1.24973 278.991L49.2706 325.2C33.2823 340.838 23.7667 359.4 21.3188 377.035L28.5908 383.687C29.3686 365.092 39.3716 344.438 57.6429 327.724C75.9035 311.017 98.5007 301.861 118.822 301.149L111.55 294.498C92.2789 296.74 71.979 305.441 54.8904 320.066Z" fill="#A33F3F" fill-opacity="0.6"/>
<path d="M23.3624 315.712L11.9437 305.26C6.10893 299.923 6.10893 291.265 11.9437 285.918C17.7821 280.584 27.2547 280.584 33.0859 285.918L44.5081 296.369C50.3393 301.71 50.3393 310.371 44.5081 315.712C38.6698 321.052 29.2008 321.052 23.3624 315.712Z" fill="#561818" fill-opacity="0.6"/>
<g opacity="0.399994">
<path d="M11.9452 285.918C6.10681 291.265 6.10681 299.92 11.9452 305.261L13.9809 307.12C8.13895 301.786 8.13895 293.121 13.9809 287.78C19.8121 282.446 29.2847 282.446 35.123 287.78L33.0837 285.918C27.2525 280.584 17.7836 280.584 11.9452 285.918Z" fill="#561818" fill-opacity="0.6"/>
</g>
<g opacity="0.399994">
<path d="M42.4724 313.848C36.634 319.189 27.1686 319.189 21.3339 313.848L23.3624 315.711C29.2008 321.051 38.6698 321.051 44.5081 315.711C50.3393 310.37 50.3393 301.708 44.5081 296.368L42.4724 294.512C48.3108 299.85 48.3108 308.514 42.4724 313.848Z" fill="#561818" fill-opacity="0.6"/>
</g>
<g opacity="0.199997">
<path d="M19.5121 305.64C18.5588 306.505 18.5588 307.918 19.5121 308.784C20.4654 309.656 22.003 309.662 22.9563 308.79L36.9484 295.991C37.9017 295.126 37.8874 293.709 36.9412 292.841C35.9914 291.975 34.4503 291.975 33.5041 292.841L19.5121 305.64Z" fill="#561818" fill-opacity="0.6"/>
</g>
<g opacity="0.199997">
<path d="M13.4082 300.062C12.462 300.928 12.462 302.341 13.4082 303.206C14.3615 304.072 15.899 304.078 16.8524 303.206L30.8444 290.407C31.7978 289.542 31.7906 288.126 30.8444 287.263C29.9018 286.391 28.3535 286.391 27.4073 287.263L13.4082 300.062Z" fill="#561818" fill-opacity="0.6"/>
</g>
<g opacity="0.199997">
<path d="M25.6091 311.223C24.6558 312.089 24.663 313.502 25.6163 314.367C26.5553 315.233 28.1072 315.239 29.0534 314.367L43.0454 301.575C43.9988 300.703 43.9916 299.286 43.0454 298.424C42.0956 297.559 40.5545 297.552 39.6012 298.418L25.6091 311.223Z" fill="#561818" fill-opacity="0.6"/>
</g>
</g>
<defs>
<clipPath id="clip0_7_10">
<rect width="683.87" height="384.7" fill="white"/>
</clipPath>
<clipPath id="clip1_7_10">
<rect width="195" height="210" fill="white" transform="translate(126 75)"/>
</clipPath>
<clipPath id="clip2_7_10">
<rect width="397" height="386" fill="white" transform="translate(448 -117)"/>
</clipPath>
</defs>
</svg>
