<svg width="494" height="245" viewBox="0 0 494 245" fill="none" xmlns="http://www.w3.org/2000/svg">
<rect width="494" height="238" fill="#35AB7B"/>
<path d="M246.5 112.292C249.208 112.292 251.804 113.367 253.718 115.282C255.633 117.196 256.708 119.793 256.708 122.5C256.708 125.207 255.633 127.804 253.718 129.718C251.804 131.633 249.208 132.708 246.5 132.708C243.793 132.708 241.196 131.633 239.282 129.718C237.367 127.804 236.292 125.207 236.292 122.5C236.292 119.793 237.367 117.196 239.282 115.282C241.196 113.367 243.793 112.292 246.5 112.292ZM167.079 43.0791C181.677 28.4812 213.323 35.0146 246.5 56.7583C279.677 35.0146 311.323 28.4812 325.921 43.0791C340.519 57.6771 333.986 89.3229 312.242 122.5C333.986 155.677 340.519 187.323 325.921 201.921C311.323 216.519 279.677 209.985 246.5 188.242C213.323 209.985 181.677 216.519 167.079 201.921C152.481 187.323 159.015 155.677 180.758 122.5C159.015 89.3229 152.481 57.6771 167.079 43.0791ZM282.638 86.3625C288.865 92.6916 294.581 99.1229 299.89 105.554C313.977 83.8104 319.081 65.1291 311.425 57.575C303.871 49.9187 285.19 55.0229 263.446 69.1104C269.877 74.4187 276.308 80.1354 282.638 86.3625ZM210.363 158.637C204.136 152.308 198.419 145.877 193.111 139.446C179.023 161.19 173.919 179.871 181.575 187.425C189.129 195.081 207.811 189.977 229.554 175.89C223.123 170.581 216.692 164.865 210.363 158.637ZM181.575 57.575C173.919 65.1291 179.023 83.8104 193.111 105.554C198.419 99.1229 204.136 92.6916 210.363 86.3625C216.692 80.1354 223.123 74.4187 229.554 69.1104C207.811 55.0229 189.129 49.9187 181.575 57.575ZM224.858 144.142C232.004 151.287 239.354 157.821 246.5 163.64C253.646 157.821 260.996 151.287 268.142 144.142C275.288 136.996 281.821 129.646 287.64 122.5C281.821 115.354 275.288 108.004 268.142 100.858C260.996 93.7125 253.646 87.1791 246.5 81.3604C239.354 87.1791 232.004 93.7125 224.858 100.858C217.713 108.004 211.179 115.354 205.361 122.5C211.179 129.646 217.713 136.996 224.858 144.142ZM311.425 187.425C319.081 179.871 313.977 161.19 299.89 139.446C294.581 145.877 288.865 152.308 282.638 158.637C276.308 164.865 269.877 170.581 263.446 175.89C285.19 189.977 303.871 195.081 311.425 187.425Z" fill="white"/>
</svg>
