<svg width="717" height="752" viewBox="0 0 717 752" fill="none" xmlns="http://www.w3.org/2000/svg">
<rect x="144.515" y="461.237" width="290.762" height="290.762" fill="#C3FFA7"/>
<path d="M161.762 166.226C148.587 188.055 139.842 212.266 136.024 237.475C132.206 262.684 133.391 288.398 139.511 313.149C145.631 337.901 156.566 361.204 171.692 381.729C186.817 402.254 205.838 419.599 227.667 432.774C249.496 445.948 273.707 454.694 298.916 458.512C324.125 462.329 349.839 461.145 374.59 455.025C399.342 448.905 422.645 437.97 443.17 422.844C463.695 407.718 481.04 388.697 494.215 366.868L428.859 327.425C420.864 340.671 410.339 352.213 397.884 361.392C385.428 370.571 371.287 377.207 356.268 380.92C341.248 384.634 325.644 385.353 310.346 383.036C295.049 380.72 280.357 375.412 267.111 367.418C253.864 359.423 242.322 348.898 233.143 336.443C223.964 323.987 217.329 309.846 213.615 294.827C209.901 279.807 209.182 264.203 211.499 248.905C213.816 233.608 219.123 218.916 227.118 205.67L161.762 166.226Z" fill="#43AD48"/>
<circle cx="327.972" cy="340.087" r="44.1335" fill="#F44618"/>
<circle cx="665.464" cy="446.526" r="44.1335" fill="#FFC017"/>
<circle cx="575.898" cy="611.378" r="140.621" fill="#F44618"/>
<path d="M364.751 263.935C544.086 223.783 598.394 237.818 649.228 382.598" stroke="black" stroke-width="2"/>
<path d="M122.215 356.662C16.8747 442.955 -6.72365 568.243 84.5721 619.299" stroke="black" stroke-width="2"/>
<line x1="153.169" y1="628.984" x2="426.624" y2="628.984" stroke="#F44618" stroke-width="2"/>
<line x1="153.169" y1="666.194" x2="426.624" y2="666.194" stroke="#F44618" stroke-width="2"/>
<line x1="153.169" y1="704.271" x2="426.624" y2="704.271" stroke="#F44618" stroke-width="2"/>
</svg>
