<svg width="68" height="68" viewBox="0 0 68 68" fill="none" xmlns="http://www.w3.org/2000/svg">
<path d="M51 22.1425V43.639C49.3795 42.7034 47.4957 42.3287 45.6405 42.5729C43.7854 42.8172 42.0627 43.6667 40.7396 44.9898C39.4165 46.3129 38.5669 48.0357 38.3227 49.8908C38.0785 51.746 38.4533 53.6298 39.3888 55.2503C40.3244 56.8707 41.7686 58.1372 43.4973 58.8532C45.2261 59.5693 47.1427 59.6949 48.9501 59.2105C50.7575 58.7262 52.3546 57.659 53.4936 56.1745C54.6327 54.69 55.2501 52.8711 55.25 51V8.18549C55.2507 7.63995 55.12 7.10226 54.8691 6.61783C54.6182 6.13341 54.2544 5.71647 53.8085 5.40222C53.3625 5.08798 52.8475 4.88565 52.3069 4.81234C51.7663 4.73902 51.216 4.79687 50.7025 4.98099L23.5025 14.6965C22.8431 14.9329 22.2728 15.3672 21.8697 15.94C21.4665 16.5129 21.2501 17.1962 21.25 17.8967V47.8847C19.6297 46.9492 17.746 46.5745 15.891 46.8186C14.0361 47.0627 12.3134 47.912 10.9903 49.2348C9.66718 50.5576 8.81747 52.2801 8.57293 54.135C8.32839 55.9899 8.70269 57.8737 9.63779 59.4942C10.5729 61.1147 12.0165 62.3815 13.7449 63.098C15.4732 63.8145 17.3897 63.9407 19.1971 63.4571C21.0044 62.9735 22.6018 61.9071 23.7414 60.4232C24.881 58.9394 25.4991 57.121 25.5 55.25V31.2502L51 22.1467V22.1425Z" fill="#FFAF10"/>
</svg>
