<svg width="91" height="81" viewBox="0 0 91 81" fill="none" xmlns="http://www.w3.org/2000/svg">
<path d="M71.9728 22.8274H19.0273V58.1728H71.9728V22.8274Z" fill="#F0F1F1"/>
<path d="M50.4463 36.5863C49.1905 35.3286 47.3904 34.6091 45.5001 34.6091C43.6098 34.6091 41.8096 35.3286 40.5538 36.5863L19.0273 58.1418H71.9728L50.4463 36.5863Z" fill="#E2E4E5"/>
<path d="M40.5538 44.383C41.8096 45.6407 43.6098 46.3601 45.5001 46.3601C47.3904 46.3601 49.1905 45.6407 50.4463 44.383L71.9728 22.8274H19.0273L40.5538 44.383Z" fill="white"/>
<path d="M45.4719 48.156C45.4719 48.156 55.3702 43.0736 55.3702 37.4559C55.3702 31.8382 45.4719 31.9781 45.4719 36.2667C45.4719 31.9781 35.5728 31.8382 35.5728 37.8882C35.5728 43.9381 45.4719 48.156 45.4719 48.156Z" fill="#FFAF10"/>
</svg>
