<svg width="456" height="381" viewBox="0 0 456 381" fill="none" xmlns="http://www.w3.org/2000/svg">
<path d="M284.34 0.938692L261.065 379.939C261.03 380.514 261.487 381 262.063 381H311.529C312.06 381 312.498 380.586 312.528 380.056L333.94 1.05641C333.973 0.482866 333.516 0 332.942 0H285.338C284.809 0 284.372 0.411204 284.34 0.938692Z" fill="black"/>
<path d="M422.682 83.9709L455.886 367.864C455.949 368.404 455.569 368.896 455.03 368.971L368.867 380.861C368.315 380.938 367.807 380.547 367.738 379.994L332.127 92.5364C332.057 91.9769 332.464 91.4707 333.025 91.4179L421.595 83.0915C422.136 83.0406 422.619 83.4312 422.682 83.9709Z" fill="#35AB7B"/>
<rect x="20" y="307" width="228" height="74" fill="#35AB7B"/>
<rect y="230" width="228" height="68" fill="black"/>
</svg>
