<svg width="330" height="322" viewBox="0 0 330 322" fill="none" xmlns="http://www.w3.org/2000/svg">
<g clip-path="url(#clip0_290_132)">
<path d="M251.626 128.248H173.251V162.154C173.251 186.192 156.596 205.748 136.126 205.748C115.656 205.748 99.0011 186.192 99.0011 162.154V88.5296L65.5371 112.143C55.5855 119.106 49.5011 131.76 49.5011 145.322V173.961L8.25114 201.934C0.362078 207.262 -2.37073 219.129 2.21833 228.393L43.4683 312.311C48.0058 321.574 58.1121 324.723 66.0011 319.395L119.317 283.248H189.751C207.953 283.248 222.751 265.871 222.751 244.498H231.001C240.128 244.498 247.501 235.84 247.501 225.123V186.373H251.626C258.484 186.373 264.001 179.895 264.001 171.842V142.78C264.001 134.727 258.484 128.248 251.626 128.248ZM327.784 105.604L286.534 21.6859C281.996 12.4222 271.89 9.27377 264.001 14.6019L210.685 50.7483H157.989C151.801 50.7483 145.768 52.8069 140.509 56.6214L123.236 69.2757C118.389 72.7874 115.501 79.0237 115.501 85.6839V162.154C115.501 175.535 124.731 186.373 136.126 186.373C147.521 186.373 156.751 175.535 156.751 162.154V108.873H251.626C267.559 108.873 280.501 124.071 280.501 142.78V160.035L321.751 132.063C329.64 126.674 332.321 114.867 327.784 105.604Z" fill="#35AB7B"/>
</g>
<circle cx="291" cy="261" r="25" fill="#F65E08"/>
<circle cx="39" cy="36" r="36" fill="#F65E08"/>
<defs>
<clipPath id="clip0_290_132">
<rect width="330" height="310" fill="white" transform="translate(0 12)"/>
</clipPath>
</defs>
</svg>
