<svg width="24" height="25" viewBox="0 0 24 25" fill="none" xmlns="http://www.w3.org/2000/svg">
<circle cx="11.5" cy="13.5" r="11.5" fill="#35AB7B"/>
<path d="M4.19287 2.62769V4.25537L7.11643 4.22933L10.0259 4.19026V2.62769V1.06511L7.11643 1.02605L4.19287 1V2.62769ZM9.53399 2.62769V3.73451H7.14454H4.75509V2.62769V1.52086H7.14454H9.53399V2.62769Z" fill="black" stroke="black" stroke-width="0.3"/>
<path d="M3.49018 6.23473C3.06851 6.43005 2.74524 6.71652 2.54846 7.05508L2.22518 7.57594V14.5164C2.22518 22.2511 2.19707 22.0298 3.18096 22.7199C3.65885 23.0585 3.74318 23.0715 5.76718 23.1106C7.76307 23.1496 7.84741 23.1496 7.84741 22.8892C7.84741 22.6548 7.73496 22.6288 5.80935 22.5897L3.77129 22.5506L3.32151 22.1209L2.85768 21.7042L2.82957 14.6987C2.7874 7.05508 2.75929 7.30249 3.61668 6.76861C4.08051 6.48214 4.20701 6.46912 7.03218 6.46912C11.4737 6.46912 11.3613 6.37797 11.3613 10.011L11.3472 12.5241L10.5882 12.9538C9.67463 13.4616 9.02807 14.269 8.66263 15.3498C8.1988 16.7561 8.40963 18.1103 9.36541 19.8812C10.6866 22.3553 13.6524 24.009 15.2125 23.1626L15.7185 22.8892L16.2245 23.1626C16.6181 23.384 16.8711 23.4231 17.4755 23.358C20.399 23.0845 23.3226 19.2692 22.9712 16.2092C22.8025 14.6726 21.7765 13.2663 20.3709 12.6804C19.4854 12.2897 17.9112 12.3027 16.857 12.7064C16.4494 12.8627 16.0699 12.9668 16.0418 12.9278C16.0137 12.9017 16.0277 12.6022 16.0699 12.2767L16.1683 11.6777H16.7727C17.5176 11.6777 18.4875 11.3652 18.9372 10.9876C19.4432 10.5448 19.7946 9.75053 19.7946 8.95622V8.25306L19.0919 8.31816C17.7425 8.43536 16.2948 9.65938 15.845 11.0657L15.6764 11.6256L15.1001 10.8574C14.4535 10.011 13.8491 9.58125 13.5961 9.81563C13.4837 9.91981 13.6383 10.1281 14.1443 10.5969C14.6081 11.0266 14.9314 11.4824 15.1422 11.9772C15.592 13.1231 15.578 13.1361 14.5097 12.7064C14.074 12.5241 13.5118 12.4199 12.9636 12.4069L12.0922 12.3939L12.036 9.98491C11.9797 7.41968 11.9095 7.12019 11.1926 6.50818C10.6164 6.01336 10.1806 5.94826 7.08841 5.94826C4.27729 5.94826 4.08051 5.96128 3.49018 6.23473ZM19.1762 9.33384C18.9794 10.4537 18.4312 10.9615 17.2084 11.1048C16.4635 11.2089 16.4213 11.1308 16.8289 10.4016C17.1662 9.78959 17.7566 9.28175 18.3891 9.02132C19.1762 8.69579 19.2746 8.73485 19.1762 9.33384ZM14.6081 13.3054C15.1001 13.5007 15.6061 13.657 15.7185 13.657C15.831 13.657 16.337 13.4877 16.843 13.2924C18.122 12.7715 19.4573 12.7715 20.385 13.2793C21.5797 13.9174 22.2965 15.0112 22.423 16.3654C22.6901 19.0088 20.0336 22.5116 17.5176 22.8241C16.8851 22.9022 15.9996 22.6288 15.9996 22.3553C15.9996 22.2772 15.8731 22.2251 15.7185 22.2251C15.5639 22.2251 15.4374 22.2772 15.4374 22.3553C15.4374 22.6288 14.5519 22.9022 13.9194 22.8241C11.5721 22.5246 8.98591 19.3473 8.97185 16.7431C8.97185 15.0242 10.2369 13.3445 11.8111 12.9668C12.542 12.7975 13.6524 12.9278 14.6081 13.3054Z" fill="black" stroke="black" stroke-width="0.3"/>
</svg>
