<svg width="494" height="252" viewBox="0 0 494 252" fill="none" xmlns="http://www.w3.org/2000/svg">
<rect y="8" width="494" height="238" fill="#35AB7B"/>
<g clip-path="url(#clip0_356_89)">
<path d="M209.562 21H153.937C151.731 20.8015 149.53 21.4211 147.8 22.7277C146.069 24.0342 144.946 25.9251 144.667 28V231H218.833V28C218.554 25.9251 217.43 24.0342 215.7 22.7277C213.97 21.4211 211.768 20.8015 209.562 21V21Z" fill="white"/>
<path d="M365.461 217.63L313.989 89.53C313.643 88.6704 313.122 87.8835 312.454 87.2143C311.786 86.545 310.985 86.0065 310.096 85.6295C309.208 85.2525 308.249 85.0443 307.276 85.017C306.302 84.9896 305.332 85.1435 304.422 85.47L278.167 95.13V63C278.167 61.1435 277.385 59.363 275.994 58.0503C274.603 56.7375 272.717 56 270.75 56H233.667V231H278.167V102.83L329.564 231L365.461 217.63Z" fill="white"/>
</g>
<defs>
<clipPath id="clip0_356_89">
<rect width="267" height="252" fill="white" transform="translate(115)"/>
</clipPath>
</defs>
</svg>
