<svg width="26" height="19" viewBox="0 0 26 19" fill="none" xmlns="http://www.w3.org/2000/svg">
<g clip-path="url(#clip0_435_543)">
<path d="M20.4851 6.38642C20.2464 6.03759 19.7386 5.87802 19.2206 5.98935C19.0327 6.03017 18.9007 6.09697 18.7077 6.24169C18.5656 6.34931 17.2351 7.47743 15.7472 8.75029C14.2593 10.0194 13.0304 11.0585 13.0101 11.0548C12.9898 11.0548 11.7761 10.0268 10.3085 8.77255C6.94172 5.88915 7.11438 6.02646 6.78938 5.95595C5.87024 5.75556 5.0679 6.45322 5.51477 7.06181C5.67727 7.28075 12.1671 12.8101 12.4109 12.9362C12.8679 13.1737 13.4062 13.1255 13.8226 12.8138C13.9495 12.7173 15.5034 11.3962 17.2757 9.88212C19.6929 7.81884 20.5105 7.09521 20.5562 6.98388C20.6476 6.76122 20.6273 6.60165 20.4851 6.38642Z" fill="white"/>
</g>
<defs>
<clipPath id="clip0_435_543">
<rect width="19" height="26" fill="white" transform="translate(26) rotate(90)"/>
</clipPath>
</defs>
</svg>
