<svg width="494" height="254" viewBox="0 0 494 254" fill="none" xmlns="http://www.w3.org/2000/svg">
<rect y="8" width="494" height="238" fill="#35AB7B"/>
<path fill-rule="evenodd" clip-rule="evenodd" d="M325.375 42.3333H166.625C165.222 42.3333 163.876 42.8908 162.883 43.8832C161.891 44.8756 161.333 46.2216 161.333 47.625V206.375C161.333 207.778 161.891 209.124 162.883 210.117C163.876 211.109 165.222 211.667 166.625 211.667H325.375C326.778 211.667 328.124 211.109 329.117 210.117C330.109 209.124 330.667 207.778 330.667 206.375V47.625C330.667 46.2216 330.109 44.8756 329.117 43.8832C328.124 42.8908 326.778 42.3333 325.375 42.3333ZM166.625 31.75C162.415 31.75 158.377 33.4225 155.4 36.3997C152.423 39.3768 150.75 43.4147 150.75 47.625V206.375C150.75 210.585 152.423 214.623 155.4 217.6C158.377 220.577 162.415 222.25 166.625 222.25H325.375C329.585 222.25 333.623 220.577 336.6 217.6C339.577 214.623 341.25 210.585 341.25 206.375V47.625C341.25 43.4147 339.577 39.3768 336.6 36.3997C333.623 33.4225 329.585 31.75 325.375 31.75H166.625Z" fill="white"/>
<path fill-rule="evenodd" clip-rule="evenodd" d="M198.375 95.2501V105.833H224.833V95.2501H198.375ZM193.083 84.6667C191.68 84.6667 190.334 85.2243 189.342 86.2166C188.349 87.209 187.792 88.555 187.792 89.9584V111.125C187.792 112.529 188.349 113.874 189.342 114.867C190.334 115.859 191.68 116.417 193.083 116.417H230.125C231.529 116.417 232.874 115.859 233.867 114.867C234.859 113.874 235.417 112.529 235.417 111.125V89.9584C235.417 88.555 234.859 87.209 233.867 86.2166C232.874 85.2243 231.529 84.6667 230.125 84.6667H193.083Z" fill="white"/>
<path fill-rule="evenodd" clip-rule="evenodd" d="M203.667 135.149L183.754 169.291C179.637 176.35 184.722 185.208 192.893 185.208H230.315C238.48 185.208 243.571 176.35 239.454 169.291L219.542 135.154V116.417H203.667V135.149ZM230.125 105.833V132.292L248.598 163.962C256.832 178.065 246.651 195.792 230.315 195.792H192.893C176.557 195.792 166.382 178.07 174.61 163.962L193.083 132.292V105.833H230.125ZM285.449 90.154C298.932 81.3858 309.5 73.5488 309.5 58.2083H320.083C320.083 79.9041 304.192 90.5932 291.217 99.0229L289.815 99.9383C283.571 103.986 278.067 107.558 273.913 111.776C269.664 116.099 267.167 120.787 267.167 127C267.167 133.212 269.664 137.901 273.913 142.224C278.067 146.442 283.571 150.013 289.815 154.062L291.217 154.977C304.192 163.407 320.083 174.09 320.083 195.792H309.5C309.5 180.446 298.932 172.614 285.449 163.846L283.841 162.803C277.861 158.93 271.379 154.739 266.373 149.643C260.7 143.88 256.583 136.662 256.583 127C256.583 117.337 260.7 110.119 266.373 104.352C271.379 99.261 277.856 95.07 283.841 91.1965L285.449 90.154V90.154Z" fill="white"/>
<path fill-rule="evenodd" clip-rule="evenodd" d="M291.217 90.154C277.734 81.3858 267.167 73.5488 267.167 58.2083H256.583C256.583 79.9041 272.474 90.5932 285.449 99.0229L286.852 99.9383C293.096 103.986 298.599 107.558 302.753 111.776C307.002 116.099 309.5 120.787 309.5 127C309.5 133.212 307.002 137.901 302.753 142.224C298.599 146.442 293.096 150.013 286.852 154.062L285.449 154.977C272.474 163.407 256.583 174.09 256.583 195.792H267.167C267.167 180.446 277.734 172.614 291.217 163.846L292.826 162.803C298.805 158.93 305.288 154.739 310.294 149.643C315.966 143.88 320.083 136.662 320.083 127C320.083 117.337 315.966 110.119 310.294 104.352C305.288 99.261 298.811 95.07 292.826 91.1965L291.217 90.154V90.154Z" fill="white"/>
<path fill-rule="evenodd" clip-rule="evenodd" d="M261.875 68.7917C261.875 67.3882 262.433 66.0423 263.425 65.0499C264.417 64.0575 265.763 63.5 267.167 63.5H293.625C295.028 63.5 296.374 64.0575 297.367 65.0499C298.359 66.0423 298.917 67.3882 298.917 68.7917C298.917 70.1951 298.359 71.5411 297.367 72.5334C296.374 73.5258 295.028 74.0833 293.625 74.0833H267.167C265.763 74.0833 264.417 73.5258 263.425 72.5334C262.433 71.5411 261.875 70.1951 261.875 68.7917ZM277.75 185.208C277.75 183.805 278.308 182.459 279.3 181.467C280.292 180.474 281.638 179.917 283.042 179.917H309.5C310.903 179.917 312.249 180.474 313.242 181.467C314.234 182.459 314.792 183.805 314.792 185.208C314.792 186.612 314.234 187.958 313.242 188.95C312.249 189.942 310.903 190.5 309.5 190.5H283.042C281.638 190.5 280.292 189.942 279.3 188.95C278.308 187.958 277.75 186.612 277.75 185.208ZM261.875 116.417C261.875 115.013 262.433 113.667 263.425 112.675C264.417 111.683 265.763 111.125 267.167 111.125H309.5C310.903 111.125 312.249 111.683 313.242 112.675C314.234 113.667 314.792 115.013 314.792 116.417C314.792 117.82 314.234 119.166 313.242 120.158C312.249 121.151 310.903 121.708 309.5 121.708H267.167C265.763 121.708 264.417 121.151 263.425 120.158C262.433 119.166 261.875 117.82 261.875 116.417ZM261.875 137.583C261.875 136.18 262.433 134.834 263.425 133.842C264.417 132.849 265.763 132.292 267.167 132.292H309.5C310.903 132.292 312.249 132.849 313.242 133.842C314.234 134.834 314.792 136.18 314.792 137.583C314.792 138.987 314.234 140.333 313.242 141.325C312.249 142.317 310.903 142.875 309.5 142.875H267.167C265.763 142.875 264.417 142.317 263.425 141.325C262.433 140.333 261.875 138.987 261.875 137.583Z" fill="white"/>
</svg>
