<svg width="400" height="377" viewBox="0 0 400 377" fill="none" xmlns="http://www.w3.org/2000/svg">
<path d="M128.341 320.264H91.165C83.9965 320.264 78.1851 324.404 78.1851 329.51C78.1851 334.618 83.9965 338.758 91.165 338.758H92.8941C100.063 338.758 105.874 342.9 105.874 348.006C105.874 353.113 100.063 357.253 92.8941 357.253H12.9781C5.80956 357.253 0 361.394 0 366.503C0 371.609 5.80956 375.749 12.9781 375.749H109.017H305.323C312.492 375.749 318.301 371.609 318.301 366.503C318.301 361.394 312.492 357.253 305.323 357.253H283.144C275.975 357.253 270.164 353.113 270.164 348.006C270.164 342.9 275.975 338.758 283.144 338.758H370.256C377.423 338.758 383.234 334.618 383.234 329.51C383.234 324.404 377.423 320.264 370.256 320.264H363.754H128.341Z" fill="#35AB7B"/>
<path d="M356.866 376.581C351.817 376.581 347.723 373.652 347.723 370.04C347.723 366.427 351.817 363.5 356.866 363.5H384.883C389.932 363.5 394.025 366.427 394.025 370.04C394.025 373.652 389.932 376.581 384.883 376.581H356.866Z" fill="#35AB7B"/>
<path d="M314.866 12.1155L75.123 93.1332C73.9224 93.5382 73.2834 94.8197 73.6996 95.9951L78.5406 109.682C78.9549 110.857 80.2659 111.48 81.4684 111.073L321.211 30.0556C322.413 29.6507 323.05 28.3691 322.634 27.1955L317.793 13.5069C317.379 12.3333 316.068 11.7087 314.866 12.1155Z" fill="#F65E08"/>
<path d="M333.616 336.233H318.8C317.53 336.233 316.499 335.225 316.499 333.985V292.928C316.499 291.686 317.53 290.678 318.8 290.678H333.616C334.889 290.678 335.918 291.686 335.918 292.928V333.985C335.918 335.225 334.889 336.233 333.616 336.233Z" fill="#F65E08"/>
<path d="M131.661 336.233H116.845C115.574 336.233 114.543 335.225 114.543 333.985V292.928C114.543 291.686 115.574 290.678 116.845 290.678H131.661C132.931 290.678 133.962 291.686 133.962 292.928V333.985C133.962 335.225 132.931 336.233 131.661 336.233Z" fill="#F65E08"/>
<path d="M385.039 303.963H65.4225C57.1603 303.963 50.4613 297.417 50.4613 289.341V94.6109C50.4613 86.5328 57.1603 79.9863 65.4225 79.9863H385.039C393.301 79.9863 400 86.5328 400 94.6109V289.341C400 297.417 393.301 303.963 385.039 303.963Z" fill="#35AB7B"/>
<path opacity="0.35" d="M362.134 82.0005C372.869 93.0594 376.697 110.042 376.697 126.49V227.091C376.697 261.161 348.441 288.779 313.586 288.779L90.27 295.086C82.3521 295.086 72.6811 291.441 65.6968 288.838C77.1981 300.687 87.5779 303.963 113.573 303.963H343.341C378.196 303.963 400 282.65 400 248.581V135.369C400 109.038 385.891 90.8527 362.134 82.0005Z" fill="black"/>
<path d="M338.428 19.8373C338.428 30.5596 329.534 39.2516 318.563 39.2516C307.592 39.2516 298.698 30.5596 298.698 19.8373C298.698 9.1132 307.592 0.419434 318.563 0.419434C329.534 0.419434 338.428 9.1132 338.428 19.8373Z" fill="#F65E08"/>
<path d="M362.134 191.976C362.134 229.715 330.834 260.307 292.226 260.307C253.617 260.307 222.318 229.715 222.318 191.976C222.318 154.236 253.617 123.642 292.226 123.642C330.834 123.642 362.134 154.236 362.134 191.976Z" fill="#F65E08"/>
<path d="M327.179 191.976C327.179 210.845 311.531 226.141 292.226 226.141C272.921 226.141 257.272 210.845 257.272 191.976C257.272 173.107 272.921 157.809 292.226 157.809C311.531 157.809 327.179 173.107 327.179 191.976Z" fill="#35AB7B"/>
<path opacity="0.35" d="M320.454 171.976C324.638 177.608 327.179 184.481 327.179 191.976C327.179 210.845 311.531 226.141 292.226 226.141C284.558 226.141 277.53 223.657 271.766 219.567C278.119 228.115 288.355 233.733 299.993 233.733C319.298 233.733 334.948 218.439 334.948 199.566C334.948 188.192 329.201 178.184 320.454 171.976Z" fill="black"/>
<path d="M204.712 174.892H90.3991C89.2556 174.892 88.3293 173.985 88.3293 172.866V159.834C88.3293 158.716 89.2556 157.809 90.3991 157.809H204.712C205.856 157.809 206.784 158.716 206.784 159.834V172.866C206.784 173.985 205.856 174.892 204.712 174.892Z" fill="#F65E08"/>
<path d="M204.712 250.818H90.3991C89.2556 250.818 88.3293 249.911 88.3293 248.791V235.76C88.3293 234.64 89.2556 233.733 90.3991 233.733H204.712C205.856 233.733 206.784 234.64 206.784 235.76V248.791C206.784 249.911 205.856 250.818 204.712 250.818Z" fill="#F65E08"/>
<path d="M204.712 212.855H90.3991C89.2556 212.855 88.3293 211.948 88.3293 210.83V197.797C88.3293 196.677 89.2556 195.774 90.3991 195.774H204.712C205.856 195.774 206.784 196.677 206.784 197.797V210.83C206.784 211.948 205.856 212.855 204.712 212.855Z" fill="#F65E08"/>
</svg>
