<svg width="160" height="153" viewBox="0 0 160 153" fill="none" xmlns="http://www.w3.org/2000/svg">
<path d="M111.82 102.147L104.75 95.3858C111.313 89.1093 115 80.5969 115 71.721C115 62.8452 111.313 54.3328 104.75 48.0562L111.82 41.2908C115.999 45.2866 119.313 50.0304 121.575 55.2512C123.836 60.472 125 66.0677 125 71.7186C125 77.3696 123.836 82.9653 121.575 88.1861C119.313 93.4069 115.999 98.1507 111.82 102.147Z" fill="black"/>
<path d="M97.6801 88.6206L90.6101 81.8599C93.4172 79.1676 94.9936 75.5208 94.9936 71.7189C94.9936 67.917 93.4172 64.2702 90.6101 61.5778L97.6801 54.8171C102.361 59.3033 104.989 65.3817 104.989 71.7189C104.989 78.056 102.361 84.1344 97.6801 88.6206ZM85.0001 124.313H75.0001V71.7189C75.0001 70.4508 75.5269 69.2347 76.4645 68.338C77.4022 67.4413 78.674 66.9376 80.0001 66.9376C81.3262 66.9376 82.5979 67.4413 83.5356 68.338C84.4733 69.2347 85.0001 70.4508 85.0001 71.7189V124.313ZM62.3201 88.6206C57.6394 84.1344 55.0107 78.056 55.0107 71.7189C55.0107 65.3817 57.6394 59.3033 62.3201 54.8171L69.3901 61.5778C66.5829 64.2702 65.0065 67.917 65.0065 71.7189C65.0065 75.5208 66.5829 79.1676 69.3901 81.8599L62.3201 88.6206Z" fill="black"/>
<path d="M48.1804 102.147C44.0017 98.1507 40.687 93.4069 38.4255 88.1861C36.164 82.9653 35 77.3696 35 71.7186C35 66.0677 36.164 60.472 38.4255 55.2512C40.687 50.0304 44.0017 45.2866 48.1804 41.2908L55.2504 48.0562C48.6889 54.3326 45.0029 62.8439 45.0029 71.7186C45.0029 80.5934 48.6889 89.1047 55.2504 95.3811L48.1804 102.147Z" fill="black"/>
<path d="M80 148.219C79.1146 148.219 78.2449 147.995 77.48 147.568L17.48 114.1C16.7251 113.678 16.0989 113.075 15.6637 112.351C15.2286 111.626 14.9997 110.804 15 109.969V43.0312C14.9997 42.1954 15.2286 41.3742 15.6637 40.6494C16.0989 39.9245 16.7251 39.3214 17.48 38.9002L77.48 5.43145C78.2448 5.00467 79.1145 4.77979 80 4.77979C80.8855 4.77979 81.7552 5.00467 82.52 5.43145L142.52 38.9002L137.48 47.1622L80 15.0991L25 45.7756V107.224L80 137.906L135 107.224V71.7187H145V109.969C145 110.804 144.771 111.626 144.336 112.351C143.901 113.075 143.275 113.678 142.52 114.1L82.52 147.568C81.7551 147.995 80.8854 148.219 80 148.219Z" fill="#35AB7B"/>
</svg>
