<svg width="684" height="385" viewBox="0 0 684 385" fill="none" xmlns="http://www.w3.org/2000/svg">
<g clip-path="url(#clip0_8_54)">
<rect width="683.87" height="384.7" fill="url(#paint0_linear_8_54)"/>
<ellipse cx="337" cy="74" rx="51" ry="50" fill="#FEFFBE"/>
<path d="M342.04 106.8C336.68 106.8 332.4 105.693 329.2 103.48C326.027 101.24 324.12 98.0933 323.48 94.04H321.72L323.16 87.76C323.88 91.5467 325.813 94.5333 328.96 96.72C332.133 98.88 336.08 99.96 340.8 99.96C345.013 99.96 348.24 99.1067 350.48 97.4C352.747 95.6667 353.88 93.2 353.88 90C353.88 87.8133 353.36 86 352.32 84.56C351.28 83.0933 349.613 81.9067 347.32 81C345.027 80.0667 341.96 79.3333 338.12 78.8C333.027 78.1067 328.8 76.9733 325.44 75.4C322.107 73.8267 319.6 71.8267 317.92 69.4C316.267 66.9467 315.44 64.0667 315.44 60.76C315.44 55.8267 317.12 51.9733 320.48 49.2C323.84 46.4267 328.453 45.04 334.32 45.04C337.76 45.04 340.707 45.5333 343.16 46.52C345.613 47.5067 347.547 48.9733 348.96 50.92C350.373 52.84 351.267 55.2133 351.64 58.04H353.4L351.92 64.08C351.28 60.3733 349.44 57.4133 346.4 55.2C343.387 52.9867 339.72 51.88 335.4 51.88C331.693 51.88 328.76 52.64 326.6 54.16C324.467 55.6533 323.4 57.72 323.4 60.36C323.4 62.2 323.947 63.7867 325.04 65.12C326.133 66.4533 327.853 67.6 330.2 68.56C332.547 69.52 335.587 70.3467 339.32 71.04C344.707 71.8667 349.04 73.04 352.32 74.56C355.627 76.08 358.04 78.0533 359.56 80.48C361.08 82.9067 361.84 85.8933 361.84 89.44C361.84 94.88 360.093 99.1333 356.6 102.2C353.133 105.267 348.28 106.8 342.04 106.8ZM315.36 106V87.76H323.16V106H315.36ZM351.92 64.08V45.84H359.76V64.08H351.92ZM359.32 160.56V167.36H327.24V160.56H359.32ZM368.96 178.88H374.32V186H348.72V178.88H360.76L341.96 132.12L346.72 135.36H339.2L343.96 132.12L325.16 178.88H337.2V186H312V178.88H317.36L338.76 125.84H347.56L368.96 178.88ZM349 266L329.68 212.52L335.36 205.84L354.12 258.36H352.12L370.96 205.84L376.04 212.52L356.68 266H349ZM313.24 266V258.88H322.16V212.96H313.24V205.84H335.36L334.36 212.96H329.52V258.88H338.92V266H313.24ZM366.52 266V258.88H376.2V212.96H370.76L370.96 205.84H392.96V212.96H384.04V258.88H392.96V266H366.52Z" fill="#176A52"/>
<path d="M380.097 106.48C377.393 106.48 375.057 105.92 373.089 104.8C371.121 103.664 369.609 102.104 368.553 100.12C367.497 98.12 366.969 95.824 366.969 93.232C366.969 90.624 367.505 88.312 368.577 86.296C369.649 84.264 371.153 82.68 373.089 81.544C375.025 80.392 377.281 79.816 379.857 79.816C382.465 79.816 384.713 80.384 386.601 81.52C388.505 82.656 389.961 84.232 390.969 86.248C391.993 88.264 392.505 90.592 392.505 93.232C392.505 93.616 392.497 93.92 392.481 94.144C392.465 94.352 392.441 94.528 392.409 94.672H387.945C387.977 94.432 388.001 94.176 388.017 93.904C388.033 93.616 388.041 93.28 388.041 92.896C388.041 91.152 387.713 89.608 387.057 88.264C386.417 86.904 385.489 85.832 384.273 85.048C383.057 84.264 381.585 83.872 379.857 83.872C378.193 83.872 376.737 84.272 375.489 85.072C374.241 85.856 373.265 86.952 372.561 88.36C371.873 89.768 371.529 91.392 371.529 93.232C371.529 95.008 371.865 96.584 372.537 97.96C373.225 99.32 374.201 100.392 375.465 101.176C376.745 101.944 378.273 102.328 380.049 102.328C381.889 102.328 383.465 101.904 384.777 101.056C386.105 100.192 387.081 99.016 387.705 97.528L391.977 99.136C391.049 101.408 389.537 103.2 387.441 104.512C385.345 105.824 382.897 106.48 380.097 106.48ZM369.825 94.672V91.24H391.065L392.409 94.672H369.825ZM431.97 106V102.136H436.026V89.584C436.026 87.728 435.602 86.272 434.754 85.216C433.922 84.16 432.634 83.632 430.89 83.632C429.498 83.632 428.242 84.008 427.122 84.76C426.018 85.512 425.146 86.592 424.506 88C423.866 89.408 423.546 91.088 423.546 93.04L422.514 87.904H423.714C424.098 85.168 425.082 83.12 426.666 81.76C428.266 80.384 430.234 79.696 432.57 79.696C435.226 79.696 437.218 80.496 438.546 82.096C439.874 83.696 440.538 85.952 440.538 88.864V102.136H445.17V106H431.97ZM397.242 106V102.136H402.018V84.16H397.242V80.296H406.53V102.136H410.634V106H397.242ZM414.954 106V102.136H419.034V89.584C419.034 87.728 418.61 86.272 417.762 85.216C416.93 84.16 415.634 83.632 413.874 83.632C412.482 83.632 411.226 84.008 410.106 84.76C409.002 85.512 408.13 86.592 407.49 88C406.85 89.408 406.53 91.088 406.53 93.04L405.498 87.904H406.722C407.09 85.168 408.074 83.12 409.674 81.76C411.274 80.384 413.234 79.696 415.554 79.696C418.21 79.696 420.202 80.496 421.53 82.096C422.874 83.696 423.546 85.952 423.546 88.864V102.136H428.154V106H414.954ZM469.187 106C468.339 106 467.691 105.736 467.243 105.208C466.795 104.664 466.571 103.896 466.571 102.904V96.4L466.979 95.488L466.739 92.512L466.571 90.784V88.888C466.571 87.8 466.339 86.888 465.875 86.152C465.427 85.416 464.755 84.864 463.859 84.496C462.963 84.112 461.867 83.92 460.571 83.92C458.699 83.92 457.227 84.304 456.155 85.072C455.083 85.824 454.395 86.96 454.091 88.48L449.771 87.592C450.059 85.848 450.651 84.4 451.547 83.248C452.459 82.08 453.675 81.208 455.195 80.632C456.731 80.056 458.579 79.768 460.739 79.768C463.043 79.768 464.955 80.096 466.475 80.752C468.011 81.408 469.163 82.392 469.931 83.704C470.699 85 471.083 86.64 471.083 88.624V102.136H474.707V106H469.187ZM457.331 106.336C454.643 106.336 452.595 105.728 451.187 104.512C449.779 103.28 449.075 101.488 449.075 99.136C449.075 97.024 449.675 95.4 450.875 94.264C452.075 93.112 454.059 92.248 456.827 91.672L467.891 89.392V92.56L457.571 94.888C456.275 95.192 455.315 95.664 454.691 96.304C454.067 96.928 453.755 97.776 453.755 98.848C453.755 100.048 454.123 100.952 454.859 101.56C455.595 102.168 456.667 102.472 458.075 102.472C459.787 102.472 461.291 102.064 462.587 101.248C463.899 100.416 464.915 99.256 465.635 97.768C466.371 96.28 466.739 94.528 466.739 92.512L467.939 98.176H466.379C466.011 100.864 465.067 102.896 463.547 104.272C462.027 105.648 459.955 106.336 457.331 106.336ZM488.119 102.136H492.247V106H478.663V102.136H483.607V84.16H478.663V80.296H488.119V102.136ZM501.151 102.136V89.68C501.151 87.808 500.719 86.336 499.855 85.264C499.007 84.176 497.695 83.632 495.919 83.632C494.447 83.632 493.119 84.008 491.935 84.76C490.767 85.512 489.839 86.592 489.151 88C488.463 89.392 488.119 91.072 488.119 93.04L487.111 87.904H488.311C488.583 86.128 489.127 84.64 489.943 83.44C490.759 82.24 491.799 81.336 493.063 80.728C494.343 80.12 495.791 79.816 497.407 79.816C500.095 79.816 502.143 80.616 503.551 82.216C504.959 83.816 505.663 86.104 505.663 89.08V102.136H510.295V106H497.095V102.136H501.151ZM534.296 106C533.448 106 532.8 105.736 532.352 105.208C531.904 104.664 531.68 103.896 531.68 102.904V96.4L532.088 95.488L531.848 92.512L531.68 90.784V88.888C531.68 87.8 531.448 86.888 530.984 86.152C530.536 85.416 529.864 84.864 528.968 84.496C528.072 84.112 526.976 83.92 525.68 83.92C523.808 83.92 522.336 84.304 521.264 85.072C520.192 85.824 519.504 86.96 519.2 88.48L514.88 87.592C515.168 85.848 515.76 84.4 516.656 83.248C517.568 82.08 518.784 81.208 520.304 80.632C521.84 80.056 523.688 79.768 525.848 79.768C528.152 79.768 530.064 80.096 531.584 80.752C533.12 81.408 534.272 82.392 535.04 83.704C535.808 85 536.192 86.64 536.192 88.624V102.136H539.816V106H534.296ZM522.44 106.336C519.752 106.336 517.704 105.728 516.296 104.512C514.888 103.28 514.184 101.488 514.184 99.136C514.184 97.024 514.784 95.4 515.984 94.264C517.184 93.112 519.168 92.248 521.936 91.672L533 89.392V92.56L522.68 94.888C521.384 95.192 520.424 95.664 519.8 96.304C519.176 96.928 518.864 97.776 518.864 98.848C518.864 100.048 519.232 100.952 519.968 101.56C520.704 102.168 521.776 102.472 523.184 102.472C524.896 102.472 526.4 102.064 527.696 101.248C529.008 100.416 530.024 99.256 530.744 97.768C531.48 96.28 531.848 94.528 531.848 92.512L533.048 98.176H531.488C531.12 100.864 530.176 102.896 528.656 104.272C527.136 105.648 525.064 106.336 522.44 106.336ZM579.742 106V96.736L579.886 94.504V91.192L579.742 87.088V71.944H573.238V68.08H584.254V102.136H588.862V106H579.742ZM570.934 79.768C572.95 79.768 574.758 80.2 576.358 81.064C577.974 81.928 579.326 83.184 580.414 84.832C581.518 86.48 582.302 88.488 582.766 90.856L579.886 93.064C579.886 91.256 579.55 89.656 578.878 88.264C578.222 86.872 577.262 85.784 575.998 85C574.75 84.216 573.23 83.824 571.438 83.824C569.694 83.824 568.19 84.224 566.926 85.024C565.662 85.808 564.694 86.904 564.022 88.312C563.35 89.704 563.014 91.32 563.014 93.16C563.014 94.984 563.366 96.6 564.07 98.008C564.774 99.4 565.758 100.496 567.022 101.296C568.286 102.08 569.758 102.472 571.438 102.472C573.198 102.472 574.702 102.08 575.95 101.296C577.214 100.496 578.182 99.392 578.854 97.984C579.542 96.56 579.886 94.92 579.886 93.064L580.606 99.016H579.55C579.23 100.488 578.686 101.792 577.918 102.928C577.15 104.048 576.142 104.928 574.894 105.568C573.646 106.208 572.158 106.528 570.43 106.528C568.67 106.528 567.054 106.2 565.582 105.544C564.11 104.888 562.83 103.96 561.742 102.76C560.67 101.56 559.838 100.144 559.246 98.512C558.654 96.88 558.358 95.096 558.358 93.16C558.358 90.536 558.87 88.216 559.894 86.2C560.934 84.184 562.39 82.608 564.262 81.472C566.15 80.336 568.374 79.768 570.934 79.768ZM605.754 106.48C603.05 106.48 600.714 105.92 598.746 104.8C596.778 103.664 595.266 102.104 594.21 100.12C593.154 98.12 592.626 95.824 592.626 93.232C592.626 90.624 593.162 88.312 594.234 86.296C595.306 84.264 596.81 82.68 598.746 81.544C600.682 80.392 602.938 79.816 605.514 79.816C608.122 79.816 610.37 80.384 612.258 81.52C614.162 82.656 615.618 84.232 616.626 86.248C617.65 88.264 618.161 90.592 618.161 93.232C618.161 93.616 618.154 93.92 618.138 94.144C618.122 94.352 618.098 94.528 618.066 94.672H613.602C613.634 94.432 613.658 94.176 613.674 93.904C613.69 93.616 613.698 93.28 613.698 92.896C613.698 91.152 613.37 89.608 612.714 88.264C612.074 86.904 611.146 85.832 609.93 85.048C608.714 84.264 607.242 83.872 605.514 83.872C603.85 83.872 602.394 84.272 601.146 85.072C599.898 85.856 598.922 86.952 598.218 88.36C597.53 89.768 597.186 91.392 597.186 93.232C597.186 95.008 597.522 96.584 598.194 97.96C598.882 99.32 599.858 100.392 601.122 101.176C602.402 101.944 603.93 102.328 605.706 102.328C607.546 102.328 609.122 101.904 610.434 101.056C611.762 100.192 612.738 99.016 613.362 97.528L617.634 99.136C616.706 101.408 615.194 103.2 613.098 104.512C611.002 105.824 608.554 106.48 605.754 106.48ZM595.482 94.672V91.24H616.722L618.066 94.672H595.482ZM387.057 182.136H391.785V186H377.601V182.136H382.545V164.16H377.601V160.296H387.057V182.136ZM396.417 165.168C396.081 165.072 395.729 165 395.361 164.952C395.009 164.904 394.649 164.88 394.281 164.88C392.089 164.88 390.337 165.664 389.025 167.232C387.713 168.8 387.057 170.984 387.057 173.784L386.049 168.048H387.249C387.457 166.256 387.897 164.76 388.569 163.56C389.241 162.344 390.113 161.432 391.185 160.824C392.257 160.216 393.489 159.912 394.881 159.912C395.153 159.912 395.409 159.928 395.649 159.96C395.905 159.976 396.161 160.008 396.417 160.056V165.168ZM407.311 179.112C407.311 180.216 407.511 181.04 407.911 181.584C408.327 182.112 408.927 182.376 409.711 182.376C410.495 182.376 411.095 182.104 411.511 181.56C411.927 181 412.135 180.184 412.135 179.112V176.592H416.143V179.064C416.143 180.648 415.911 181.992 415.447 183.096C414.999 184.2 414.295 185.04 413.335 185.616C412.375 186.192 411.135 186.48 409.615 186.48C408.047 186.48 406.759 186.184 405.751 185.592C404.759 184.984 404.015 184.136 403.519 183.048C403.039 181.944 402.799 180.632 402.799 179.112V164.16H398.479V160.296H402.799V153.816H407.311V160.296H415.735L415.687 164.16H407.311V179.112ZM433.816 186.48C431.112 186.48 428.776 185.92 426.808 184.8C424.84 183.664 423.328 182.104 422.272 180.12C421.216 178.12 420.688 175.824 420.688 173.232C420.688 170.624 421.224 168.312 422.296 166.296C423.368 164.264 424.872 162.68 426.808 161.544C428.744 160.392 431 159.816 433.576 159.816C436.184 159.816 438.432 160.384 440.32 161.52C442.224 162.656 443.68 164.232 444.688 166.248C445.712 168.264 446.224 170.592 446.224 173.232C446.224 173.616 446.216 173.92 446.2 174.144C446.184 174.352 446.16 174.528 446.128 174.672H441.664C441.696 174.432 441.72 174.176 441.736 173.904C441.752 173.616 441.76 173.28 441.76 172.896C441.76 171.152 441.432 169.608 440.776 168.264C440.136 166.904 439.208 165.832 437.992 165.048C436.776 164.264 435.304 163.872 433.576 163.872C431.912 163.872 430.456 164.272 429.208 165.072C427.96 165.856 426.984 166.952 426.28 168.36C425.592 169.768 425.248 171.392 425.248 173.232C425.248 175.008 425.584 176.584 426.256 177.96C426.944 179.32 427.92 180.392 429.184 181.176C430.464 181.944 431.992 182.328 433.768 182.328C435.608 182.328 437.184 181.904 438.496 181.056C439.824 180.192 440.8 179.016 441.424 177.528L445.696 179.136C444.768 181.408 443.256 183.2 441.16 184.512C439.064 185.824 436.616 186.48 433.816 186.48ZM423.544 174.672V171.24H444.784L446.128 174.672H423.544ZM415.349 266.6C411.989 266.6 409.039 265.9 406.499 264.5C403.979 263.08 402.009 261.13 400.589 258.65C399.169 256.15 398.459 253.28 398.459 250.04C398.459 246.78 399.169 243.89 400.589 241.37C402.009 238.83 403.979 236.85 406.499 235.43C409.039 233.99 411.989 233.27 415.349 233.27C418.709 233.27 421.649 233.99 424.169 235.43C426.709 236.85 428.689 238.83 430.109 241.37C431.529 243.89 432.239 246.78 432.239 250.04C432.239 253.28 431.529 256.15 430.109 258.65C428.689 261.13 426.709 263.08 424.169 264.5C421.649 265.9 418.709 266.6 415.349 266.6ZM415.349 261.41C417.509 261.41 419.409 260.94 421.049 260C422.709 259.06 424.009 257.74 424.949 256.04C425.889 254.34 426.359 252.34 426.359 250.04C426.359 247.76 425.889 245.75 424.949 244.01C424.009 242.27 422.709 240.91 421.049 239.93C419.409 238.95 417.509 238.46 415.349 238.46C413.189 238.46 411.279 238.95 409.619 239.93C407.979 240.91 406.689 242.27 405.749 244.01C404.809 245.75 404.339 247.76 404.339 250.04C404.339 252.34 404.809 254.34 405.749 256.04C406.689 257.74 407.979 259.06 409.619 260C411.279 260.94 413.189 261.41 415.349 261.41ZM465.443 266V254.42L465.623 251.63V247.49L465.443 242.36V223.43H457.313V218.6H471.083V261.17H476.843V266H465.443ZM454.433 233.21C456.953 233.21 459.213 233.75 461.213 234.83C463.233 235.91 464.923 237.48 466.283 239.54C467.663 241.6 468.643 244.11 469.223 247.07L465.623 249.83C465.623 247.57 465.203 245.57 464.363 243.83C463.543 242.09 462.343 240.73 460.763 239.75C459.203 238.77 457.303 238.28 455.063 238.28C452.883 238.28 451.003 238.78 449.423 239.78C447.843 240.76 446.633 242.13 445.793 243.89C444.953 245.63 444.533 247.65 444.533 249.95C444.533 252.23 444.973 254.25 445.853 256.01C446.733 257.75 447.963 259.12 449.543 260.12C451.123 261.1 452.963 261.59 455.063 261.59C457.263 261.59 459.143 261.1 460.703 260.12C462.283 259.12 463.493 257.74 464.333 255.98C465.193 254.2 465.623 252.15 465.623 249.83L466.523 257.27H465.203C464.803 259.11 464.123 260.74 463.163 262.16C462.203 263.56 460.943 264.66 459.383 265.46C457.823 266.26 455.963 266.66 453.803 266.66C451.603 266.66 449.583 266.25 447.743 265.43C445.903 264.61 444.303 263.45 442.943 261.95C441.603 260.45 440.563 258.68 439.823 256.64C439.083 254.6 438.713 252.37 438.713 249.95C438.713 246.67 439.353 243.77 440.633 241.25C441.933 238.73 443.753 236.76 446.093 235.34C448.453 233.92 451.233 233.21 454.433 233.21ZM497.958 266.6C494.578 266.6 491.658 265.9 489.198 264.5C486.738 263.08 484.848 261.13 483.528 258.65C482.208 256.15 481.548 253.28 481.548 250.04C481.548 246.78 482.218 243.89 483.558 241.37C484.898 238.83 486.778 236.85 489.198 235.43C491.618 233.99 494.438 233.27 497.658 233.27C500.918 233.27 503.728 233.98 506.088 235.4C508.468 236.82 510.288 238.79 511.548 241.31C512.828 243.83 513.467 246.74 513.467 250.04C513.467 250.52 513.458 250.9 513.438 251.18C513.418 251.44 513.388 251.66 513.348 251.84H507.768C507.808 251.54 507.838 251.22 507.858 250.88C507.878 250.52 507.888 250.1 507.888 249.62C507.888 247.44 507.478 245.51 506.658 243.83C505.858 242.13 504.698 240.79 503.178 239.81C501.658 238.83 499.818 238.34 497.658 238.34C495.578 238.34 493.758 238.84 492.198 239.84C490.638 240.82 489.418 242.19 488.538 243.95C487.678 245.71 487.248 247.74 487.248 250.04C487.248 252.26 487.668 254.23 488.508 255.95C489.368 257.65 490.588 258.99 492.168 259.97C493.768 260.93 495.678 261.41 497.898 261.41C500.198 261.41 502.168 260.88 503.808 259.82C505.468 258.74 506.688 257.27 507.468 255.41L512.808 257.42C511.648 260.26 509.758 262.5 507.138 264.14C504.518 265.78 501.458 266.6 497.958 266.6ZM485.118 251.84V247.55H511.668L513.348 251.84H485.118ZM531.208 261.17H537.118V266H519.388V261.17H525.568V238.7H519.388V233.87H531.208V261.17ZM542.908 239.96C542.488 239.84 542.048 239.75 541.588 239.69C541.148 239.63 540.698 239.6 540.238 239.6C537.498 239.6 535.308 240.58 533.668 242.54C532.028 244.5 531.208 247.23 531.208 250.73L529.948 243.56H531.448C531.708 241.32 532.258 239.45 533.098 237.95C533.938 236.43 535.028 235.29 536.368 234.53C537.708 233.77 539.248 233.39 540.988 233.39C541.328 233.39 541.648 233.41 541.948 233.45C542.268 233.47 542.588 233.51 542.908 233.57V239.96ZM558.805 261.17H563.965V266H546.985V261.17H553.165V238.7H546.985V233.87H558.805V261.17ZM575.095 261.17V245.6C575.095 243.26 574.555 241.42 573.475 240.08C572.415 238.72 570.775 238.04 568.555 238.04C566.715 238.04 565.055 238.51 563.575 239.45C562.115 240.39 560.955 241.74 560.095 243.5C559.235 245.24 558.805 247.34 558.805 249.8L557.545 243.38H559.045C559.385 241.16 560.065 239.3 561.085 237.8C562.105 236.3 563.405 235.17 564.985 234.41C566.585 233.65 568.395 233.27 570.415 233.27C573.775 233.27 576.335 234.27 578.095 236.27C579.855 238.27 580.735 241.13 580.735 244.85V261.17H586.525V266H570.025V261.17H575.095ZM616.526 266C615.466 266 614.656 265.67 614.096 265.01C613.536 264.33 613.256 263.37 613.256 262.13V254L613.766 252.86L613.466 249.14L613.256 246.98V244.61C613.256 243.25 612.966 242.11 612.386 241.19C611.826 240.27 610.986 239.58 609.866 239.12C608.746 238.64 607.376 238.4 605.756 238.4C603.416 238.4 601.576 238.88 600.236 239.84C598.896 240.78 598.036 242.2 597.656 244.1L592.256 242.99C592.616 240.81 593.356 239 594.476 237.56C595.616 236.1 597.136 235.01 599.036 234.29C600.956 233.57 603.266 233.21 605.966 233.21C608.846 233.21 611.236 233.62 613.136 234.44C615.056 235.26 616.496 236.49 617.456 238.13C618.416 239.75 618.896 241.8 618.896 244.28V261.17H623.426V266H616.526ZM601.706 266.42C598.346 266.42 595.786 265.66 594.026 264.14C592.266 262.6 591.386 260.36 591.386 257.42C591.386 254.78 592.136 252.75 593.636 251.33C595.136 249.89 597.616 248.81 601.076 248.09L614.906 245.24V249.2L602.006 252.11C600.386 252.49 599.186 253.08 598.406 253.88C597.626 254.66 597.236 255.72 597.236 257.06C597.236 258.56 597.696 259.69 598.616 260.45C599.536 261.21 600.876 261.59 602.636 261.59C604.776 261.59 606.656 261.08 608.276 260.06C609.916 259.02 611.186 257.57 612.086 255.71C613.006 253.85 613.466 251.66 613.466 249.14L614.966 256.22H613.016C612.556 259.58 611.376 262.12 609.476 263.84C607.576 265.56 604.986 266.42 601.706 266.42Z" fill="#348A8D"/>
<ellipse rx="201.786" ry="61.7607" transform="matrix(0.998647 0.0519954 -0.0447646 0.998998 280.258 398.435)" fill="#DAA63E"/>
<ellipse rx="202.677" ry="57.1519" transform="matrix(0.96665 -0.256101 0.222307 0.974977 577.377 391.296)" fill="#FCC24C"/>
<ellipse rx="202.474" ry="57.2018" transform="matrix(0.973979 0.226637 -0.196363 0.980531 169.438 409.744)" fill="#FCC24C"/>
<path d="M73.7102 135.656V268.417C73.7102 279.544 83.3669 288.564 95.225 288.564H116.74" stroke="#22BA8E" stroke-width="16" stroke-linecap="round"/>
<path d="M117.642 346.81V176.713" stroke="#22BA8E" stroke-width="16" stroke-linecap="round" stroke-linejoin="round"/>
<path d="M162.197 82.8673V215.285C162.197 226.585 152.382 235.744 140.329 235.744H118.46" stroke="#22BA8E" stroke-width="16" stroke-linecap="round"/>
<path d="M218 143.321L235.029 153.59L252.109 142" stroke="black" stroke-width="2" stroke-linecap="round"/>
<path d="M218 143.321L235.029 153.59L252.109 142" stroke="black" stroke-width="2" stroke-linecap="round"/>
<path d="M218 143.321L235.029 153.59L252.109 142" stroke="black" stroke-width="2" stroke-linecap="round"/>
<path d="M252 118.321L269.029 128.59L286.109 117" stroke="black" stroke-width="2" stroke-linecap="round"/>
<path d="M252 118.321L269.029 128.59L286.109 117" stroke="black" stroke-width="2" stroke-linecap="round"/>
<path d="M252 118.321L269.029 128.59L286.109 117" stroke="black" stroke-width="2" stroke-linecap="round"/>
<path d="M198 102.321L215.029 112.59L232.109 101" stroke="black" stroke-width="2" stroke-linecap="round"/>
<path d="M198 102.321L215.029 112.59L232.109 101" stroke="black" stroke-width="2" stroke-linecap="round"/>
<path d="M198 102.321L215.029 112.59L232.109 101" stroke="black" stroke-width="2" stroke-linecap="round"/>
<g clip-path="url(#clip1_8_54)">
<path d="M271.674 259.596V311.395C271.674 315.736 267.262 319.256 261.844 319.256H252.014" stroke="#22BA8E" stroke-width="7" stroke-linecap="round"/>
<path d="M251.602 341.981V275.615" stroke="#22BA8E" stroke-width="7" stroke-linecap="round" stroke-linejoin="round"/>
<path d="M231.245 239V290.665C231.245 295.073 235.73 298.647 241.237 298.647H251.228" stroke="#22BA8E" stroke-width="7" stroke-linecap="round"/>
</g>
<ellipse cx="60" cy="62.5" rx="36" ry="20.5" fill="white"/>
<ellipse cx="60" cy="62.5" rx="36" ry="20.5" fill="#EFEFEF"/>
<ellipse cx="60" cy="62.5" rx="36" ry="20.5" fill="white"/>
<ellipse cx="60" cy="62.5" rx="36" ry="20.5" fill="#EFEFEF"/>
<ellipse cx="623" cy="170.5" rx="36" ry="20.5" fill="white"/>
<ellipse cx="623" cy="170.5" rx="36" ry="20.5" fill="#EFEFEF"/>
<ellipse cx="88" cy="56.5" rx="36" ry="20.5" fill="#FEFEFE"/>
<ellipse cx="88" cy="56.5" rx="36" ry="20.5" fill="#FBFBFB"/>
<ellipse cx="601" cy="160.5" rx="36" ry="20.5" fill="#FEFEFE"/>
<ellipse cx="601" cy="160.5" rx="36" ry="20.5" fill="#FBFBFB"/>
</g>
<defs>
<linearGradient id="paint0_linear_8_54" x1="341.935" y1="0" x2="341.935" y2="384.7" gradientUnits="userSpaceOnUse">
<stop offset="0.765625" stop-color="#BCD8DA"/>
<stop offset="0.880208" stop-color="#D2FCFF"/>
<stop offset="1" stop-color="white"/>
</linearGradient>
<clipPath id="clip0_8_54">
<rect width="683.87" height="384.7" fill="white"/>
</clipPath>
<clipPath id="clip1_8_54">
<rect width="134" height="119" fill="white" transform="translate(178 239)"/>
</clipPath>
</defs>
</svg>
