<svg width="190" height="165" viewBox="0 0 190 165" fill="none" xmlns="http://www.w3.org/2000/svg">
<path d="M187.056 37.6919C190.098 41.7654 190.783 46.3748 189.109 51.5203L157.734 148.641C156.289 153.215 153.38 157.056 149.006 160.165C144.633 163.273 139.974 164.828 135.03 164.828H29.7233C23.8666 164.828 18.2191 162.916 12.7807 159.093C7.34237 155.269 3.55834 150.57 1.42863 144.996C-0.39684 140.208 -0.472902 135.67 1.20044 131.382C1.20044 131.096 1.31453 130.132 1.54272 128.488C1.7709 126.844 1.92302 125.522 1.99908 124.522C2.07514 123.95 1.96105 123.182 1.65681 122.217C1.35256 121.252 1.23847 120.555 1.31453 120.126C1.46666 119.34 1.7709 118.59 2.22727 117.875C2.68363 117.161 3.31114 116.321 4.10978 115.356C4.90842 114.391 5.53592 113.552 5.99229 112.837C7.7417 110.121 9.45307 106.852 11.1264 103.029C12.7998 99.2052 13.9407 95.9357 14.5492 93.22C14.7773 92.5053 14.7964 91.4334 14.6062 90.0041C14.4161 88.5748 14.397 87.5743 14.5492 87.0026C14.7773 86.2164 15.4239 85.2159 16.4887 84.001C17.5536 82.7861 18.2001 81.9643 18.4283 81.5355C20.0256 78.9628 21.6228 75.6754 23.2201 71.6734C24.8174 67.6713 25.7682 64.4554 26.0724 62.0256C26.1485 61.3824 26.0534 60.239 25.7872 58.5953C25.521 56.9516 25.54 55.9511 25.8442 55.5938C26.1485 54.6647 26.9851 53.5749 28.3542 52.3243C29.7233 51.0736 30.56 50.2697 30.8643 49.9123C32.3094 48.0543 33.9257 45.0349 35.7132 40.8542C37.5006 36.6735 38.5464 33.2253 38.8507 30.5096C38.9267 29.9379 38.8126 29.0268 38.5084 27.7761C38.2042 26.5255 38.1281 25.5786 38.2802 24.9354C38.4323 24.3637 38.7746 23.7205 39.307 23.0058C39.8395 22.2912 40.524 21.4694 41.3607 20.5403C42.1974 19.6113 42.8439 18.8609 43.3002 18.2892C43.9087 17.4316 44.5362 16.3418 45.1828 15.0197C45.8293 13.6976 46.3997 12.4469 46.8941 11.2678C47.3885 10.0886 47.997 8.80222 48.7196 7.40866C49.4422 6.0151 50.1838 4.87166 50.9444 3.97835C51.705 3.08504 52.7128 2.24533 53.9678 1.45922C55.2228 0.673105 56.5919 0.262183 58.0751 0.22645C59.5583 0.190718 61.3648 0.387246 63.4945 0.816035L63.3804 1.13763C66.2707 0.494443 68.2103 0.172852 69.199 0.172852H156.023C161.651 0.172852 165.987 2.17387 169.029 6.17589C172.072 10.1779 172.756 14.8231 171.083 20.1115L139.822 117.232C137.084 125.736 134.364 131.221 131.664 133.687C128.964 136.152 124.077 137.385 117.003 137.385H17.8578C15.8042 137.385 14.359 137.921 13.5223 138.993C12.6857 140.137 12.6476 141.673 13.4082 143.603C15.2337 148.605 20.7101 151.106 29.8374 151.106H135.144C137.35 151.106 139.479 150.553 141.533 149.445C143.587 148.337 144.918 146.854 145.526 144.996L179.754 39.1926C180.286 37.6204 180.476 35.5836 180.324 33.0824C183.215 34.1544 185.458 35.6908 187.056 37.6919ZM65.6622 37.9063C65.358 38.8353 65.434 39.6393 65.8904 40.3182C66.3468 40.9971 67.1074 41.3366 68.1722 41.3366H137.54C138.529 41.3366 139.498 40.9971 140.449 40.3182C141.4 39.6393 142.028 38.8353 142.332 37.9063L144.728 31.0456C145.032 30.1166 144.956 29.3126 144.5 28.6337C144.043 27.9548 143.283 27.6153 142.218 27.6153H72.85C71.8612 27.6153 70.8914 27.9548 69.9406 28.6337C68.9899 29.3126 68.3624 30.1166 68.0581 31.0456L65.6622 37.9063ZM56.1926 65.3487C55.8884 66.2778 55.9644 67.0817 56.4208 67.7607C56.8772 68.4396 57.6378 68.779 58.7026 68.779H128.07C129.059 68.779 130.029 68.4396 130.98 67.7607C131.93 67.0817 132.558 66.2778 132.862 65.3487L135.258 58.4881C135.562 57.5591 135.486 56.7551 135.03 56.0762C134.574 55.3973 133.813 55.0578 132.748 55.0578H63.3804C62.3916 55.0578 61.4218 55.3973 60.471 56.0762C59.5203 56.7551 58.8928 57.5591 58.5885 58.4881L56.1926 65.3487Z" fill="white"/>
</svg>
