<svg width="531" height="382" viewBox="0 0 531 382" fill="none" xmlns="http://www.w3.org/2000/svg">
<g clip-path="url(#clip0_2_67)">
<path d="M188.879 0H459.725V382H138.987L222.735 259.972L138.987 159.167L188.879 0Z" fill="#1B1B1B"/>
<path d="M266.801 111.673C259.15 111.673 252.415 110.173 246.594 107.174C240.857 104.175 236.408 100.094 233.248 94.9289C230.088 89.6808 228.508 83.7248 228.508 77.0605C228.508 70.3131 230.047 64.3571 233.123 59.1922C236.283 53.9442 240.565 49.8625 245.971 46.9468C251.376 43.9479 257.488 42.4485 264.306 42.4485C270.875 42.4485 276.779 43.8647 282.018 46.6969C287.34 49.4459 291.539 53.4444 294.616 58.6924C297.692 63.8573 299.231 70.0632 299.231 77.3105C299.231 78.0602 299.189 78.9348 299.106 79.9345C299.023 80.8509 298.94 81.7256 298.857 82.5585H244.349V71.1877H288.629L281.145 74.5615C281.145 71.0628 280.438 68.0221 279.024 65.4399C277.611 62.8576 275.657 60.8584 273.162 59.4421C270.667 57.9427 267.757 57.193 264.431 57.193C261.105 57.193 258.153 57.9427 255.575 59.4421C253.08 60.8584 251.126 62.8991 249.713 65.5648C248.299 68.1471 247.592 71.2295 247.592 74.8114V77.8103C247.592 81.4757 248.382 84.7245 249.962 87.5566C251.625 90.3056 253.912 92.4298 256.822 93.9292C259.816 95.3455 263.308 96.0534 267.3 96.0534C270.875 96.0534 273.993 95.5119 276.655 94.4291C279.399 93.3462 281.893 91.7218 284.138 89.5559L294.491 100.802C291.415 104.3 287.548 107.008 282.891 108.924C278.234 110.756 272.871 111.673 266.801 111.673Z" fill="white"/>
<path d="M531 185.645C531 230.994 493.506 267.757 447.252 267.757C400.998 267.757 363.503 230.994 363.503 185.645C363.503 140.296 400.998 103.533 447.252 103.533C493.506 103.533 531 140.296 531 185.645Z" fill="#1B1B1B"/>
<path d="M112.837 231.835L22.3444 185.645L14.2548 201.55L104.748 247.74L112.837 231.835Z" fill="white"/>
<path d="M99.7852 264.187H0V282.037H99.7852V264.187Z" fill="white"/>
<path d="M104.748 299.888L14.255 346.078L22.3446 361.983L112.837 315.793L104.748 299.888Z" fill="white"/>
</g>
<defs>
<clipPath id="clip0_2_67">
<rect width="531" height="382" fill="white"/>
</clipPath>
</defs>
</svg>
