<svg width="457" height="383" viewBox="0 0 457 383" fill="none" xmlns="http://www.w3.org/2000/svg">
<path d="M99.6117 2.14688C79.1717 6.20743 61.6771 17.0356 48.5562 33.5484C24.5459 63.9574 23.7426 108.443 46.7711 139.393C52.5729 147.154 63.7301 157.53 70.96 161.771L77.1188 165.381L63.8193 165.922C51.591 166.373 50.0736 166.554 45.7893 168.81C39.809 171.968 35.1676 176.841 32.2221 182.977L29.9014 187.939V274.564V361.189L32.3113 366.333C35.0783 372.288 40.4338 377.883 46.2355 380.77L50.4307 382.846H187.441H324.452L328.469 380.861C333.735 378.244 339.537 372.379 342.036 367.145L344.089 362.994L344.357 276.008C344.624 177.833 344.981 183.969 337.662 175.758C333.199 170.705 330.343 168.99 323.292 166.825L318.65 165.381L323.56 161.32C329.094 156.989 335.431 148.868 338.912 142.1C344.178 131.453 346.142 113.767 343.196 102.217C337.93 81.2824 321.596 64.5891 301.156 59.3555C297.407 58.3629 292.944 57.5508 291.337 57.5508C289.731 57.5508 271.969 51.5953 251.975 44.3766C137.368 2.86874 137.814 3.04922 129.335 1.69571C121.569 0.342194 107.109 0.612885 99.6117 2.14688ZM231.892 46.8129C251.618 53.9414 267.773 59.9871 267.684 60.2578C267.684 60.5285 264.382 62.3332 260.365 64.2281C250.011 69.191 239.925 79.4777 234.927 90.1254C230.999 98.5172 229.75 102.939 228.857 111.691C227.161 128.926 236.087 150.131 249.654 160.869C252.153 162.854 254.296 164.749 254.296 165.11C254.385 165.561 231.981 165.832 204.668 165.742C165.752 165.742 155.219 165.471 156.558 164.659C177.802 151.124 189.405 137.498 196.813 117.557C203.419 99.9609 203.597 77.3121 197.349 59.175C194.671 51.2344 188.78 40.4062 183.871 34.2703C181.372 31.2023 179.408 28.4953 179.408 28.2246C179.408 27.9539 183.157 29.127 187.709 30.7512C192.172 32.4656 212.077 39.5941 231.892 46.8129ZM111.572 53.9414C111.572 65.8523 111.304 75.5977 110.858 75.5977C110.501 75.5977 103.45 68.7398 95.2381 60.4383L80.2428 45.2789L84.2594 42.3914C91.043 37.4285 103.45 32.5558 109.609 32.3754L111.572 32.2852V53.9414ZM129.87 34.0898C138.171 36.2555 150.846 43.1133 150.846 45.4594C150.846 46.4519 122.105 75.5977 121.212 75.5977C120.766 75.5977 120.498 65.8523 120.498 53.9414C120.498 36.4359 120.766 32.2852 121.658 32.2852C122.372 32.2852 126.032 33.0973 129.87 34.0898ZM89.7041 67.4766L104.878 82.8164H83.1883H61.5879V80.741C61.5879 77.2219 64.0871 68.5594 66.5863 63.6867C69.3533 58.0922 73.1914 52.1367 73.9947 52.1367C74.2625 52.1367 81.4031 58.9945 89.7041 67.4766ZM161.289 56.468C166.02 63.5063 170.482 75.2367 170.482 80.741V82.8164H148.882H127.192L142.366 67.4766C150.667 58.9945 157.719 52.1367 157.986 52.1367C158.254 52.1367 159.682 54.0316 161.289 56.468ZM297.853 93.2836C306.601 97.5246 311.867 106.097 311.778 116.203C311.778 126.4 307.047 134.16 297.943 138.671C287.856 143.815 277.056 142.01 269.023 133.889C259.115 123.783 259.026 108.082 268.845 98.4269C277.503 90.0352 287.321 88.3207 297.853 93.2836ZM104.432 92.5617C104.432 92.9226 97.648 100.051 89.3471 108.443L74.1732 123.783L72.3881 121.527C67.3896 115.571 61.5879 100.773 61.5879 94.1859V91.8398H83.0098C94.7918 91.8398 104.432 92.1105 104.432 92.5617ZM170.482 93.9152C170.482 100.141 165.663 112.864 160.664 119.722L157.808 123.693L142.723 108.443C134.422 100.051 127.639 92.9226 127.639 92.5617C127.639 92.1105 137.279 91.8398 149.061 91.8398H170.482V93.9152ZM111.304 142.912C111.215 143.093 108.359 142.642 104.967 141.92C98.0051 140.476 90.6859 137.228 84.6164 133.077L80.332 130.189L95.7736 114.579L111.126 99.0586L111.394 120.805C111.483 132.806 111.483 142.732 111.304 142.912ZM149.596 131.453C146.026 135.423 132.994 141.018 123.444 142.732L120.498 143.183V120.895V98.6074L135.85 114.128C150.846 129.287 151.203 129.738 149.596 131.453ZM155.487 205.716C162.092 209.505 162.896 211.942 163.163 229.808C163.61 249.389 163.163 252.457 159.504 256.698C154.505 262.383 154.684 262.383 114.964 262.383C81.0461 262.383 78.9039 262.293 75.5121 260.578C73.4592 259.586 70.8707 257.33 69.6211 255.435C67.3896 252.186 67.3896 251.916 67.3896 233.147C67.3896 214.739 67.4789 214.017 69.4426 210.679C70.6029 208.784 73.0129 206.528 74.798 205.535C77.9221 203.911 80.332 203.821 115.053 203.73C151.471 203.73 152.006 203.73 155.487 205.716ZM221.002 317.336C226.09 319.682 228.768 323.832 229.214 329.968C229.571 335.834 227.518 339.804 222.252 343.413C219.663 345.218 218.325 345.489 213.951 345.218C207.971 344.767 204.936 342.782 201.99 337.638C197.974 330.6 200.652 321.577 207.971 317.696C212.612 315.17 216.093 315.08 221.002 317.336ZM259.115 316.884C263.043 318.509 267.595 323.923 268.309 327.893C269.469 334.209 265.988 341.248 260.276 343.955C250.368 348.737 239.211 341.609 239.211 330.51C239.211 324.554 241.799 320.404 247.244 317.606C251.796 315.35 255.01 315.08 259.115 316.884ZM299.014 317.606C309.546 323.02 309.992 336.465 299.906 343.413C295.8 346.211 288.303 345.94 283.929 342.691C277.056 337.819 275.896 327.622 281.43 321.306C286.518 315.441 292.319 314.177 299.014 317.606Z" fill="url(#paint0_linear_313_103)"/>
<path d="M79.0824 215.1C77.9221 216.273 77.6543 219.161 77.6543 233.057C77.6543 249.209 77.7436 249.66 79.618 251.013C81.3139 252.277 86.223 252.457 115.143 252.457C144.062 252.457 148.971 252.277 150.667 251.013C152.542 249.66 152.631 249.209 152.631 233.057C152.631 219.161 152.363 216.273 151.203 215.1C150.042 213.837 145.49 213.656 115.143 213.656C84.7949 213.656 80.2428 213.837 79.0824 215.1Z" fill="url(#paint1_linear_313_103)"/>
<path d="M211.183 328.344C209.755 330.42 210.112 332.585 212.254 334.3C214.486 336.104 216.717 335.653 218.324 333.217C219.573 331.322 219.663 330.42 218.859 328.705C217.52 325.727 213.147 325.637 211.183 328.344Z" fill="url(#paint2_linear_313_103)"/>
<path d="M249.743 328.795C247.869 332.856 251.617 336.646 255.634 334.751C258.133 333.578 258.847 329.517 256.884 327.532C254.92 325.547 250.903 326.269 249.743 328.795Z" fill="url(#paint3_linear_313_103)"/>
<path d="M289.284 327.713C285.892 331.863 291.516 337.729 295.443 334.119C297.407 332.315 297.764 329.156 296.157 327.532C294.64 325.998 290.534 326.179 289.284 327.713Z" fill="url(#paint4_linear_313_103)"/>
<path d="M384.254 186.586C381.398 187.759 377.56 192.361 376.667 195.7C375.507 199.67 375.507 348.106 376.667 353.068C377.203 355.415 378.631 357.851 380.952 360.017C385.325 364.077 388.895 364.618 407.104 364.167C421.475 363.897 424.42 362.904 428.169 357.129L430.222 354.151V274.655C430.222 196.963 430.133 195.068 428.437 192.181C424.777 186.135 422.903 185.684 403.444 185.774C393.894 185.774 385.236 186.135 384.254 186.586Z" fill="url(#paint5_linear_313_103)"/>
<path d="M14.013 200.482C8.21128 202.106 3.03433 207.25 1.33843 213.115C-0.535986 219.431 -0.535986 252.998 1.33843 259.315C3.39136 266.263 9.10386 271.406 16.3337 272.76L19.6363 273.391V236.305C19.6363 215.912 19.3685 199.219 19.0115 199.309C18.5652 199.309 16.3337 199.85 14.013 200.482Z" fill="url(#paint6_linear_313_103)"/>
<path d="M440.934 274.564V336.826L442.808 334.119C458.339 311.019 461.374 259.676 449.056 227.552C447.539 223.672 445.129 218.619 443.611 216.363L440.934 212.303V274.564Z" fill="url(#paint7_linear_313_103)"/>
<path d="M355.246 274.564V328.254H360.602H365.957V274.564V220.875H360.602H355.246V274.564Z" fill="url(#paint8_linear_313_103)"/>
<defs>
<linearGradient id="paint0_linear_313_103" x1="187.235" y1="382.846" x2="187.235" y2="0.821625" gradientUnits="userSpaceOnUse">
<stop stop-color="#22D78D"/>
<stop offset="1" stop-color="#0F6944"/>
</linearGradient>
<linearGradient id="paint1_linear_313_103" x1="115.143" y1="252.457" x2="115.143" y2="213.656" gradientUnits="userSpaceOnUse">
<stop stop-color="#22D78D"/>
<stop offset="1" stop-color="#0F6944"/>
</linearGradient>
<linearGradient id="paint2_linear_313_103" x1="214.853" y1="335.4" x2="214.853" y2="326.389" gradientUnits="userSpaceOnUse">
<stop stop-color="#22D78D"/>
<stop offset="1" stop-color="#0F6944"/>
</linearGradient>
<linearGradient id="paint3_linear_313_103" x1="253.629" y1="335.253" x2="253.629" y2="326.391" gradientUnits="userSpaceOnUse">
<stop stop-color="#22D78D"/>
<stop offset="1" stop-color="#0F6944"/>
</linearGradient>
<linearGradient id="paint4_linear_313_103" x1="292.705" y1="335.245" x2="292.705" y2="326.468" gradientUnits="userSpaceOnUse">
<stop stop-color="#22D78D"/>
<stop offset="1" stop-color="#0F6944"/>
</linearGradient>
<linearGradient id="paint5_linear_313_103" x1="403.009" y1="364.3" x2="403.009" y2="185.765" gradientUnits="userSpaceOnUse">
<stop stop-color="#22D78D"/>
<stop offset="1" stop-color="#0F6944"/>
</linearGradient>
<linearGradient id="paint6_linear_313_103" x1="9.78445" y1="273.391" x2="9.78445" y2="199.309" gradientUnits="userSpaceOnUse">
<stop stop-color="#22D78D"/>
<stop offset="1" stop-color="#0F6944"/>
</linearGradient>
<linearGradient id="paint7_linear_313_103" x1="448.799" y1="336.826" x2="448.799" y2="212.303" gradientUnits="userSpaceOnUse">
<stop stop-color="#22D78D"/>
<stop offset="1" stop-color="#0F6944"/>
</linearGradient>
<linearGradient id="paint8_linear_313_103" x1="360.602" y1="328.254" x2="360.602" y2="220.875" gradientUnits="userSpaceOnUse">
<stop stop-color="#22D78D"/>
<stop offset="1" stop-color="#0F6944"/>
</linearGradient>
</defs>
</svg>
