<svg width="425" height="479" viewBox="0 0 425 479" fill="none" xmlns="http://www.w3.org/2000/svg">
<path d="M206.709 2.03007C204.98 3.77013 204.777 5.99354 204.472 18.5607C204.065 35.1879 204.574 38.8614 207.522 41.5681C212.097 45.6283 218.807 42.8248 220.027 36.3479C220.433 34.5112 220.535 26.4876 220.332 18.5607C219.925 1.83673 219.213 -3.8147e-06 212.402 -3.8147e-06C209.86 -3.8147e-06 208.03 0.676689 206.709 2.03007Z" fill="black"/>
<path d="M102.808 27.3575C99.7585 30.451 99.9618 33.0611 104.232 40.988C112.06 55.4885 118.973 65.8322 121.718 66.7989C127.818 69.0223 133.409 63.1254 131.173 56.8419C129.546 52.5884 116.126 30.0643 113.483 27.2608C110.637 24.3607 105.655 24.4574 102.808 27.3575Z" fill="black"/>
<path d="M311.321 27.2609C308.678 30.0643 295.258 52.5884 293.632 56.8419C291.395 63.1254 296.986 69.0223 303.086 66.7989C307.051 65.3489 324.232 36.9279 324.232 31.7077C324.232 25.8108 315.591 22.9107 311.321 27.2609Z" fill="black"/>
<path d="M199.186 65.252C198.372 65.4454 194.306 66.1221 190.341 66.7021C184.444 67.5721 182.513 68.3455 180.886 70.2789C178.548 73.0823 178.446 74.339 179.971 77.7225C181.699 81.2026 185.461 82.3626 191.561 81.2026C194.407 80.7193 202.337 79.9459 209.352 79.6559C252.966 77.5291 295.563 96.9598 322.707 131.278C352.8 169.366 357.07 222.051 333.687 265.166C327.079 277.346 318.742 287.69 305.526 300.16C289.87 314.951 282.347 326.551 279.5 340.375C277.263 351.202 279.907 349.945 259.167 349.945H240.868V316.594C240.868 284.5 240.766 283.146 238.834 281.31C235.785 278.41 230.396 278.7 227.753 281.89C225.72 284.403 225.618 285.563 225.618 317.174V349.945H214.943H204.269V293.393V236.841H214.943H225.618V250.375C225.618 263.522 225.72 264.102 228.16 266.326C231.21 269.226 234.666 269.419 238.224 266.712C240.868 264.779 240.868 264.682 240.868 250.762V236.841H249.814C260.082 236.841 265.572 234.908 271.672 229.301C275.942 225.338 279.5 217.411 279.5 211.707C279.5 205.52 275.84 197.883 270.859 193.437C257.337 181.643 235.276 186.283 228.058 202.524C227.245 204.554 226.635 209.097 226.635 214.124V222.341H215.553H204.574L204.065 213.834C203.455 203.684 200.812 197.69 194.814 192.857C190.442 189.28 182.818 186.573 177.328 186.573C157.808 186.573 145.1 206.39 154.047 223.018C157.402 229.204 163.502 234.231 169.5 235.875C171.533 236.358 176.82 236.841 181.191 236.841H189.019V293.393V349.945H170.923H152.929L151.2 342.115C149.37 333.705 144.49 322.974 139.102 315.434C137.272 312.824 129.952 305.091 122.938 298.227C100.877 276.67 90.1003 258.109 84.1021 231.718C80.9505 217.701 80.9505 195.08 84.2037 180.966C92.8452 142.491 118.769 110.397 155.165 92.8997C163.705 88.8395 165.636 87.0028 165.636 82.846C165.636 79.8492 161.672 76.3691 158.215 76.3691C156.69 76.3691 152.115 77.9158 148.049 79.8492C106.773 99.5699 77.5956 136.401 68.3442 180.483C66.1076 191.213 65.9043 219.344 67.9375 230.075C74.0374 261.782 89.4903 288.463 116.126 312.824C129.647 325.295 135.747 336.798 137.069 352.556C137.882 361.739 139.611 364.446 144.999 364.446H148.354V373.146V381.847H142.355C137.069 381.847 136.052 382.137 134.222 384.36C131.376 387.743 131.579 391.03 134.629 393.93C136.662 395.96 138.086 396.347 142.762 396.347H148.354V404.081V411.814H142.355C137.069 411.814 136.052 412.104 134.222 414.328C131.376 417.711 131.579 420.998 134.629 423.898C136.662 425.928 138.086 426.315 142.762 426.315H148.354V429.408C148.354 433.758 152.42 441.589 156.487 445.455C160.757 449.322 167.365 452.416 171.431 452.416C174.176 452.416 174.888 452.996 177.226 457.636C180.784 464.596 188.918 472.04 197.051 475.907C203.354 478.807 204.37 479 214.943 479C225.415 479 226.533 478.807 232.938 475.907C241.071 472.233 248.391 465.66 252.661 458.216C255.406 453.382 256.016 452.899 260.082 452.222C271.469 450.386 281.533 439.849 281.533 429.698V426.315H287.023C293.936 426.315 297.799 423.801 297.799 419.161C297.799 413.941 295.766 412.394 288.446 411.814L282.042 411.331L281.737 403.791L281.432 396.347H286.921C293.936 396.347 297.799 393.834 297.799 389.193C297.799 383.973 295.766 382.427 288.446 381.847L282.042 381.363V373.146V364.929L285.905 364.349C290.785 363.576 292.615 361.256 292.716 355.746C292.818 348.495 295.563 338.248 299.426 330.708C302.476 324.811 305.729 320.944 317.522 309.344C342.023 285.37 354.325 264.586 361.034 236.358C363.576 225.241 364.694 198.85 362.966 187.346C358.289 156.219 343.447 128.184 319.657 105.853C299.019 86.5195 272.892 73.179 243.918 67.1855C237.005 65.7354 203.354 64.2853 199.186 65.252ZM182.411 202.524C186.783 204.554 188.003 207.454 188.003 215.767V222.534L180.276 222.148C173.058 221.858 172.346 221.568 169.601 218.667C165.941 214.801 165.636 209.387 168.788 205.52C172.448 201.074 176.921 200.107 182.411 202.524ZM257.744 202.524C265.267 205.52 265.979 216.347 258.862 220.408C256.524 221.858 253.779 222.341 248.798 222.341H241.884V216.154C241.884 208.227 243.003 205.424 247.171 203.007C251.136 200.687 252.966 200.59 257.744 202.524ZM266.284 373.63V381.847H214.943H163.603V373.63V365.413H214.943H266.284V373.63ZM266.284 404.081V411.814H214.943H163.603V404.081V396.347H214.943H266.284V404.081ZM265.877 429.408C265.572 431.148 263.844 433.758 262.217 435.208L259.167 437.915H215.147C166.958 437.915 168.381 438.109 165.128 432.115C161.773 425.928 158.418 426.315 215.045 426.315H266.589L265.877 429.408Z" fill="#F65E08"/>
<path d="M28.8987 102.953C25.8488 105.757 25.5438 110.204 28.2887 112.524C32.6602 116.294 58.1779 129.538 61.0245 129.538C66.5143 129.538 69.7676 123.737 67.0226 118.904C65.701 116.584 36.5235 100.537 33.5752 100.537C32.3553 100.537 30.2203 101.6 28.8987 102.953Z" fill="black"/>
<path d="M374.048 108.754C366.016 113.2 358.798 117.647 358.086 118.517C354.732 122.964 358.086 129.538 363.78 129.538C366.83 129.538 391.737 116.68 396.21 112.814C397.532 111.654 398.447 109.72 398.447 108.077C398.447 104.693 394.38 100.537 391.127 100.537C389.806 100.537 382.181 104.21 374.048 108.754Z" fill="black"/>
<path d="M1.95779 202.04C-0.583805 204.457 -0.685469 208.904 1.85613 211.804C3.78774 214.124 4.09273 214.124 22.7989 214.124C41.505 214.124 41.81 214.124 43.7416 211.804C46.2832 208.904 46.1816 204.457 43.64 202.04C41.7084 200.204 40.2851 200.107 22.7989 200.107C5.3127 200.107 3.8894 200.204 1.95779 202.04Z" fill="black"/>
<path d="M381.164 202.04C378.622 204.457 378.521 208.904 381.062 211.804C382.994 214.124 383.299 214.124 402.005 214.124C420.711 214.124 421.016 214.124 422.948 211.804C425.489 208.904 425.388 204.457 422.846 202.04C420.914 200.204 419.491 200.107 402.005 200.107C384.519 200.107 383.095 200.204 381.164 202.04Z" fill="black"/>
<path d="M47.0966 291.17C39.1668 295.617 31.9486 299.774 31.0337 300.547C28.7971 302.384 28.8987 308.57 31.237 310.601C34.7952 313.694 38.8618 312.534 52.9931 304.897C67.4293 296.97 71.0892 294.167 71.0892 290.59C71.0892 287.4 68.141 284.306 64.4811 283.726C61.9395 283.243 58.8896 284.596 47.0966 291.17Z" fill="black"/>
<path d="M357.781 284.5C356.46 285.176 354.833 286.916 354.223 288.366C352.495 293.103 355.138 295.617 370.489 304.22C385.739 312.631 390.416 313.887 393.669 310.504C395.905 308.087 395.905 302.287 393.669 300.45C390.619 297.937 363.373 283.243 361.746 283.243C360.933 283.243 359.205 283.823 357.781 284.5Z" fill="black"/>
<path d="M222.534 309.468C224.745 349.453 194.315 383.59 154.643 385.784C114.972 387.978 80.964 357.404 78.753 317.419C76.5419 277.434 106.972 243.297 146.643 241.104C186.315 238.91 220.323 269.484 222.534 309.468Z" stroke="#174D32" stroke-width="12"/>
<rect x="4.93408" y="458.463" width="133.013" height="10" rx="4" transform="rotate(-43.5213 4.93408 458.463)" fill="#174D32"/>
</svg>
