<svg width="23" height="26" viewBox="0 0 23 26" fill="none" xmlns="http://www.w3.org/2000/svg">
<circle cx="11.5" cy="14.5" r="11.5" fill="#35AB7B"/>
<path d="M11.7185 0.0781231C11.6257 0.154597 11.5933 0.221512 11.5933 0.341003C11.5933 0.474833 11.6396 0.536968 11.8947 0.766391C12.1126 0.967136 12.2332 1.12486 12.3445 1.35907C12.4836 1.65062 12.4975 1.71276 12.4975 2.13337C12.4975 2.72604 12.3816 2.98892 11.9179 3.43821C11.6489 3.69631 11.5933 3.77756 11.5933 3.90183C11.5933 4.01654 11.6304 4.08824 11.7416 4.17905C12.261 4.61878 12.4743 5.00593 12.5114 5.54603C12.5485 6.15782 12.3166 6.69792 11.8668 7.05161C11.7416 7.14721 11.6304 7.27626 11.6118 7.33839C11.5283 7.63473 11.7973 7.88327 12.0709 7.76856C12.2935 7.67297 12.8128 7.11375 12.9519 6.81741C13.3785 5.9045 13.2719 4.85776 12.6783 4.10736L12.516 3.90183L12.6969 3.65329C13.0586 3.15621 13.2162 2.68303 13.2162 2.10947C13.2162 1.34473 12.8916 0.666019 12.2935 0.178496C12.0477 -0.0222493 11.8808 -0.0509271 11.7185 0.0781231Z" fill="black"/>
<path d="M9.1957 3.55812C9.06122 3.57724 8.94993 3.74453 8.94993 3.92138C8.94993 4.02175 8.9963 4.09822 9.12151 4.20816C9.43219 4.48059 9.60376 4.68612 9.72896 4.95378C9.84025 5.1832 9.85417 5.27401 9.85417 5.67072C9.85417 6.07221 9.84025 6.15825 9.71969 6.40201C9.59449 6.67445 9.40901 6.89909 9.09832 7.16197C8.84328 7.37706 8.91284 7.71641 9.22816 7.79766C9.46929 7.8598 10.0072 7.3675 10.2854 6.8274C10.6517 6.11523 10.6657 5.28357 10.3225 4.58097C10.1602 4.25117 9.86344 3.88314 9.63622 3.72063C9.39973 3.55812 9.33481 3.53423 9.1957 3.55812Z" fill="black"/>
<path d="M14.3053 3.55813C14.1476 3.59159 14.0503 3.71586 14.0503 3.88793C14.0503 4.05043 14.1198 4.14603 14.3749 4.35633C14.7134 4.63355 14.9777 5.20233 14.9777 5.66595C14.9777 5.99575 14.8339 6.43547 14.6299 6.72225C14.5371 6.8513 14.4444 6.96123 14.4259 6.96123C14.4073 6.96123 14.3146 7.03293 14.2218 7.12374C13.9482 7.37706 13.9946 7.69252 14.3192 7.79767C14.4676 7.84547 14.871 7.56347 15.1214 7.23845C15.6083 6.60754 15.7753 5.86192 15.6037 5.10673C15.4785 4.57141 15.1446 4.03609 14.7505 3.73976C14.5047 3.55813 14.4351 3.52945 14.3053 3.55813Z" fill="black"/>
<path d="M4.75301 9.48955C4.53507 9.5469 4.41914 9.62338 4.28003 9.81456L4.15019 9.98663V12.7397C4.15483 15.0626 4.1641 15.5453 4.22438 15.8417L4.29858 16.1954L3.99253 16.1619C3.49636 16.1093 2.70342 16.3627 2.41128 16.6638C2.21189 16.8693 2.351 17.2851 2.61995 17.2851C2.68023 17.2851 2.87499 17.2087 3.04656 17.1131C3.27378 16.9936 3.44999 16.9362 3.65402 16.9171C3.81168 16.9028 3.94152 16.9028 3.94152 16.9219C3.94152 16.9362 3.65866 17.3855 3.31552 17.9208C2.65241 18.9437 2.6014 19.0727 2.77298 19.2926C2.86572 19.4073 3.15322 19.4408 3.26451 19.3452C3.29697 19.3165 3.57983 18.8959 3.89515 18.4083C4.49333 17.4811 4.56753 17.419 4.51652 17.8826C4.45624 18.4227 4.23366 18.9819 3.87197 19.4742C3.48245 20.0095 3.47781 20.0095 2.57822 20.0095H1.80846L1.75746 19.8757C1.62762 19.5363 1.73427 18.7716 1.9754 18.2793C2.11915 17.9877 2.12378 17.744 1.98467 17.6484C1.84556 17.548 1.60907 17.5528 1.52096 17.6532C1.39113 17.8061 1.16391 18.308 1.08044 18.6234C0.969151 19.044 0.973788 19.8088 1.08508 20.1051C1.24274 20.5257 1.27984 20.4875 0.704837 20.4875C0.00463708 20.4875 0 20.4971 0 21.2475C0.00463708 21.8545 0.0324596 21.9357 0.259677 22.017C0.375604 22.0552 5.26309 23.0207 5.34656 23.0207C5.36511 23.0207 5.37902 23.2549 5.37902 23.5417C5.37902 24.0866 5.42075 24.2825 5.55523 24.3877C5.62015 24.4403 6.6403 24.4498 10.8322 24.4546C15.882 24.4546 16.035 24.4498 16.1417 24.3638C16.2483 24.2777 16.253 24.2347 16.2669 23.6468C16.2762 23.3027 16.2947 23.0207 16.3133 23.0207C16.3967 23.0207 21.2842 22.0552 21.4141 22.0122C21.4929 21.9835 21.5856 21.9214 21.6088 21.8736C21.6366 21.8258 21.6552 21.5342 21.6552 21.2331C21.6552 20.4158 21.8546 20.4875 19.6381 20.4875C17.8157 20.4875 17.811 20.4875 17.7137 20.5926C17.5421 20.7838 17.6116 21.061 17.8574 21.1519C17.9548 21.1853 18.5252 21.2044 19.4804 21.2044C20.9272 21.2044 20.9596 21.2044 20.9596 21.3C20.9596 21.3526 20.9457 21.3956 20.9318 21.3956C20.9179 21.3956 19.805 21.6107 18.4649 21.8736L16.0258 22.3515H10.8322H5.63869L3.19959 21.8736C1.85483 21.6107 0.741934 21.3956 0.728022 21.3956C0.709474 21.3956 0.695563 21.3526 0.695563 21.3C0.695563 21.2044 0.728022 21.2044 8.66671 21.2044C14.0736 21.2044 16.6842 21.1901 16.7677 21.1566C17.0227 21.0563 17.0877 20.8316 16.9207 20.6165L16.828 20.4875L15.6362 20.4779L14.4445 20.4636L14.7923 20.1959C15.5435 19.6128 16.1046 18.9867 16.5637 18.2076C16.6935 17.9877 16.8233 17.8109 16.8512 17.8109C16.879 17.8109 17.0366 17.8587 17.2036 17.916C17.6534 18.069 18.6596 18.069 19.1651 17.916C20.4542 17.5337 21.3909 16.5682 21.7572 15.2442C21.9056 14.7137 21.9056 13.7864 21.7572 13.2559C21.3909 11.9463 20.4913 11.0047 19.1975 10.5841C18.9008 10.4885 18.7524 10.4742 18.1959 10.4742H17.5375L17.5189 10.2208C17.4864 9.84324 17.2592 9.58036 16.8975 9.49433C16.6379 9.43219 15.1633 9.43697 14.9824 9.4991C14.732 9.58992 14.6625 9.8767 14.8526 10.0583C14.9546 10.1587 15.001 10.1635 15.8217 10.1635C16.2994 10.1635 16.7167 10.1778 16.7584 10.1922C16.8141 10.2161 16.8326 10.2925 16.8326 10.5506V10.8804H10.8276H4.82257V10.5506C4.82257 10.2925 4.84112 10.2161 4.89676 10.1922C4.93849 10.1778 6.98809 10.1635 9.45502 10.1635H13.9437L14.0411 10.0535C14.2219 9.85758 14.157 9.58992 13.9066 9.4991C13.7397 9.43697 4.99414 9.43219 4.75301 9.48955ZM19.1419 11.3249C20.0554 11.6547 20.7417 12.3669 21.0385 13.2894C21.21 13.8295 21.2193 14.6085 21.0616 15.1343C20.5933 16.6829 19.012 17.6293 17.5328 17.2421C17.3195 17.1895 17.134 17.137 17.1248 17.1226C17.1108 17.1131 17.3334 16.334 17.3659 16.291C17.3705 16.2862 17.4772 16.3149 17.6024 16.3531C17.9362 16.4583 18.5205 16.4439 18.8497 16.3292C19.2439 16.1906 19.4804 16.0329 19.7493 15.727C20.1481 15.2777 20.3104 14.8523 20.3104 14.2501C20.3104 13.6096 20.1018 13.103 19.652 12.6632C19.1372 12.1661 18.5391 11.9845 17.7693 12.0944L17.5235 12.1327L17.5375 11.6882L17.5514 11.2389L17.6905 11.2054C17.7693 11.1863 18.0475 11.1768 18.3165 11.1863C18.6921 11.2007 18.8822 11.2293 19.1419 11.3249ZM16.8187 13.5905C16.8048 15.2299 16.7862 15.5979 16.7213 15.899C16.2854 17.8252 15.1076 19.3547 13.4104 20.2151L13.007 20.4158L10.9203 20.4301C9.50602 20.4397 8.778 20.4301 8.66207 20.3919L8.48586 20.3393L8.56933 20.1625C8.91248 19.4551 8.78728 18.6426 8.25865 18.1264C7.67437 17.5671 6.82579 17.3473 5.78708 17.4907L5.51813 17.5241L5.37438 17.2039C5.29555 17.0223 5.18426 16.7164 5.12398 16.5204C4.86894 15.6983 4.85966 15.617 4.83648 13.5666L4.81329 11.6452H10.8276H16.8373L16.8187 13.5905ZM18.8497 12.9404C19.3088 13.1794 19.5824 13.6239 19.6056 14.1879C19.6241 14.5034 19.6056 14.5942 19.4989 14.8332C19.3413 15.1964 19.1465 15.402 18.8034 15.5692C18.4741 15.7318 18.0522 15.7556 17.6951 15.6314C17.4725 15.5549 17.4725 15.5501 17.5004 15.3781C17.5143 15.2825 17.5282 14.6946 17.5282 14.0684V12.9357L17.658 12.8831C18.0243 12.7349 18.4927 12.7588 18.8497 12.9404ZM7.23849 18.3271C7.47034 18.4227 7.9155 18.7525 7.86913 18.7955C7.85986 18.8051 7.37296 18.915 6.78869 19.0297C6.20442 19.1492 5.68043 19.2687 5.62478 19.2926C5.36974 19.4025 5.32337 19.7132 5.5274 19.9139L5.62942 20.0095H5.26773C5.06833 20.0095 4.91531 19.9952 4.92458 19.9713C4.93386 19.9522 5.03587 19.7323 5.15644 19.4838C5.28164 19.2209 5.4022 18.8815 5.44394 18.6808C5.48103 18.4848 5.51813 18.3223 5.5274 18.3128C5.60624 18.2458 6.00966 18.2028 6.44555 18.2124C6.86288 18.2219 7.03446 18.2458 7.23849 18.3271ZM7.68365 19.7944L7.45643 20.0095L6.68668 20.0047L5.91228 20L6.86288 19.7944C7.38688 19.6797 7.83667 19.5889 7.85986 19.5841C7.88768 19.5841 7.80421 19.6797 7.68365 19.7944ZM15.5806 23.427V23.7376H10.8276H6.07458V23.427V23.1163H10.8276H15.5806V23.427Z" fill="black"/>
</svg>
